%TF.GenerationSoftware,KiCad,Pcbnew,9.0.5*%
%TF.CreationDate,2026-01-06T21:45:25+05:30*%
%TF.ProjectId,Rheneium,5268656e-6569-4756-9d2e-6b696361645f,rev?*%
%TF.SameCoordinates,Original*%
%TF.FileFunction,Paste,Bot*%
%TF.FilePolarity,Positive*%
%FSLAX46Y46*%
G04 Gerber Fmt 4.6, Leading zero omitted, Abs format (unit mm)*
G04 Created by KiCad (PCBNEW 9.0.5) date 2026-01-06 21:45:25*
%MOMM*%
%LPD*%
G01*
G04 APERTURE LIST*
G04 Aperture macros list*
%AMRoundRect*
0 Rectangle with rounded corners*
0 $1 Rounding radius*
0 $2 $3 $4 $5 $6 $7 $8 $9 X,Y pos of 4 corners*
0 Add a 4 corners polygon primitive as box body*
4,1,4,$2,$3,$4,$5,$6,$7,$8,$9,$2,$3,0*
0 Add four circle primitives for the rounded corners*
1,1,$1+$1,$2,$3*
1,1,$1+$1,$4,$5*
1,1,$1+$1,$6,$7*
1,1,$1+$1,$8,$9*
0 Add four rect primitives between the rounded corners*
20,1,$1+$1,$2,$3,$4,$5,0*
20,1,$1+$1,$4,$5,$6,$7,0*
20,1,$1+$1,$6,$7,$8,$9,0*
20,1,$1+$1,$8,$9,$2,$3,0*%
G04 Aperture macros list end*
%ADD10RoundRect,0.250000X-0.325000X-0.450000X0.325000X-0.450000X0.325000X0.450000X-0.325000X0.450000X0*%
G04 APERTURE END LIST*
D10*
%TO.C,D65*%
X274406250Y-149955250D03*
X276456250Y-149955250D03*
%TD*%
%TO.C,D71*%
X252743750Y-92868750D03*
X254793750Y-92868750D03*
%TD*%
%TO.C,D57*%
X124950000Y-149955250D03*
X127000000Y-149955250D03*
%TD*%
%TO.C,D28*%
X52718750Y-111918750D03*
X54768750Y-111918750D03*
%TD*%
%TO.C,D41*%
X58426786Y-130968750D03*
X60476786Y-130968750D03*
%TD*%
%TO.C,D11*%
X252743750Y-66675000D03*
X254793750Y-66675000D03*
%TD*%
%TO.C,D40*%
X32564286Y-130968750D03*
X34614286Y-130968750D03*
%TD*%
%TO.C,D67*%
X74798156Y-169068750D03*
X76848156Y-169068750D03*
%TD*%
%TO.C,D17*%
X81293750Y-92868750D03*
X83343750Y-92868750D03*
%TD*%
%TO.C,D7*%
X164637500Y-66675000D03*
X166687500Y-66675000D03*
%TD*%
%TO.C,D43*%
X96064286Y-130968750D03*
X98114286Y-130968750D03*
%TD*%
%TO.C,D69*%
X359900000Y-66675000D03*
X361950000Y-66675000D03*
%TD*%
%TO.C,D79*%
X28760656Y-169068750D03*
X30810656Y-169068750D03*
%TD*%
%TO.C,D83*%
X289673156Y-169068750D03*
X291723156Y-169068750D03*
%TD*%
%TO.C,D27*%
X30262500Y-111918750D03*
X32312500Y-111918750D03*
%TD*%
%TO.C,D15*%
X43193750Y-92868750D03*
X45243750Y-92868750D03*
%TD*%
%TO.C,D80*%
X51779406Y-169068750D03*
X53829406Y-169068750D03*
%TD*%
%TO.C,D66*%
X321800000Y-66675000D03*
X323850000Y-66675000D03*
%TD*%
%TO.C,D53*%
X37075000Y-149955250D03*
X39125000Y-149955250D03*
%TD*%
%TO.C,D20*%
X138443750Y-92868750D03*
X140493750Y-92868750D03*
%TD*%
%TO.C,D45*%
X135189286Y-130968750D03*
X137239286Y-130968750D03*
%TD*%
%TO.C,D60*%
X182331250Y-149955250D03*
X184381250Y-149955250D03*
%TD*%
%TO.C,D42*%
X77014286Y-130968750D03*
X79064286Y-130968750D03*
%TD*%
%TO.C,D38*%
X243218750Y-111918750D03*
X245268750Y-111918750D03*
%TD*%
%TO.C,D49*%
X211951786Y-130968750D03*
X214001786Y-130968750D03*
%TD*%
%TO.C,D2*%
X55100000Y-66675000D03*
X57150000Y-66675000D03*
%TD*%
%TO.C,D59*%
X163281250Y-149955250D03*
X165331250Y-149955250D03*
%TD*%
%TO.C,D74*%
X360176250Y-168275000D03*
X362226250Y-168275000D03*
%TD*%
%TO.C,D9*%
X203531250Y-66675000D03*
X205581250Y-66675000D03*
%TD*%
%TO.C,D82*%
X266237500Y-169068750D03*
X268287500Y-169068750D03*
%TD*%
%TO.C,D50*%
X230439286Y-130968750D03*
X232489286Y-130968750D03*
%TD*%
%TO.C,D47*%
X173289286Y-130968750D03*
X175339286Y-130968750D03*
%TD*%
%TO.C,D30*%
X91381250Y-111918750D03*
X93431250Y-111918750D03*
%TD*%
%TO.C,D33*%
X148531250Y-111918750D03*
X150581250Y-111918750D03*
%TD*%
%TO.C,D25*%
X233693750Y-92868750D03*
X235743750Y-92868750D03*
%TD*%
%TO.C,D16*%
X61450000Y-92868750D03*
X63500000Y-92868750D03*
%TD*%
%TO.C,D76*%
X262268750Y-111918750D03*
X264318750Y-111918750D03*
%TD*%
%TO.C,D55*%
X87081250Y-149955250D03*
X89131250Y-149955250D03*
%TD*%
%TO.C,D23*%
X195362500Y-92868750D03*
X197412500Y-92868750D03*
%TD*%
%TO.C,D32*%
X128918750Y-111918750D03*
X130968750Y-111918750D03*
%TD*%
%TO.C,D26*%
X281550000Y-92868750D03*
X283600000Y-92868750D03*
%TD*%
%TO.C,D3*%
X74150000Y-66675000D03*
X76200000Y-66675000D03*
%TD*%
%TO.C,D81*%
X147029406Y-169068750D03*
X149079406Y-169068750D03*
%TD*%
%TO.C,D58*%
X144231250Y-149955250D03*
X146281250Y-149955250D03*
%TD*%
%TO.C,D70*%
X321985656Y-169068750D03*
X324035656Y-169068750D03*
%TD*%
%TO.C,D75*%
X341357500Y-168275000D03*
X343407500Y-168275000D03*
%TD*%
%TO.C,D35*%
X186068750Y-111918750D03*
X188118750Y-111918750D03*
%TD*%
%TO.C,D10*%
X232900000Y-66675000D03*
X234950000Y-66675000D03*
%TD*%
%TO.C,D12*%
X272587500Y-66675000D03*
X274637500Y-66675000D03*
%TD*%
%TO.C,D31*%
X109306250Y-111918750D03*
X111356250Y-111918750D03*
%TD*%
%TO.C,D48*%
X191545536Y-130968750D03*
X193595536Y-130968750D03*
%TD*%
%TO.C,D14*%
X24143750Y-92868750D03*
X26193750Y-92868750D03*
%TD*%
%TO.C,D5*%
X112250000Y-66675000D03*
X114300000Y-66675000D03*
%TD*%
%TO.C,D68*%
X340056250Y-66675000D03*
X342106250Y-66675000D03*
%TD*%
%TO.C,D24*%
X214412500Y-92868750D03*
X216462500Y-92868750D03*
%TD*%
%TO.C,D4*%
X92406250Y-66675000D03*
X94456250Y-66675000D03*
%TD*%
%TO.C,D77*%
X241068750Y-169068750D03*
X243118750Y-169068750D03*
%TD*%
%TO.C,D18*%
X100343750Y-92868750D03*
X102393750Y-92868750D03*
%TD*%
%TO.C,D29*%
X72000000Y-111918750D03*
X74050000Y-111918750D03*
%TD*%
%TO.C,D63*%
X239481250Y-149955250D03*
X241531250Y-149955250D03*
%TD*%
%TO.C,D8*%
X184712500Y-66675000D03*
X186762500Y-66675000D03*
%TD*%
%TO.C,D52*%
X279651786Y-130968750D03*
X281701786Y-130968750D03*
%TD*%
%TO.C,D54*%
X67237500Y-149955250D03*
X69287500Y-149955250D03*
%TD*%
%TO.C,D39*%
X286081250Y-111918750D03*
X288131250Y-111918750D03*
%TD*%
%TO.C,D44*%
X116701786Y-130968750D03*
X118751786Y-130968750D03*
%TD*%
%TO.C,D61*%
X201150000Y-149955250D03*
X203200000Y-149955250D03*
%TD*%
%TO.C,D56*%
X105106250Y-149955250D03*
X107156250Y-149955250D03*
%TD*%
%TO.C,D51*%
X248464286Y-130968750D03*
X250514286Y-130968750D03*
%TD*%
%TO.C,D36*%
X205118750Y-111918750D03*
X207168750Y-111918750D03*
%TD*%
%TO.C,D21*%
X157493750Y-92868750D03*
X159543750Y-92868750D03*
%TD*%
%TO.C,D1*%
X23912500Y-66675000D03*
X25962500Y-66675000D03*
%TD*%
%TO.C,D6*%
X145818750Y-66675000D03*
X147868750Y-66675000D03*
%TD*%
%TO.C,D64*%
X218843750Y-169068750D03*
X220893750Y-169068750D03*
%TD*%
%TO.C,D22*%
X176312500Y-92868750D03*
X178362500Y-92868750D03*
%TD*%
%TO.C,D13*%
X290843750Y-66675000D03*
X292893750Y-66675000D03*
%TD*%
%TO.C,D37*%
X224168750Y-111918750D03*
X226218750Y-111918750D03*
%TD*%
%TO.C,D62*%
X220200000Y-149955250D03*
X222250000Y-149955250D03*
%TD*%
%TO.C,D19*%
X119393750Y-92868750D03*
X121443750Y-92868750D03*
%TD*%
%TO.C,D46*%
X154239286Y-130968750D03*
X156289286Y-130968750D03*
%TD*%
%TO.C,D34*%
X167018750Y-111918750D03*
X169068750Y-111918750D03*
%TD*%
M02*
