%TF.GenerationSoftware,KiCad,Pcbnew,9.0.5*%
%TF.CreationDate,2026-02-18T01:23:15+05:30*%
%TF.ProjectId,Rheneium,5268656e-6569-4756-9d2e-6b696361645f,rev?*%
%TF.SameCoordinates,Original*%
%TF.FileFunction,Soldermask,Bot*%
%TF.FilePolarity,Negative*%
%FSLAX46Y46*%
G04 Gerber Fmt 4.6, Leading zero omitted, Abs format (unit mm)*
G04 Created by KiCad (PCBNEW 9.0.5) date 2026-02-18 01:23:15*
%MOMM*%
%LPD*%
G01*
G04 APERTURE LIST*
G04 Aperture macros list*
%AMRoundRect*
0 Rectangle with rounded corners*
0 $1 Rounding radius*
0 $2 $3 $4 $5 $6 $7 $8 $9 X,Y pos of 4 corners*
0 Add a 4 corners polygon primitive as box body*
4,1,4,$2,$3,$4,$5,$6,$7,$8,$9,$2,$3,0*
0 Add four circle primitives for the rounded corners*
1,1,$1+$1,$2,$3*
1,1,$1+$1,$4,$5*
1,1,$1+$1,$6,$7*
1,1,$1+$1,$8,$9*
0 Add four rect primitives between the rounded corners*
20,1,$1+$1,$2,$3,$4,$5,0*
20,1,$1+$1,$4,$5,$6,$7,0*
20,1,$1+$1,$6,$7,$8,$9,0*
20,1,$1+$1,$8,$9,$2,$3,0*%
G04 Aperture macros list end*
%ADD10C,2.200000*%
%ADD11C,1.700000*%
%ADD12C,4.000000*%
%ADD13RoundRect,0.250000X-0.325000X-0.450000X0.325000X-0.450000X0.325000X0.450000X-0.325000X0.450000X0*%
%ADD14C,3.050000*%
%ADD15R,1.700000X1.700000*%
%ADD16O,1.700000X1.700000*%
%ADD17R,2.000000X2.000000*%
%ADD18C,2.000000*%
%ADD19R,3.200000X2.000000*%
%ADD20C,0.700000*%
%ADD21O,1.100000X2.000000*%
%ADD22O,1.200000X1.800000*%
G04 APERTURE END LIST*
D10*
%TO.C,SW40*%
X28733750Y-120491250D03*
X35083750Y-117951250D03*
D11*
X37623750Y-123031250D03*
D12*
X32543750Y-123031250D03*
D11*
X27463750Y-123031250D03*
%TD*%
D13*
%TO.C,D40*%
X34614286Y-130968750D03*
X32564286Y-130968750D03*
%TD*%
D10*
%TO.C,SW8*%
X181927500Y-56197500D03*
X188277500Y-53657500D03*
D11*
X190817500Y-58737500D03*
D12*
X185737500Y-58737500D03*
D11*
X180657500Y-58737500D03*
%TD*%
D10*
%TO.C,SW43*%
X93027500Y-120491250D03*
X99377500Y-117951250D03*
D11*
X101917500Y-123031250D03*
D12*
X96837500Y-123031250D03*
D11*
X91757500Y-123031250D03*
%TD*%
%TO.C,SW35*%
X182245000Y-103981250D03*
D12*
X187325000Y-103981250D03*
D11*
X192405000Y-103981250D03*
D10*
X189865000Y-98901250D03*
X183515000Y-101441250D03*
%TD*%
D11*
%TO.C,SW14*%
X20320000Y-84931250D03*
D12*
X25400000Y-84931250D03*
D11*
X30480000Y-84931250D03*
D10*
X27940000Y-79851250D03*
X21590000Y-82391250D03*
%TD*%
%TO.C,H5*%
X87312500Y-161925000D03*
%TD*%
D11*
%TO.C,SW60*%
X177482500Y-142081250D03*
D12*
X182562500Y-142081250D03*
D11*
X187642500Y-142081250D03*
D10*
X185102500Y-137001250D03*
X178752500Y-139541250D03*
%TD*%
D14*
%TO.C,SW53*%
X25406250Y-135081250D03*
D12*
X25406250Y-150321250D03*
D11*
X32226250Y-142081250D03*
D12*
X37306250Y-142081250D03*
D11*
X42386250Y-142081250D03*
D14*
X49206250Y-135081250D03*
D12*
X49206250Y-150321250D03*
D10*
X39846250Y-137001250D03*
X33496250Y-139541250D03*
%TD*%
D11*
%TO.C,SW80*%
X46513750Y-161131250D03*
D12*
X51593750Y-161131250D03*
D11*
X56673750Y-161131250D03*
D10*
X54133750Y-156051250D03*
X47783750Y-158591250D03*
%TD*%
D14*
%TO.C,SW52*%
X268293750Y-116031250D03*
D12*
X268293750Y-131271250D03*
D11*
X275113750Y-123031250D03*
D12*
X280193750Y-123031250D03*
D11*
X285273750Y-123031250D03*
D14*
X292093750Y-116031250D03*
D12*
X292093750Y-131271250D03*
D10*
X282733750Y-117951250D03*
X276383750Y-120491250D03*
%TD*%
D11*
%TO.C,SW68*%
X337017500Y-58746250D03*
D12*
X342097500Y-58746250D03*
D11*
X347177500Y-58746250D03*
D10*
X344637500Y-53666250D03*
X338287500Y-56206250D03*
%TD*%
D11*
%TO.C,SW67*%
X70326250Y-161131250D03*
D12*
X75406250Y-161131250D03*
D11*
X80486250Y-161131250D03*
D10*
X77946250Y-156051250D03*
X71596250Y-158591250D03*
%TD*%
D11*
%TO.C,SW48*%
X187007500Y-123031250D03*
D12*
X192087500Y-123031250D03*
D11*
X197167500Y-123031250D03*
D10*
X194627500Y-117951250D03*
X188277500Y-120491250D03*
%TD*%
D11*
%TO.C,SW7*%
X161607500Y-58737500D03*
D12*
X166687500Y-58737500D03*
D11*
X171767500Y-58737500D03*
D10*
X169227500Y-53657500D03*
X162877500Y-56197500D03*
%TD*%
D11*
%TO.C,SW63*%
X234632500Y-142081250D03*
D12*
X239712500Y-142081250D03*
D11*
X244792500Y-142081250D03*
D10*
X242252500Y-137001250D03*
X235902500Y-139541250D03*
%TD*%
D11*
%TO.C,SW27*%
X25082500Y-103981250D03*
D12*
X30162500Y-103981250D03*
D11*
X35242500Y-103981250D03*
D10*
X32702500Y-98901250D03*
X26352500Y-101441250D03*
%TD*%
D11*
%TO.C,SW39*%
X282257500Y-103981250D03*
D12*
X287337500Y-103981250D03*
D11*
X292417500Y-103981250D03*
D10*
X289877500Y-98901250D03*
X283527500Y-101441250D03*
%TD*%
D11*
%TO.C,SW29*%
X67945000Y-103981250D03*
D12*
X73025000Y-103981250D03*
D11*
X78105000Y-103981250D03*
D10*
X75565000Y-98901250D03*
X69215000Y-101441250D03*
%TD*%
D11*
%TO.C,SW56*%
X101282500Y-142081250D03*
D12*
X106362500Y-142081250D03*
D11*
X111442500Y-142081250D03*
D10*
X108902500Y-137001250D03*
X102552500Y-139541250D03*
%TD*%
D11*
%TO.C,SW25*%
X229870000Y-84931250D03*
D12*
X234950000Y-84931250D03*
D11*
X240030000Y-84931250D03*
D10*
X237490000Y-79851250D03*
X231140000Y-82391250D03*
%TD*%
D11*
%TO.C,SW32*%
X125095000Y-103981250D03*
D12*
X130175000Y-103981250D03*
D11*
X135255000Y-103981250D03*
D10*
X132715000Y-98901250D03*
X126365000Y-101441250D03*
%TD*%
D11*
%TO.C,SW37*%
X220345000Y-103981250D03*
D12*
X225425000Y-103981250D03*
D11*
X230505000Y-103981250D03*
D10*
X227965000Y-98901250D03*
X221615000Y-101441250D03*
%TD*%
D11*
%TO.C,SW12*%
X267970000Y-58737500D03*
D12*
X273050000Y-58737500D03*
D11*
X278130000Y-58737500D03*
D10*
X275590000Y-53657500D03*
X269240000Y-56197500D03*
%TD*%
D11*
%TO.C,SW50*%
X225107500Y-123031250D03*
D12*
X230187500Y-123031250D03*
D11*
X235267500Y-123031250D03*
D10*
X232727500Y-117951250D03*
X226377500Y-120491250D03*
%TD*%
D11*
%TO.C,SW77*%
X237013750Y-161131250D03*
D12*
X242093750Y-161131250D03*
D11*
X247173750Y-161131250D03*
D10*
X244633750Y-156051250D03*
X238283750Y-158591250D03*
%TD*%
%TO.C,H4*%
X307975000Y-165100000D03*
%TD*%
D11*
%TO.C,SW19*%
X115570000Y-84931250D03*
D12*
X120650000Y-84931250D03*
D11*
X125730000Y-84931250D03*
D10*
X123190000Y-79851250D03*
X116840000Y-82391250D03*
%TD*%
D11*
%TO.C,SW30*%
X86995000Y-103981250D03*
D12*
X92075000Y-103981250D03*
D11*
X97155000Y-103981250D03*
D10*
X94615000Y-98901250D03*
X88265000Y-101441250D03*
%TD*%
D11*
%TO.C,SW69*%
X356076250Y-58737500D03*
D12*
X361156250Y-58737500D03*
D11*
X366236250Y-58737500D03*
D10*
X363696250Y-53657500D03*
X357346250Y-56197500D03*
%TD*%
D11*
%TO.C,SW82*%
X260971844Y-161131250D03*
D12*
X266051844Y-161131250D03*
D11*
X271131844Y-161131250D03*
D10*
X268591844Y-156051250D03*
X262241844Y-158591250D03*
%TD*%
D11*
%TO.C,SW70*%
X317976250Y-160337500D03*
D12*
X323056250Y-160337500D03*
D11*
X328136250Y-160337500D03*
D10*
X325596250Y-155257500D03*
X319246250Y-157797500D03*
%TD*%
D11*
%TO.C,SW20*%
X134620000Y-84931250D03*
D12*
X139700000Y-84931250D03*
D11*
X144780000Y-84931250D03*
D10*
X142240000Y-79851250D03*
X135890000Y-82391250D03*
%TD*%
D11*
%TO.C,SW41*%
X53657500Y-123031250D03*
D12*
X58737500Y-123031250D03*
D11*
X63817500Y-123031250D03*
D10*
X61277500Y-117951250D03*
X54927500Y-120491250D03*
%TD*%
D11*
%TO.C,SW45*%
X129857500Y-123031250D03*
D12*
X134937500Y-123031250D03*
D11*
X140017500Y-123031250D03*
D10*
X137477500Y-117951250D03*
X131127500Y-120491250D03*
%TD*%
D11*
%TO.C,SW44*%
X110807500Y-123031250D03*
D12*
X115887500Y-123031250D03*
D11*
X120967500Y-123031250D03*
D10*
X118427500Y-117951250D03*
X112077500Y-120491250D03*
%TD*%
D11*
%TO.C,SW2*%
X51276250Y-58737500D03*
D12*
X56356250Y-58737500D03*
D11*
X61436250Y-58737500D03*
D10*
X58896250Y-53657500D03*
X52546250Y-56197500D03*
%TD*%
D11*
%TO.C,SW76*%
X258445000Y-103981250D03*
D12*
X263525000Y-103981250D03*
D11*
X268605000Y-103981250D03*
D10*
X266065000Y-98901250D03*
X259715000Y-101441250D03*
%TD*%
D11*
%TO.C,SW9*%
X199707500Y-58737500D03*
D12*
X204787500Y-58737500D03*
D11*
X209867500Y-58737500D03*
D10*
X207327500Y-53657500D03*
X200977500Y-56197500D03*
%TD*%
D14*
%TO.C,SW81*%
X96843750Y-154131250D03*
D12*
X96843750Y-169371250D03*
D11*
X141763750Y-161131250D03*
D12*
X146843750Y-161131250D03*
D11*
X151923750Y-161131250D03*
D14*
X196843750Y-154131250D03*
D12*
X196843750Y-169371250D03*
D10*
X149383750Y-156051250D03*
X143033750Y-158591250D03*
%TD*%
D11*
%TO.C,SW1*%
X20320000Y-58737500D03*
D12*
X25400000Y-58737500D03*
D11*
X30480000Y-58737500D03*
D10*
X27940000Y-53657500D03*
X21590000Y-56197500D03*
%TD*%
D15*
%TO.C,J1*%
X369246250Y-71711250D03*
D16*
X369246250Y-74251250D03*
X369246250Y-76791250D03*
X369246250Y-79331250D03*
%TD*%
D11*
%TO.C,SW49*%
X206057500Y-123031250D03*
D12*
X211137500Y-123031250D03*
D11*
X216217500Y-123031250D03*
D10*
X213677500Y-117951250D03*
X207327500Y-120491250D03*
%TD*%
D11*
%TO.C,SW17*%
X77470000Y-84931250D03*
D12*
X82550000Y-84931250D03*
D11*
X87630000Y-84931250D03*
D10*
X85090000Y-79851250D03*
X78740000Y-82391250D03*
%TD*%
D11*
%TO.C,SW57*%
X120332500Y-142081250D03*
D12*
X125412500Y-142081250D03*
D11*
X130492500Y-142081250D03*
D10*
X127952500Y-137001250D03*
X121602500Y-139541250D03*
%TD*%
D11*
%TO.C,SW13*%
X287020000Y-58737500D03*
D12*
X292100000Y-58737500D03*
D11*
X297180000Y-58737500D03*
D10*
X294640000Y-53657500D03*
X288290000Y-56197500D03*
%TD*%
D14*
%TO.C,SW65*%
X263531250Y-135081250D03*
D12*
X263531250Y-150321250D03*
D11*
X270351250Y-142081250D03*
D12*
X275431250Y-142081250D03*
D11*
X280511250Y-142081250D03*
D14*
X287331250Y-135081250D03*
D12*
X287331250Y-150321250D03*
D10*
X277971250Y-137001250D03*
X271621250Y-139541250D03*
%TD*%
D11*
%TO.C,SW21*%
X153670000Y-84931250D03*
D12*
X158750000Y-84931250D03*
D11*
X163830000Y-84931250D03*
D10*
X161290000Y-79851250D03*
X154940000Y-82391250D03*
%TD*%
D11*
%TO.C,SW24*%
X210820000Y-84931250D03*
D12*
X215900000Y-84931250D03*
D11*
X220980000Y-84931250D03*
D10*
X218440000Y-79851250D03*
X212090000Y-82391250D03*
%TD*%
D11*
%TO.C,SW5*%
X108426250Y-58737500D03*
D12*
X113506250Y-58737500D03*
D11*
X118586250Y-58737500D03*
D10*
X116046250Y-53657500D03*
X109696250Y-56197500D03*
%TD*%
D11*
%TO.C,SW55*%
X82232500Y-142081250D03*
D12*
X87312500Y-142081250D03*
D11*
X92392500Y-142081250D03*
D10*
X89852500Y-137001250D03*
X83502500Y-139541250D03*
%TD*%
D11*
%TO.C,SW75*%
X337026250Y-160337500D03*
D12*
X342106250Y-160337500D03*
D11*
X347186250Y-160337500D03*
D10*
X344646250Y-155257500D03*
X338296250Y-157797500D03*
%TD*%
%TO.C,H2*%
X23812500Y-45243750D03*
%TD*%
D11*
%TO.C,SW46*%
X148907500Y-123031250D03*
D12*
X153987500Y-123031250D03*
D11*
X159067500Y-123031250D03*
D10*
X156527500Y-117951250D03*
X150177500Y-120491250D03*
%TD*%
D11*
%TO.C,SW51*%
X244157500Y-123031250D03*
D12*
X249237500Y-123031250D03*
D11*
X254317500Y-123031250D03*
D10*
X251777500Y-117951250D03*
X245427500Y-120491250D03*
%TD*%
D11*
%TO.C,SW18*%
X96520000Y-84931250D03*
D12*
X101600000Y-84931250D03*
D11*
X106680000Y-84931250D03*
D10*
X104140000Y-79851250D03*
X97790000Y-82391250D03*
%TD*%
D11*
%TO.C,SW64*%
X213201250Y-161131250D03*
D12*
X218281250Y-161131250D03*
D11*
X223361250Y-161131250D03*
D10*
X220821250Y-156051250D03*
X214471250Y-158591250D03*
%TD*%
D11*
%TO.C,SW42*%
X72707500Y-123031250D03*
D12*
X77787500Y-123031250D03*
D11*
X82867500Y-123031250D03*
D10*
X80327500Y-117951250D03*
X73977500Y-120491250D03*
%TD*%
D11*
%TO.C,SW58*%
X139382500Y-142081250D03*
D12*
X144462500Y-142081250D03*
D11*
X149542500Y-142081250D03*
D10*
X147002500Y-137001250D03*
X140652500Y-139541250D03*
%TD*%
%TO.C,H1*%
X365125000Y-45243750D03*
%TD*%
D17*
%TO.C,SW84*%
X315012500Y-73700000D03*
D18*
X315012500Y-78700000D03*
X315012500Y-76200000D03*
D19*
X322512500Y-70600000D03*
X322512500Y-81800000D03*
D18*
X329512500Y-78700000D03*
X329512500Y-73700000D03*
%TD*%
D11*
%TO.C,SW28*%
X48895000Y-103981250D03*
D12*
X53975000Y-103981250D03*
D11*
X59055000Y-103981250D03*
D10*
X56515000Y-98901250D03*
X50165000Y-101441250D03*
%TD*%
D11*
%TO.C,SW62*%
X215582500Y-142081250D03*
D12*
X220662500Y-142081250D03*
D11*
X225742500Y-142081250D03*
D10*
X223202500Y-137001250D03*
X216852500Y-139541250D03*
%TD*%
D11*
%TO.C,SW15*%
X39370000Y-84931250D03*
D12*
X44450000Y-84931250D03*
D11*
X49530000Y-84931250D03*
D10*
X46990000Y-79851250D03*
X40640000Y-82391250D03*
%TD*%
D11*
%TO.C,SW61*%
X196532500Y-142081250D03*
D12*
X201612500Y-142081250D03*
D11*
X206692500Y-142081250D03*
D10*
X204152500Y-137001250D03*
X197802500Y-139541250D03*
%TD*%
D11*
%TO.C,SW78*%
X337026250Y-141287500D03*
D12*
X342106250Y-141287500D03*
D11*
X347186250Y-141287500D03*
D10*
X344646250Y-136207500D03*
X338296250Y-138747500D03*
%TD*%
D11*
%TO.C,SW22*%
X172720000Y-84931250D03*
D12*
X177800000Y-84931250D03*
D11*
X182880000Y-84931250D03*
D10*
X180340000Y-79851250D03*
X173990000Y-82391250D03*
%TD*%
D11*
%TO.C,SW47*%
X167957500Y-123031250D03*
D12*
X173037500Y-123031250D03*
D11*
X178117500Y-123031250D03*
D10*
X175577500Y-117951250D03*
X169227500Y-120491250D03*
%TD*%
D11*
%TO.C,SW6*%
X142557500Y-58737500D03*
D12*
X147637500Y-58737500D03*
D11*
X152717500Y-58737500D03*
D10*
X150177500Y-53657500D03*
X143827500Y-56197500D03*
%TD*%
D11*
%TO.C,SW10*%
X229870000Y-58737500D03*
D12*
X234950000Y-58737500D03*
D11*
X240030000Y-58737500D03*
D10*
X237490000Y-53657500D03*
X231140000Y-56197500D03*
%TD*%
D11*
%TO.C,SW16*%
X58420000Y-84931250D03*
D12*
X63500000Y-84931250D03*
D11*
X68580000Y-84931250D03*
D10*
X66040000Y-79851250D03*
X59690000Y-82391250D03*
%TD*%
D11*
%TO.C,SW4*%
X89376250Y-58737500D03*
D12*
X94456250Y-58737500D03*
D11*
X99536250Y-58737500D03*
D10*
X96996250Y-53657500D03*
X90646250Y-56197500D03*
%TD*%
D11*
%TO.C,SW83*%
X284638750Y-161131250D03*
D12*
X289718750Y-161131250D03*
D11*
X294798750Y-161131250D03*
D10*
X292258750Y-156051250D03*
X285908750Y-158591250D03*
%TD*%
D11*
%TO.C,SW74*%
X356076250Y-160337500D03*
D12*
X361156250Y-160337500D03*
D11*
X366236250Y-160337500D03*
D10*
X363696250Y-155257500D03*
X357346250Y-157797500D03*
%TD*%
D11*
%TO.C,SW79*%
X22701250Y-161131250D03*
D12*
X27781250Y-161131250D03*
D11*
X32861250Y-161131250D03*
D10*
X30321250Y-156051250D03*
X23971250Y-158591250D03*
%TD*%
D11*
%TO.C,SW66*%
X317976250Y-58737500D03*
D12*
X323056250Y-58737500D03*
D11*
X328136250Y-58737500D03*
D10*
X325596250Y-53657500D03*
X319246250Y-56197500D03*
%TD*%
D11*
%TO.C,SW34*%
X163195000Y-103981250D03*
D12*
X168275000Y-103981250D03*
D11*
X173355000Y-103981250D03*
D10*
X170815000Y-98901250D03*
X164465000Y-101441250D03*
%TD*%
D11*
%TO.C,SW3*%
X70326250Y-58737500D03*
D12*
X75406250Y-58737500D03*
D11*
X80486250Y-58737500D03*
D10*
X77946250Y-53657500D03*
X71596250Y-56197500D03*
%TD*%
%TO.C,H3*%
X163512500Y-116681250D03*
%TD*%
D11*
%TO.C,SW33*%
X144145000Y-103981250D03*
D12*
X149225000Y-103981250D03*
D11*
X154305000Y-103981250D03*
D10*
X151765000Y-98901250D03*
X145415000Y-101441250D03*
%TD*%
D11*
%TO.C,SW11*%
X248920000Y-58737500D03*
D12*
X254000000Y-58737500D03*
D11*
X259080000Y-58737500D03*
D10*
X256540000Y-53657500D03*
X250190000Y-56197500D03*
%TD*%
D11*
%TO.C,SW71*%
X248920000Y-84931250D03*
D12*
X254000000Y-84931250D03*
D11*
X259080000Y-84931250D03*
D10*
X256540000Y-79851250D03*
X250190000Y-82391250D03*
%TD*%
D11*
%TO.C,SW38*%
X239395000Y-103981250D03*
D12*
X244475000Y-103981250D03*
D11*
X249555000Y-103981250D03*
D10*
X247015000Y-98901250D03*
X240665000Y-101441250D03*
%TD*%
D11*
%TO.C,SW23*%
X191770000Y-84931250D03*
D12*
X196850000Y-84931250D03*
D11*
X201930000Y-84931250D03*
D10*
X199390000Y-79851250D03*
X193040000Y-82391250D03*
%TD*%
D11*
%TO.C,SW54*%
X63182500Y-142081250D03*
D12*
X68262500Y-142081250D03*
D11*
X73342500Y-142081250D03*
D10*
X70802500Y-137001250D03*
X64452500Y-139541250D03*
%TD*%
D14*
%TO.C,SW26*%
X270675000Y-77931250D03*
D12*
X270675000Y-93171250D03*
D11*
X277495000Y-84931250D03*
D12*
X282575000Y-84931250D03*
D11*
X287655000Y-84931250D03*
D14*
X294475000Y-77931250D03*
D12*
X294475000Y-93171250D03*
D10*
X285115000Y-79851250D03*
X278765000Y-82391250D03*
%TD*%
D11*
%TO.C,SW31*%
X106045000Y-103981250D03*
D12*
X111125000Y-103981250D03*
D11*
X116205000Y-103981250D03*
D10*
X113665000Y-98901250D03*
X107315000Y-101441250D03*
%TD*%
D11*
%TO.C,SW36*%
X201295000Y-103981250D03*
D12*
X206375000Y-103981250D03*
D11*
X211455000Y-103981250D03*
D10*
X208915000Y-98901250D03*
X202565000Y-101441250D03*
%TD*%
D11*
%TO.C,SW59*%
X158432500Y-142081250D03*
D12*
X163512500Y-142081250D03*
D11*
X168592500Y-142081250D03*
D10*
X166052500Y-137001250D03*
X159702500Y-139541250D03*
%TD*%
D20*
%TO.C,USB1*%
X333883750Y-47337500D03*
X328103750Y-47337500D03*
D21*
X335313750Y-47867500D03*
D22*
X335313750Y-43657500D03*
D21*
X326673750Y-47867500D03*
D22*
X326673750Y-43657500D03*
%TD*%
D13*
%TO.C,D65*%
X274406250Y-149955250D03*
X276456250Y-149955250D03*
%TD*%
%TO.C,D71*%
X252743750Y-92868750D03*
X254793750Y-92868750D03*
%TD*%
%TO.C,D57*%
X124950000Y-149955250D03*
X127000000Y-149955250D03*
%TD*%
%TO.C,D28*%
X52718750Y-111918750D03*
X54768750Y-111918750D03*
%TD*%
%TO.C,D41*%
X58426786Y-130968750D03*
X60476786Y-130968750D03*
%TD*%
%TO.C,D11*%
X252743750Y-66675000D03*
X254793750Y-66675000D03*
%TD*%
%TO.C,D67*%
X74798156Y-169068750D03*
X76848156Y-169068750D03*
%TD*%
%TO.C,D17*%
X81293750Y-92868750D03*
X83343750Y-92868750D03*
%TD*%
%TO.C,D7*%
X164637500Y-66675000D03*
X166687500Y-66675000D03*
%TD*%
%TO.C,D43*%
X96064286Y-130968750D03*
X98114286Y-130968750D03*
%TD*%
%TO.C,D69*%
X359900000Y-66675000D03*
X361950000Y-66675000D03*
%TD*%
%TO.C,D79*%
X28760656Y-169068750D03*
X30810656Y-169068750D03*
%TD*%
%TO.C,D83*%
X289673156Y-169068750D03*
X291723156Y-169068750D03*
%TD*%
%TO.C,D27*%
X30262500Y-111918750D03*
X32312500Y-111918750D03*
%TD*%
%TO.C,D15*%
X43193750Y-92868750D03*
X45243750Y-92868750D03*
%TD*%
%TO.C,D80*%
X51779406Y-169068750D03*
X53829406Y-169068750D03*
%TD*%
%TO.C,D66*%
X321800000Y-66675000D03*
X323850000Y-66675000D03*
%TD*%
%TO.C,D53*%
X37075000Y-149955250D03*
X39125000Y-149955250D03*
%TD*%
%TO.C,D20*%
X138443750Y-92868750D03*
X140493750Y-92868750D03*
%TD*%
%TO.C,D45*%
X135189286Y-130968750D03*
X137239286Y-130968750D03*
%TD*%
%TO.C,D60*%
X182331250Y-149955250D03*
X184381250Y-149955250D03*
%TD*%
%TO.C,D42*%
X77014286Y-130968750D03*
X79064286Y-130968750D03*
%TD*%
%TO.C,D38*%
X243218750Y-111918750D03*
X245268750Y-111918750D03*
%TD*%
%TO.C,D49*%
X211951786Y-130968750D03*
X214001786Y-130968750D03*
%TD*%
%TO.C,D2*%
X55100000Y-66675000D03*
X57150000Y-66675000D03*
%TD*%
%TO.C,D59*%
X163281250Y-149955250D03*
X165331250Y-149955250D03*
%TD*%
%TO.C,D74*%
X360176250Y-168275000D03*
X362226250Y-168275000D03*
%TD*%
%TO.C,D9*%
X203531250Y-66675000D03*
X205581250Y-66675000D03*
%TD*%
%TO.C,D82*%
X266237500Y-169068750D03*
X268287500Y-169068750D03*
%TD*%
%TO.C,D50*%
X230439286Y-130968750D03*
X232489286Y-130968750D03*
%TD*%
%TO.C,D47*%
X173289286Y-130968750D03*
X175339286Y-130968750D03*
%TD*%
%TO.C,D30*%
X91381250Y-111918750D03*
X93431250Y-111918750D03*
%TD*%
%TO.C,D33*%
X148531250Y-111918750D03*
X150581250Y-111918750D03*
%TD*%
%TO.C,D25*%
X233693750Y-92868750D03*
X235743750Y-92868750D03*
%TD*%
%TO.C,D16*%
X61450000Y-92868750D03*
X63500000Y-92868750D03*
%TD*%
%TO.C,D76*%
X262268750Y-111918750D03*
X264318750Y-111918750D03*
%TD*%
%TO.C,D55*%
X87081250Y-149955250D03*
X89131250Y-149955250D03*
%TD*%
%TO.C,D23*%
X195362500Y-92868750D03*
X197412500Y-92868750D03*
%TD*%
%TO.C,D32*%
X128918750Y-111918750D03*
X130968750Y-111918750D03*
%TD*%
%TO.C,D26*%
X281550000Y-92868750D03*
X283600000Y-92868750D03*
%TD*%
%TO.C,D3*%
X74150000Y-66675000D03*
X76200000Y-66675000D03*
%TD*%
%TO.C,D81*%
X147029406Y-169068750D03*
X149079406Y-169068750D03*
%TD*%
%TO.C,D58*%
X144231250Y-149955250D03*
X146281250Y-149955250D03*
%TD*%
%TO.C,D70*%
X321985656Y-169068750D03*
X324035656Y-169068750D03*
%TD*%
%TO.C,D75*%
X341357500Y-168275000D03*
X343407500Y-168275000D03*
%TD*%
%TO.C,D35*%
X186068750Y-111918750D03*
X188118750Y-111918750D03*
%TD*%
%TO.C,D10*%
X232900000Y-66675000D03*
X234950000Y-66675000D03*
%TD*%
%TO.C,D12*%
X272587500Y-66675000D03*
X274637500Y-66675000D03*
%TD*%
%TO.C,D31*%
X109306250Y-111918750D03*
X111356250Y-111918750D03*
%TD*%
%TO.C,D48*%
X191545536Y-130968750D03*
X193595536Y-130968750D03*
%TD*%
%TO.C,D14*%
X24143750Y-92868750D03*
X26193750Y-92868750D03*
%TD*%
%TO.C,D5*%
X112250000Y-66675000D03*
X114300000Y-66675000D03*
%TD*%
%TO.C,D68*%
X340056250Y-66675000D03*
X342106250Y-66675000D03*
%TD*%
%TO.C,D24*%
X214412500Y-92868750D03*
X216462500Y-92868750D03*
%TD*%
%TO.C,D4*%
X92406250Y-66675000D03*
X94456250Y-66675000D03*
%TD*%
%TO.C,D77*%
X241068750Y-169068750D03*
X243118750Y-169068750D03*
%TD*%
%TO.C,D18*%
X100343750Y-92868750D03*
X102393750Y-92868750D03*
%TD*%
%TO.C,D29*%
X72000000Y-111918750D03*
X74050000Y-111918750D03*
%TD*%
%TO.C,D63*%
X239481250Y-149955250D03*
X241531250Y-149955250D03*
%TD*%
%TO.C,D8*%
X184712500Y-66675000D03*
X186762500Y-66675000D03*
%TD*%
%TO.C,D52*%
X279651786Y-130968750D03*
X281701786Y-130968750D03*
%TD*%
%TO.C,D54*%
X67237500Y-149955250D03*
X69287500Y-149955250D03*
%TD*%
%TO.C,D39*%
X286081250Y-111918750D03*
X288131250Y-111918750D03*
%TD*%
%TO.C,D44*%
X116701786Y-130968750D03*
X118751786Y-130968750D03*
%TD*%
%TO.C,D61*%
X201150000Y-149955250D03*
X203200000Y-149955250D03*
%TD*%
%TO.C,D56*%
X105106250Y-149955250D03*
X107156250Y-149955250D03*
%TD*%
%TO.C,D51*%
X248464286Y-130968750D03*
X250514286Y-130968750D03*
%TD*%
%TO.C,D36*%
X205118750Y-111918750D03*
X207168750Y-111918750D03*
%TD*%
%TO.C,D21*%
X157493750Y-92868750D03*
X159543750Y-92868750D03*
%TD*%
%TO.C,D1*%
X23912500Y-66675000D03*
X25962500Y-66675000D03*
%TD*%
%TO.C,D6*%
X145818750Y-66675000D03*
X147868750Y-66675000D03*
%TD*%
%TO.C,D64*%
X218843750Y-169068750D03*
X220893750Y-169068750D03*
%TD*%
%TO.C,D22*%
X176312500Y-92868750D03*
X178362500Y-92868750D03*
%TD*%
%TO.C,D13*%
X290843750Y-66675000D03*
X292893750Y-66675000D03*
%TD*%
%TO.C,D37*%
X224168750Y-111918750D03*
X226218750Y-111918750D03*
%TD*%
%TO.C,D62*%
X220200000Y-149955250D03*
X222250000Y-149955250D03*
%TD*%
%TO.C,D19*%
X119393750Y-92868750D03*
X121443750Y-92868750D03*
%TD*%
%TO.C,D46*%
X154239286Y-130968750D03*
X156289286Y-130968750D03*
%TD*%
%TO.C,D34*%
X167018750Y-111918750D03*
X169068750Y-111918750D03*
%TD*%
M02*
