%TF.GenerationSoftware,KiCad,Pcbnew,9.0.5*%
%TF.CreationDate,2026-01-06T21:45:25+05:30*%
%TF.ProjectId,Rheneium,5268656e-6569-4756-9d2e-6b696361645f,rev?*%
%TF.SameCoordinates,Original*%
%TF.FileFunction,Paste,Top*%
%TF.FilePolarity,Positive*%
%FSLAX46Y46*%
G04 Gerber Fmt 4.6, Leading zero omitted, Abs format (unit mm)*
G04 Created by KiCad (PCBNEW 9.0.5) date 2026-01-06 21:45:25*
%MOMM*%
%LPD*%
G01*
G04 APERTURE LIST*
G04 Aperture macros list*
%AMRoundRect*
0 Rectangle with rounded corners*
0 $1 Rounding radius*
0 $2 $3 $4 $5 $6 $7 $8 $9 X,Y pos of 4 corners*
0 Add a 4 corners polygon primitive as box body*
4,1,4,$2,$3,$4,$5,$6,$7,$8,$9,$2,$3,0*
0 Add four circle primitives for the rounded corners*
1,1,$1+$1,$2,$3*
1,1,$1+$1,$4,$5*
1,1,$1+$1,$6,$7*
1,1,$1+$1,$8,$9*
0 Add four rect primitives between the rounded corners*
20,1,$1+$1,$2,$3,$4,$5,0*
20,1,$1+$1,$4,$5,$6,$7,0*
20,1,$1+$1,$6,$7,$8,$9,0*
20,1,$1+$1,$8,$9,$2,$3,0*%
G04 Aperture macros list end*
%ADD10RoundRect,0.140000X-0.140000X-0.170000X0.140000X-0.170000X0.140000X0.170000X-0.140000X0.170000X0*%
%ADD11R,0.850000X1.600000*%
%ADD12RoundRect,0.135000X0.185000X-0.135000X0.185000X0.135000X-0.185000X0.135000X-0.185000X-0.135000X0*%
%ADD13RoundRect,0.135000X0.135000X0.185000X-0.135000X0.185000X-0.135000X-0.185000X0.135000X-0.185000X0*%
%ADD14RoundRect,0.040000X0.605000X-0.040000X0.605000X0.040000X-0.605000X0.040000X-0.605000X-0.040000X0*%
%ADD15RoundRect,0.062500X0.062500X-0.387500X0.062500X0.387500X-0.062500X0.387500X-0.062500X-0.387500X0*%
%ADD16R,0.900000X1.000000*%
%ADD17RoundRect,0.250000X-0.325000X-0.450000X0.325000X-0.450000X0.325000X0.450000X-0.325000X0.450000X0*%
%ADD18RoundRect,0.135000X-0.185000X0.135000X-0.185000X-0.135000X0.185000X-0.135000X0.185000X0.135000X0*%
%ADD19RoundRect,0.140000X0.170000X-0.140000X0.170000X0.140000X-0.170000X0.140000X-0.170000X-0.140000X0*%
%ADD20RoundRect,0.140000X0.140000X0.170000X-0.140000X0.170000X-0.140000X-0.170000X0.140000X-0.170000X0*%
%ADD21RoundRect,0.250000X-0.450000X0.325000X-0.450000X-0.325000X0.450000X-0.325000X0.450000X0.325000X0*%
%ADD22RoundRect,0.218750X0.218750X0.256250X-0.218750X0.256250X-0.218750X-0.256250X0.218750X-0.256250X0*%
%ADD23RoundRect,0.150000X-0.512500X-0.150000X0.512500X-0.150000X0.512500X0.150000X-0.512500X0.150000X0*%
%ADD24RoundRect,0.140000X-0.170000X0.140000X-0.170000X-0.140000X0.170000X-0.140000X0.170000X0.140000X0*%
%ADD25RoundRect,0.112500X0.187500X0.112500X-0.187500X0.112500X-0.187500X-0.112500X0.187500X-0.112500X0*%
%ADD26RoundRect,0.218750X0.256250X-0.218750X0.256250X0.218750X-0.256250X0.218750X-0.256250X-0.218750X0*%
%ADD27RoundRect,0.135000X-0.135000X-0.185000X0.135000X-0.185000X0.135000X0.185000X-0.135000X0.185000X0*%
%ADD28RoundRect,0.150000X-0.150000X0.512500X-0.150000X-0.512500X0.150000X-0.512500X0.150000X0.512500X0*%
%ADD29RoundRect,0.250000X0.475000X-0.250000X0.475000X0.250000X-0.475000X0.250000X-0.475000X-0.250000X0*%
%ADD30RoundRect,0.250000X-0.450000X-0.350000X0.450000X-0.350000X0.450000X0.350000X-0.450000X0.350000X0*%
%ADD31RoundRect,0.249999X0.395001X0.395001X-0.395001X0.395001X-0.395001X-0.395001X0.395001X-0.395001X0*%
%ADD32RoundRect,0.050000X0.387500X0.050000X-0.387500X0.050000X-0.387500X-0.050000X0.387500X-0.050000X0*%
%ADD33RoundRect,0.050000X0.050000X0.387500X-0.050000X0.387500X-0.050000X-0.387500X0.050000X-0.387500X0*%
%ADD34R,0.550000X1.100000*%
%ADD35R,0.300000X1.100000*%
G04 APERTURE END LIST*
D10*
%TO.C,C7*%
X318263750Y-102043750D03*
X319223750Y-102043750D03*
%TD*%
%TO.C,C10*%
X298763750Y-105568750D03*
X299723750Y-105568750D03*
%TD*%
D11*
%TO.C,D87*%
X343775000Y-44287500D03*
X342025000Y-44287500D03*
X342025000Y-47787500D03*
X343775000Y-47787500D03*
%TD*%
D12*
%TO.C,R8*%
X338931250Y-103981250D03*
X338931250Y-102961250D03*
%TD*%
D13*
%TO.C,R9*%
X308995000Y-104775000D03*
X307975000Y-104775000D03*
%TD*%
D14*
%TO.C,U2*%
X314368750Y-111756250D03*
D15*
X313618750Y-113181250D03*
X314118750Y-113181250D03*
X314618750Y-113181250D03*
X315118750Y-113181250D03*
X315118750Y-110331250D03*
X314618750Y-110331250D03*
X314118750Y-110331250D03*
X313618750Y-110331250D03*
%TD*%
D16*
%TO.C,SW86*%
X335756250Y-94443750D03*
X339856250Y-94443750D03*
X335756250Y-96043750D03*
X339856250Y-96043750D03*
%TD*%
D17*
%TO.C,D78*%
X341312500Y-149225000D03*
X343362500Y-149225000D03*
%TD*%
D18*
%TO.C,R2*%
X341312500Y-97915000D03*
X341312500Y-98935000D03*
%TD*%
D19*
%TO.C,C2*%
X308768750Y-107950000D03*
X308768750Y-106990000D03*
%TD*%
D20*
%TO.C,C15*%
X319267500Y-100806250D03*
X318307500Y-100806250D03*
%TD*%
D18*
%TO.C,R3*%
X328612500Y-102677500D03*
X328612500Y-103697500D03*
%TD*%
D21*
%TO.C,D84*%
X331787500Y-72000000D03*
X331787500Y-74050000D03*
%TD*%
D22*
%TO.C,D86*%
X342100000Y-103981250D03*
X340525000Y-103981250D03*
%TD*%
D23*
%TO.C,U4*%
X320675000Y-108431250D03*
X320675000Y-109381250D03*
X320675000Y-110331250D03*
X322950000Y-110331250D03*
X322950000Y-109381250D03*
X322950000Y-108431250D03*
%TD*%
D24*
%TO.C,C16*%
X341312500Y-101433750D03*
X341312500Y-102393750D03*
%TD*%
D25*
%TO.C,D85*%
X339981250Y-101600000D03*
X337881250Y-101600000D03*
%TD*%
D16*
%TO.C,SW87*%
X342106250Y-94443750D03*
X346206250Y-94443750D03*
X342106250Y-96043750D03*
X346206250Y-96043750D03*
%TD*%
D20*
%TO.C,C4*%
X308455000Y-103187500D03*
X307495000Y-103187500D03*
%TD*%
D18*
%TO.C,R5*%
X332581250Y-49496250D03*
X332581250Y-50516250D03*
%TD*%
D24*
%TO.C,C11*%
X310596250Y-108827500D03*
X310596250Y-109787500D03*
%TD*%
D10*
%TO.C,C1*%
X317813750Y-107950000D03*
X318773750Y-107950000D03*
%TD*%
D26*
%TO.C,D88*%
X304800000Y-106356250D03*
X304800000Y-104781250D03*
%TD*%
D27*
%TO.C,R10*%
X329690000Y-91281250D03*
X330710000Y-91281250D03*
%TD*%
D28*
%TO.C,U3*%
X332737500Y-100462500D03*
X331787500Y-100462500D03*
X330837500Y-100462500D03*
X330837500Y-102737500D03*
X331787500Y-102737500D03*
X332737500Y-102737500D03*
%TD*%
D13*
%TO.C,R6*%
X329122500Y-50290000D03*
X328102500Y-50290000D03*
%TD*%
D29*
%TO.C,C12*%
X325437500Y-110331250D03*
X325437500Y-108431250D03*
%TD*%
D16*
%TO.C,SW85*%
X329275000Y-94443750D03*
X333375000Y-94443750D03*
X329275000Y-96043750D03*
X333375000Y-96043750D03*
%TD*%
D24*
%TO.C,C13*%
X309562500Y-108577500D03*
X309562500Y-109537500D03*
%TD*%
D10*
%TO.C,C9*%
X302252500Y-103187500D03*
X303212500Y-103187500D03*
%TD*%
D24*
%TO.C,C14*%
X311943750Y-109537500D03*
X311943750Y-110497500D03*
%TD*%
D10*
%TO.C,C5*%
X317333750Y-108993750D03*
X318293750Y-108993750D03*
%TD*%
D13*
%TO.C,R1*%
X318010000Y-111125000D03*
X316990000Y-111125000D03*
%TD*%
D10*
%TO.C,C8*%
X318313750Y-104281250D03*
X319273750Y-104281250D03*
%TD*%
D30*
%TO.C,X1*%
X297837500Y-103981250D03*
X300037500Y-103981250D03*
X300037500Y-102281250D03*
X297837500Y-102281250D03*
%TD*%
D31*
%TO.C,U1*%
X314331250Y-104781250D03*
X314331250Y-103181250D03*
X312731250Y-104781250D03*
X312731250Y-103181250D03*
D32*
X316968750Y-106581250D03*
X316968750Y-106181250D03*
X316968750Y-105781250D03*
X316968750Y-105381250D03*
X316968750Y-104981250D03*
X316968750Y-104581250D03*
X316968750Y-104181250D03*
X316968750Y-103781250D03*
X316968750Y-103381250D03*
X316968750Y-102981250D03*
X316968750Y-102581250D03*
X316968750Y-102181250D03*
X316968750Y-101781250D03*
X316968750Y-101381250D03*
D33*
X316131250Y-100543750D03*
X315731250Y-100543750D03*
X315331250Y-100543750D03*
X314931250Y-100543750D03*
X314531250Y-100543750D03*
X314131250Y-100543750D03*
X313731250Y-100543750D03*
X313331250Y-100543750D03*
X312931250Y-100543750D03*
X312531250Y-100543750D03*
X312131250Y-100543750D03*
X311731250Y-100543750D03*
X311331250Y-100543750D03*
X310931250Y-100543750D03*
D32*
X310093750Y-101381250D03*
X310093750Y-101781250D03*
X310093750Y-102181250D03*
X310093750Y-102581250D03*
X310093750Y-102981250D03*
X310093750Y-103381250D03*
X310093750Y-103781250D03*
X310093750Y-104181250D03*
X310093750Y-104581250D03*
X310093750Y-104981250D03*
X310093750Y-105381250D03*
X310093750Y-105781250D03*
X310093750Y-106181250D03*
X310093750Y-106581250D03*
D33*
X310931250Y-107418750D03*
X311331250Y-107418750D03*
X311731250Y-107418750D03*
X312131250Y-107418750D03*
X312531250Y-107418750D03*
X312931250Y-107418750D03*
X313331250Y-107418750D03*
X313731250Y-107418750D03*
X314131250Y-107418750D03*
X314531250Y-107418750D03*
X314931250Y-107418750D03*
X315331250Y-107418750D03*
X315731250Y-107418750D03*
X316131250Y-107418750D03*
%TD*%
D10*
%TO.C,C6*%
X318293750Y-103187500D03*
X319253750Y-103187500D03*
%TD*%
D18*
%TO.C,R4*%
X334962500Y-102677500D03*
X334962500Y-103697500D03*
%TD*%
D10*
%TO.C,C3*%
X318127500Y-106862500D03*
X319087500Y-106862500D03*
%TD*%
D34*
%TO.C,USB1*%
X334193750Y-48417500D03*
X333393750Y-48417500D03*
D35*
X332743750Y-48417500D03*
X332243750Y-48417500D03*
X331743750Y-48417500D03*
X331243750Y-48417500D03*
X330743750Y-48417500D03*
X330243750Y-48417500D03*
X329743750Y-48417500D03*
X329243750Y-48417500D03*
D34*
X328593750Y-48417500D03*
X327793750Y-48417500D03*
%TD*%
M02*
