%TF.GenerationSoftware,KiCad,Pcbnew,9.0.5*%
%TF.CreationDate,2026-01-06T21:45:25+05:30*%
%TF.ProjectId,Rheneium,5268656e-6569-4756-9d2e-6b696361645f,rev?*%
%TF.SameCoordinates,Original*%
%TF.FileFunction,Legend,Bot*%
%TF.FilePolarity,Positive*%
%FSLAX46Y46*%
G04 Gerber Fmt 4.6, Leading zero omitted, Abs format (unit mm)*
G04 Created by KiCad (PCBNEW 9.0.5) date 2026-01-06 21:45:25*
%MOMM*%
%LPD*%
G01*
G04 APERTURE LIST*
%ADD10C,0.150000*%
%ADD11C,0.120000*%
G04 APERTURE END LIST*
D10*
X276645535Y-152060069D02*
X276645535Y-151060069D01*
X276645535Y-151060069D02*
X276407440Y-151060069D01*
X276407440Y-151060069D02*
X276264583Y-151107688D01*
X276264583Y-151107688D02*
X276169345Y-151202926D01*
X276169345Y-151202926D02*
X276121726Y-151298164D01*
X276121726Y-151298164D02*
X276074107Y-151488640D01*
X276074107Y-151488640D02*
X276074107Y-151631497D01*
X276074107Y-151631497D02*
X276121726Y-151821973D01*
X276121726Y-151821973D02*
X276169345Y-151917211D01*
X276169345Y-151917211D02*
X276264583Y-152012450D01*
X276264583Y-152012450D02*
X276407440Y-152060069D01*
X276407440Y-152060069D02*
X276645535Y-152060069D01*
X275216964Y-151060069D02*
X275407440Y-151060069D01*
X275407440Y-151060069D02*
X275502678Y-151107688D01*
X275502678Y-151107688D02*
X275550297Y-151155307D01*
X275550297Y-151155307D02*
X275645535Y-151298164D01*
X275645535Y-151298164D02*
X275693154Y-151488640D01*
X275693154Y-151488640D02*
X275693154Y-151869592D01*
X275693154Y-151869592D02*
X275645535Y-151964830D01*
X275645535Y-151964830D02*
X275597916Y-152012450D01*
X275597916Y-152012450D02*
X275502678Y-152060069D01*
X275502678Y-152060069D02*
X275312202Y-152060069D01*
X275312202Y-152060069D02*
X275216964Y-152012450D01*
X275216964Y-152012450D02*
X275169345Y-151964830D01*
X275169345Y-151964830D02*
X275121726Y-151869592D01*
X275121726Y-151869592D02*
X275121726Y-151631497D01*
X275121726Y-151631497D02*
X275169345Y-151536259D01*
X275169345Y-151536259D02*
X275216964Y-151488640D01*
X275216964Y-151488640D02*
X275312202Y-151441021D01*
X275312202Y-151441021D02*
X275502678Y-151441021D01*
X275502678Y-151441021D02*
X275597916Y-151488640D01*
X275597916Y-151488640D02*
X275645535Y-151536259D01*
X275645535Y-151536259D02*
X275693154Y-151631497D01*
X274216964Y-151060069D02*
X274693154Y-151060069D01*
X274693154Y-151060069D02*
X274740773Y-151536259D01*
X274740773Y-151536259D02*
X274693154Y-151488640D01*
X274693154Y-151488640D02*
X274597916Y-151441021D01*
X274597916Y-151441021D02*
X274359821Y-151441021D01*
X274359821Y-151441021D02*
X274264583Y-151488640D01*
X274264583Y-151488640D02*
X274216964Y-151536259D01*
X274216964Y-151536259D02*
X274169345Y-151631497D01*
X274169345Y-151631497D02*
X274169345Y-151869592D01*
X274169345Y-151869592D02*
X274216964Y-151964830D01*
X274216964Y-151964830D02*
X274264583Y-152012450D01*
X274264583Y-152012450D02*
X274359821Y-152060069D01*
X274359821Y-152060069D02*
X274597916Y-152060069D01*
X274597916Y-152060069D02*
X274693154Y-152012450D01*
X274693154Y-152012450D02*
X274740773Y-151964830D01*
X254983035Y-94973569D02*
X254983035Y-93973569D01*
X254983035Y-93973569D02*
X254744940Y-93973569D01*
X254744940Y-93973569D02*
X254602083Y-94021188D01*
X254602083Y-94021188D02*
X254506845Y-94116426D01*
X254506845Y-94116426D02*
X254459226Y-94211664D01*
X254459226Y-94211664D02*
X254411607Y-94402140D01*
X254411607Y-94402140D02*
X254411607Y-94544997D01*
X254411607Y-94544997D02*
X254459226Y-94735473D01*
X254459226Y-94735473D02*
X254506845Y-94830711D01*
X254506845Y-94830711D02*
X254602083Y-94925950D01*
X254602083Y-94925950D02*
X254744940Y-94973569D01*
X254744940Y-94973569D02*
X254983035Y-94973569D01*
X254078273Y-93973569D02*
X253411607Y-93973569D01*
X253411607Y-93973569D02*
X253840178Y-94973569D01*
X252506845Y-94973569D02*
X253078273Y-94973569D01*
X252792559Y-94973569D02*
X252792559Y-93973569D01*
X252792559Y-93973569D02*
X252887797Y-94116426D01*
X252887797Y-94116426D02*
X252983035Y-94211664D01*
X252983035Y-94211664D02*
X253078273Y-94259283D01*
X127189285Y-152060069D02*
X127189285Y-151060069D01*
X127189285Y-151060069D02*
X126951190Y-151060069D01*
X126951190Y-151060069D02*
X126808333Y-151107688D01*
X126808333Y-151107688D02*
X126713095Y-151202926D01*
X126713095Y-151202926D02*
X126665476Y-151298164D01*
X126665476Y-151298164D02*
X126617857Y-151488640D01*
X126617857Y-151488640D02*
X126617857Y-151631497D01*
X126617857Y-151631497D02*
X126665476Y-151821973D01*
X126665476Y-151821973D02*
X126713095Y-151917211D01*
X126713095Y-151917211D02*
X126808333Y-152012450D01*
X126808333Y-152012450D02*
X126951190Y-152060069D01*
X126951190Y-152060069D02*
X127189285Y-152060069D01*
X125713095Y-151060069D02*
X126189285Y-151060069D01*
X126189285Y-151060069D02*
X126236904Y-151536259D01*
X126236904Y-151536259D02*
X126189285Y-151488640D01*
X126189285Y-151488640D02*
X126094047Y-151441021D01*
X126094047Y-151441021D02*
X125855952Y-151441021D01*
X125855952Y-151441021D02*
X125760714Y-151488640D01*
X125760714Y-151488640D02*
X125713095Y-151536259D01*
X125713095Y-151536259D02*
X125665476Y-151631497D01*
X125665476Y-151631497D02*
X125665476Y-151869592D01*
X125665476Y-151869592D02*
X125713095Y-151964830D01*
X125713095Y-151964830D02*
X125760714Y-152012450D01*
X125760714Y-152012450D02*
X125855952Y-152060069D01*
X125855952Y-152060069D02*
X126094047Y-152060069D01*
X126094047Y-152060069D02*
X126189285Y-152012450D01*
X126189285Y-152012450D02*
X126236904Y-151964830D01*
X125332142Y-151060069D02*
X124665476Y-151060069D01*
X124665476Y-151060069D02*
X125094047Y-152060069D01*
X54958035Y-114023569D02*
X54958035Y-113023569D01*
X54958035Y-113023569D02*
X54719940Y-113023569D01*
X54719940Y-113023569D02*
X54577083Y-113071188D01*
X54577083Y-113071188D02*
X54481845Y-113166426D01*
X54481845Y-113166426D02*
X54434226Y-113261664D01*
X54434226Y-113261664D02*
X54386607Y-113452140D01*
X54386607Y-113452140D02*
X54386607Y-113594997D01*
X54386607Y-113594997D02*
X54434226Y-113785473D01*
X54434226Y-113785473D02*
X54481845Y-113880711D01*
X54481845Y-113880711D02*
X54577083Y-113975950D01*
X54577083Y-113975950D02*
X54719940Y-114023569D01*
X54719940Y-114023569D02*
X54958035Y-114023569D01*
X54005654Y-113118807D02*
X53958035Y-113071188D01*
X53958035Y-113071188D02*
X53862797Y-113023569D01*
X53862797Y-113023569D02*
X53624702Y-113023569D01*
X53624702Y-113023569D02*
X53529464Y-113071188D01*
X53529464Y-113071188D02*
X53481845Y-113118807D01*
X53481845Y-113118807D02*
X53434226Y-113214045D01*
X53434226Y-113214045D02*
X53434226Y-113309283D01*
X53434226Y-113309283D02*
X53481845Y-113452140D01*
X53481845Y-113452140D02*
X54053273Y-114023569D01*
X54053273Y-114023569D02*
X53434226Y-114023569D01*
X52862797Y-113452140D02*
X52958035Y-113404521D01*
X52958035Y-113404521D02*
X53005654Y-113356902D01*
X53005654Y-113356902D02*
X53053273Y-113261664D01*
X53053273Y-113261664D02*
X53053273Y-113214045D01*
X53053273Y-113214045D02*
X53005654Y-113118807D01*
X53005654Y-113118807D02*
X52958035Y-113071188D01*
X52958035Y-113071188D02*
X52862797Y-113023569D01*
X52862797Y-113023569D02*
X52672321Y-113023569D01*
X52672321Y-113023569D02*
X52577083Y-113071188D01*
X52577083Y-113071188D02*
X52529464Y-113118807D01*
X52529464Y-113118807D02*
X52481845Y-113214045D01*
X52481845Y-113214045D02*
X52481845Y-113261664D01*
X52481845Y-113261664D02*
X52529464Y-113356902D01*
X52529464Y-113356902D02*
X52577083Y-113404521D01*
X52577083Y-113404521D02*
X52672321Y-113452140D01*
X52672321Y-113452140D02*
X52862797Y-113452140D01*
X52862797Y-113452140D02*
X52958035Y-113499759D01*
X52958035Y-113499759D02*
X53005654Y-113547378D01*
X53005654Y-113547378D02*
X53053273Y-113642616D01*
X53053273Y-113642616D02*
X53053273Y-113833092D01*
X53053273Y-113833092D02*
X53005654Y-113928330D01*
X53005654Y-113928330D02*
X52958035Y-113975950D01*
X52958035Y-113975950D02*
X52862797Y-114023569D01*
X52862797Y-114023569D02*
X52672321Y-114023569D01*
X52672321Y-114023569D02*
X52577083Y-113975950D01*
X52577083Y-113975950D02*
X52529464Y-113928330D01*
X52529464Y-113928330D02*
X52481845Y-113833092D01*
X52481845Y-113833092D02*
X52481845Y-113642616D01*
X52481845Y-113642616D02*
X52529464Y-113547378D01*
X52529464Y-113547378D02*
X52577083Y-113499759D01*
X52577083Y-113499759D02*
X52672321Y-113452140D01*
X60666071Y-133073569D02*
X60666071Y-132073569D01*
X60666071Y-132073569D02*
X60427976Y-132073569D01*
X60427976Y-132073569D02*
X60285119Y-132121188D01*
X60285119Y-132121188D02*
X60189881Y-132216426D01*
X60189881Y-132216426D02*
X60142262Y-132311664D01*
X60142262Y-132311664D02*
X60094643Y-132502140D01*
X60094643Y-132502140D02*
X60094643Y-132644997D01*
X60094643Y-132644997D02*
X60142262Y-132835473D01*
X60142262Y-132835473D02*
X60189881Y-132930711D01*
X60189881Y-132930711D02*
X60285119Y-133025950D01*
X60285119Y-133025950D02*
X60427976Y-133073569D01*
X60427976Y-133073569D02*
X60666071Y-133073569D01*
X59237500Y-132406902D02*
X59237500Y-133073569D01*
X59475595Y-132025950D02*
X59713690Y-132740235D01*
X59713690Y-132740235D02*
X59094643Y-132740235D01*
X58189881Y-133073569D02*
X58761309Y-133073569D01*
X58475595Y-133073569D02*
X58475595Y-132073569D01*
X58475595Y-132073569D02*
X58570833Y-132216426D01*
X58570833Y-132216426D02*
X58666071Y-132311664D01*
X58666071Y-132311664D02*
X58761309Y-132359283D01*
X254983035Y-68779819D02*
X254983035Y-67779819D01*
X254983035Y-67779819D02*
X254744940Y-67779819D01*
X254744940Y-67779819D02*
X254602083Y-67827438D01*
X254602083Y-67827438D02*
X254506845Y-67922676D01*
X254506845Y-67922676D02*
X254459226Y-68017914D01*
X254459226Y-68017914D02*
X254411607Y-68208390D01*
X254411607Y-68208390D02*
X254411607Y-68351247D01*
X254411607Y-68351247D02*
X254459226Y-68541723D01*
X254459226Y-68541723D02*
X254506845Y-68636961D01*
X254506845Y-68636961D02*
X254602083Y-68732200D01*
X254602083Y-68732200D02*
X254744940Y-68779819D01*
X254744940Y-68779819D02*
X254983035Y-68779819D01*
X253459226Y-68779819D02*
X254030654Y-68779819D01*
X253744940Y-68779819D02*
X253744940Y-67779819D01*
X253744940Y-67779819D02*
X253840178Y-67922676D01*
X253840178Y-67922676D02*
X253935416Y-68017914D01*
X253935416Y-68017914D02*
X254030654Y-68065533D01*
X252506845Y-68779819D02*
X253078273Y-68779819D01*
X252792559Y-68779819D02*
X252792559Y-67779819D01*
X252792559Y-67779819D02*
X252887797Y-67922676D01*
X252887797Y-67922676D02*
X252983035Y-68017914D01*
X252983035Y-68017914D02*
X253078273Y-68065533D01*
X34803571Y-133073569D02*
X34803571Y-132073569D01*
X34803571Y-132073569D02*
X34565476Y-132073569D01*
X34565476Y-132073569D02*
X34422619Y-132121188D01*
X34422619Y-132121188D02*
X34327381Y-132216426D01*
X34327381Y-132216426D02*
X34279762Y-132311664D01*
X34279762Y-132311664D02*
X34232143Y-132502140D01*
X34232143Y-132502140D02*
X34232143Y-132644997D01*
X34232143Y-132644997D02*
X34279762Y-132835473D01*
X34279762Y-132835473D02*
X34327381Y-132930711D01*
X34327381Y-132930711D02*
X34422619Y-133025950D01*
X34422619Y-133025950D02*
X34565476Y-133073569D01*
X34565476Y-133073569D02*
X34803571Y-133073569D01*
X33375000Y-132406902D02*
X33375000Y-133073569D01*
X33613095Y-132025950D02*
X33851190Y-132740235D01*
X33851190Y-132740235D02*
X33232143Y-132740235D01*
X32660714Y-132073569D02*
X32565476Y-132073569D01*
X32565476Y-132073569D02*
X32470238Y-132121188D01*
X32470238Y-132121188D02*
X32422619Y-132168807D01*
X32422619Y-132168807D02*
X32375000Y-132264045D01*
X32375000Y-132264045D02*
X32327381Y-132454521D01*
X32327381Y-132454521D02*
X32327381Y-132692616D01*
X32327381Y-132692616D02*
X32375000Y-132883092D01*
X32375000Y-132883092D02*
X32422619Y-132978330D01*
X32422619Y-132978330D02*
X32470238Y-133025950D01*
X32470238Y-133025950D02*
X32565476Y-133073569D01*
X32565476Y-133073569D02*
X32660714Y-133073569D01*
X32660714Y-133073569D02*
X32755952Y-133025950D01*
X32755952Y-133025950D02*
X32803571Y-132978330D01*
X32803571Y-132978330D02*
X32851190Y-132883092D01*
X32851190Y-132883092D02*
X32898809Y-132692616D01*
X32898809Y-132692616D02*
X32898809Y-132454521D01*
X32898809Y-132454521D02*
X32851190Y-132264045D01*
X32851190Y-132264045D02*
X32803571Y-132168807D01*
X32803571Y-132168807D02*
X32755952Y-132121188D01*
X32755952Y-132121188D02*
X32660714Y-132073569D01*
X77037441Y-171173569D02*
X77037441Y-170173569D01*
X77037441Y-170173569D02*
X76799346Y-170173569D01*
X76799346Y-170173569D02*
X76656489Y-170221188D01*
X76656489Y-170221188D02*
X76561251Y-170316426D01*
X76561251Y-170316426D02*
X76513632Y-170411664D01*
X76513632Y-170411664D02*
X76466013Y-170602140D01*
X76466013Y-170602140D02*
X76466013Y-170744997D01*
X76466013Y-170744997D02*
X76513632Y-170935473D01*
X76513632Y-170935473D02*
X76561251Y-171030711D01*
X76561251Y-171030711D02*
X76656489Y-171125950D01*
X76656489Y-171125950D02*
X76799346Y-171173569D01*
X76799346Y-171173569D02*
X77037441Y-171173569D01*
X75608870Y-170173569D02*
X75799346Y-170173569D01*
X75799346Y-170173569D02*
X75894584Y-170221188D01*
X75894584Y-170221188D02*
X75942203Y-170268807D01*
X75942203Y-170268807D02*
X76037441Y-170411664D01*
X76037441Y-170411664D02*
X76085060Y-170602140D01*
X76085060Y-170602140D02*
X76085060Y-170983092D01*
X76085060Y-170983092D02*
X76037441Y-171078330D01*
X76037441Y-171078330D02*
X75989822Y-171125950D01*
X75989822Y-171125950D02*
X75894584Y-171173569D01*
X75894584Y-171173569D02*
X75704108Y-171173569D01*
X75704108Y-171173569D02*
X75608870Y-171125950D01*
X75608870Y-171125950D02*
X75561251Y-171078330D01*
X75561251Y-171078330D02*
X75513632Y-170983092D01*
X75513632Y-170983092D02*
X75513632Y-170744997D01*
X75513632Y-170744997D02*
X75561251Y-170649759D01*
X75561251Y-170649759D02*
X75608870Y-170602140D01*
X75608870Y-170602140D02*
X75704108Y-170554521D01*
X75704108Y-170554521D02*
X75894584Y-170554521D01*
X75894584Y-170554521D02*
X75989822Y-170602140D01*
X75989822Y-170602140D02*
X76037441Y-170649759D01*
X76037441Y-170649759D02*
X76085060Y-170744997D01*
X75180298Y-170173569D02*
X74513632Y-170173569D01*
X74513632Y-170173569D02*
X74942203Y-171173569D01*
X83533035Y-94973569D02*
X83533035Y-93973569D01*
X83533035Y-93973569D02*
X83294940Y-93973569D01*
X83294940Y-93973569D02*
X83152083Y-94021188D01*
X83152083Y-94021188D02*
X83056845Y-94116426D01*
X83056845Y-94116426D02*
X83009226Y-94211664D01*
X83009226Y-94211664D02*
X82961607Y-94402140D01*
X82961607Y-94402140D02*
X82961607Y-94544997D01*
X82961607Y-94544997D02*
X83009226Y-94735473D01*
X83009226Y-94735473D02*
X83056845Y-94830711D01*
X83056845Y-94830711D02*
X83152083Y-94925950D01*
X83152083Y-94925950D02*
X83294940Y-94973569D01*
X83294940Y-94973569D02*
X83533035Y-94973569D01*
X82009226Y-94973569D02*
X82580654Y-94973569D01*
X82294940Y-94973569D02*
X82294940Y-93973569D01*
X82294940Y-93973569D02*
X82390178Y-94116426D01*
X82390178Y-94116426D02*
X82485416Y-94211664D01*
X82485416Y-94211664D02*
X82580654Y-94259283D01*
X81675892Y-93973569D02*
X81009226Y-93973569D01*
X81009226Y-93973569D02*
X81437797Y-94973569D01*
X166400594Y-68779819D02*
X166400594Y-67779819D01*
X166400594Y-67779819D02*
X166162499Y-67779819D01*
X166162499Y-67779819D02*
X166019642Y-67827438D01*
X166019642Y-67827438D02*
X165924404Y-67922676D01*
X165924404Y-67922676D02*
X165876785Y-68017914D01*
X165876785Y-68017914D02*
X165829166Y-68208390D01*
X165829166Y-68208390D02*
X165829166Y-68351247D01*
X165829166Y-68351247D02*
X165876785Y-68541723D01*
X165876785Y-68541723D02*
X165924404Y-68636961D01*
X165924404Y-68636961D02*
X166019642Y-68732200D01*
X166019642Y-68732200D02*
X166162499Y-68779819D01*
X166162499Y-68779819D02*
X166400594Y-68779819D01*
X165495832Y-67779819D02*
X164829166Y-67779819D01*
X164829166Y-67779819D02*
X165257737Y-68779819D01*
X98167321Y-133329819D02*
X98167321Y-132329819D01*
X98167321Y-132329819D02*
X97929226Y-132329819D01*
X97929226Y-132329819D02*
X97786369Y-132377438D01*
X97786369Y-132377438D02*
X97691131Y-132472676D01*
X97691131Y-132472676D02*
X97643512Y-132567914D01*
X97643512Y-132567914D02*
X97595893Y-132758390D01*
X97595893Y-132758390D02*
X97595893Y-132901247D01*
X97595893Y-132901247D02*
X97643512Y-133091723D01*
X97643512Y-133091723D02*
X97691131Y-133186961D01*
X97691131Y-133186961D02*
X97786369Y-133282200D01*
X97786369Y-133282200D02*
X97929226Y-133329819D01*
X97929226Y-133329819D02*
X98167321Y-133329819D01*
X96738750Y-132663152D02*
X96738750Y-133329819D01*
X96976845Y-132282200D02*
X97214940Y-132996485D01*
X97214940Y-132996485D02*
X96595893Y-132996485D01*
X96310178Y-132329819D02*
X95691131Y-132329819D01*
X95691131Y-132329819D02*
X96024464Y-132710771D01*
X96024464Y-132710771D02*
X95881607Y-132710771D01*
X95881607Y-132710771D02*
X95786369Y-132758390D01*
X95786369Y-132758390D02*
X95738750Y-132806009D01*
X95738750Y-132806009D02*
X95691131Y-132901247D01*
X95691131Y-132901247D02*
X95691131Y-133139342D01*
X95691131Y-133139342D02*
X95738750Y-133234580D01*
X95738750Y-133234580D02*
X95786369Y-133282200D01*
X95786369Y-133282200D02*
X95881607Y-133329819D01*
X95881607Y-133329819D02*
X96167321Y-133329819D01*
X96167321Y-133329819D02*
X96262559Y-133282200D01*
X96262559Y-133282200D02*
X96310178Y-133234580D01*
X362139285Y-68779819D02*
X362139285Y-67779819D01*
X362139285Y-67779819D02*
X361901190Y-67779819D01*
X361901190Y-67779819D02*
X361758333Y-67827438D01*
X361758333Y-67827438D02*
X361663095Y-67922676D01*
X361663095Y-67922676D02*
X361615476Y-68017914D01*
X361615476Y-68017914D02*
X361567857Y-68208390D01*
X361567857Y-68208390D02*
X361567857Y-68351247D01*
X361567857Y-68351247D02*
X361615476Y-68541723D01*
X361615476Y-68541723D02*
X361663095Y-68636961D01*
X361663095Y-68636961D02*
X361758333Y-68732200D01*
X361758333Y-68732200D02*
X361901190Y-68779819D01*
X361901190Y-68779819D02*
X362139285Y-68779819D01*
X360710714Y-67779819D02*
X360901190Y-67779819D01*
X360901190Y-67779819D02*
X360996428Y-67827438D01*
X360996428Y-67827438D02*
X361044047Y-67875057D01*
X361044047Y-67875057D02*
X361139285Y-68017914D01*
X361139285Y-68017914D02*
X361186904Y-68208390D01*
X361186904Y-68208390D02*
X361186904Y-68589342D01*
X361186904Y-68589342D02*
X361139285Y-68684580D01*
X361139285Y-68684580D02*
X361091666Y-68732200D01*
X361091666Y-68732200D02*
X360996428Y-68779819D01*
X360996428Y-68779819D02*
X360805952Y-68779819D01*
X360805952Y-68779819D02*
X360710714Y-68732200D01*
X360710714Y-68732200D02*
X360663095Y-68684580D01*
X360663095Y-68684580D02*
X360615476Y-68589342D01*
X360615476Y-68589342D02*
X360615476Y-68351247D01*
X360615476Y-68351247D02*
X360663095Y-68256009D01*
X360663095Y-68256009D02*
X360710714Y-68208390D01*
X360710714Y-68208390D02*
X360805952Y-68160771D01*
X360805952Y-68160771D02*
X360996428Y-68160771D01*
X360996428Y-68160771D02*
X361091666Y-68208390D01*
X361091666Y-68208390D02*
X361139285Y-68256009D01*
X361139285Y-68256009D02*
X361186904Y-68351247D01*
X360139285Y-68779819D02*
X359948809Y-68779819D01*
X359948809Y-68779819D02*
X359853571Y-68732200D01*
X359853571Y-68732200D02*
X359805952Y-68684580D01*
X359805952Y-68684580D02*
X359710714Y-68541723D01*
X359710714Y-68541723D02*
X359663095Y-68351247D01*
X359663095Y-68351247D02*
X359663095Y-67970295D01*
X359663095Y-67970295D02*
X359710714Y-67875057D01*
X359710714Y-67875057D02*
X359758333Y-67827438D01*
X359758333Y-67827438D02*
X359853571Y-67779819D01*
X359853571Y-67779819D02*
X360044047Y-67779819D01*
X360044047Y-67779819D02*
X360139285Y-67827438D01*
X360139285Y-67827438D02*
X360186904Y-67875057D01*
X360186904Y-67875057D02*
X360234523Y-67970295D01*
X360234523Y-67970295D02*
X360234523Y-68208390D01*
X360234523Y-68208390D02*
X360186904Y-68303628D01*
X360186904Y-68303628D02*
X360139285Y-68351247D01*
X360139285Y-68351247D02*
X360044047Y-68398866D01*
X360044047Y-68398866D02*
X359853571Y-68398866D01*
X359853571Y-68398866D02*
X359758333Y-68351247D01*
X359758333Y-68351247D02*
X359710714Y-68303628D01*
X359710714Y-68303628D02*
X359663095Y-68208390D01*
X30999941Y-171173569D02*
X30999941Y-170173569D01*
X30999941Y-170173569D02*
X30761846Y-170173569D01*
X30761846Y-170173569D02*
X30618989Y-170221188D01*
X30618989Y-170221188D02*
X30523751Y-170316426D01*
X30523751Y-170316426D02*
X30476132Y-170411664D01*
X30476132Y-170411664D02*
X30428513Y-170602140D01*
X30428513Y-170602140D02*
X30428513Y-170744997D01*
X30428513Y-170744997D02*
X30476132Y-170935473D01*
X30476132Y-170935473D02*
X30523751Y-171030711D01*
X30523751Y-171030711D02*
X30618989Y-171125950D01*
X30618989Y-171125950D02*
X30761846Y-171173569D01*
X30761846Y-171173569D02*
X30999941Y-171173569D01*
X30095179Y-170173569D02*
X29428513Y-170173569D01*
X29428513Y-170173569D02*
X29857084Y-171173569D01*
X28999941Y-171173569D02*
X28809465Y-171173569D01*
X28809465Y-171173569D02*
X28714227Y-171125950D01*
X28714227Y-171125950D02*
X28666608Y-171078330D01*
X28666608Y-171078330D02*
X28571370Y-170935473D01*
X28571370Y-170935473D02*
X28523751Y-170744997D01*
X28523751Y-170744997D02*
X28523751Y-170364045D01*
X28523751Y-170364045D02*
X28571370Y-170268807D01*
X28571370Y-170268807D02*
X28618989Y-170221188D01*
X28618989Y-170221188D02*
X28714227Y-170173569D01*
X28714227Y-170173569D02*
X28904703Y-170173569D01*
X28904703Y-170173569D02*
X28999941Y-170221188D01*
X28999941Y-170221188D02*
X29047560Y-170268807D01*
X29047560Y-170268807D02*
X29095179Y-170364045D01*
X29095179Y-170364045D02*
X29095179Y-170602140D01*
X29095179Y-170602140D02*
X29047560Y-170697378D01*
X29047560Y-170697378D02*
X28999941Y-170744997D01*
X28999941Y-170744997D02*
X28904703Y-170792616D01*
X28904703Y-170792616D02*
X28714227Y-170792616D01*
X28714227Y-170792616D02*
X28618989Y-170744997D01*
X28618989Y-170744997D02*
X28571370Y-170697378D01*
X28571370Y-170697378D02*
X28523751Y-170602140D01*
X291912441Y-171173569D02*
X291912441Y-170173569D01*
X291912441Y-170173569D02*
X291674346Y-170173569D01*
X291674346Y-170173569D02*
X291531489Y-170221188D01*
X291531489Y-170221188D02*
X291436251Y-170316426D01*
X291436251Y-170316426D02*
X291388632Y-170411664D01*
X291388632Y-170411664D02*
X291341013Y-170602140D01*
X291341013Y-170602140D02*
X291341013Y-170744997D01*
X291341013Y-170744997D02*
X291388632Y-170935473D01*
X291388632Y-170935473D02*
X291436251Y-171030711D01*
X291436251Y-171030711D02*
X291531489Y-171125950D01*
X291531489Y-171125950D02*
X291674346Y-171173569D01*
X291674346Y-171173569D02*
X291912441Y-171173569D01*
X290769584Y-170602140D02*
X290864822Y-170554521D01*
X290864822Y-170554521D02*
X290912441Y-170506902D01*
X290912441Y-170506902D02*
X290960060Y-170411664D01*
X290960060Y-170411664D02*
X290960060Y-170364045D01*
X290960060Y-170364045D02*
X290912441Y-170268807D01*
X290912441Y-170268807D02*
X290864822Y-170221188D01*
X290864822Y-170221188D02*
X290769584Y-170173569D01*
X290769584Y-170173569D02*
X290579108Y-170173569D01*
X290579108Y-170173569D02*
X290483870Y-170221188D01*
X290483870Y-170221188D02*
X290436251Y-170268807D01*
X290436251Y-170268807D02*
X290388632Y-170364045D01*
X290388632Y-170364045D02*
X290388632Y-170411664D01*
X290388632Y-170411664D02*
X290436251Y-170506902D01*
X290436251Y-170506902D02*
X290483870Y-170554521D01*
X290483870Y-170554521D02*
X290579108Y-170602140D01*
X290579108Y-170602140D02*
X290769584Y-170602140D01*
X290769584Y-170602140D02*
X290864822Y-170649759D01*
X290864822Y-170649759D02*
X290912441Y-170697378D01*
X290912441Y-170697378D02*
X290960060Y-170792616D01*
X290960060Y-170792616D02*
X290960060Y-170983092D01*
X290960060Y-170983092D02*
X290912441Y-171078330D01*
X290912441Y-171078330D02*
X290864822Y-171125950D01*
X290864822Y-171125950D02*
X290769584Y-171173569D01*
X290769584Y-171173569D02*
X290579108Y-171173569D01*
X290579108Y-171173569D02*
X290483870Y-171125950D01*
X290483870Y-171125950D02*
X290436251Y-171078330D01*
X290436251Y-171078330D02*
X290388632Y-170983092D01*
X290388632Y-170983092D02*
X290388632Y-170792616D01*
X290388632Y-170792616D02*
X290436251Y-170697378D01*
X290436251Y-170697378D02*
X290483870Y-170649759D01*
X290483870Y-170649759D02*
X290579108Y-170602140D01*
X290055298Y-170173569D02*
X289436251Y-170173569D01*
X289436251Y-170173569D02*
X289769584Y-170554521D01*
X289769584Y-170554521D02*
X289626727Y-170554521D01*
X289626727Y-170554521D02*
X289531489Y-170602140D01*
X289531489Y-170602140D02*
X289483870Y-170649759D01*
X289483870Y-170649759D02*
X289436251Y-170744997D01*
X289436251Y-170744997D02*
X289436251Y-170983092D01*
X289436251Y-170983092D02*
X289483870Y-171078330D01*
X289483870Y-171078330D02*
X289531489Y-171125950D01*
X289531489Y-171125950D02*
X289626727Y-171173569D01*
X289626727Y-171173569D02*
X289912441Y-171173569D01*
X289912441Y-171173569D02*
X290007679Y-171125950D01*
X290007679Y-171125950D02*
X290055298Y-171078330D01*
X32501785Y-114023569D02*
X32501785Y-113023569D01*
X32501785Y-113023569D02*
X32263690Y-113023569D01*
X32263690Y-113023569D02*
X32120833Y-113071188D01*
X32120833Y-113071188D02*
X32025595Y-113166426D01*
X32025595Y-113166426D02*
X31977976Y-113261664D01*
X31977976Y-113261664D02*
X31930357Y-113452140D01*
X31930357Y-113452140D02*
X31930357Y-113594997D01*
X31930357Y-113594997D02*
X31977976Y-113785473D01*
X31977976Y-113785473D02*
X32025595Y-113880711D01*
X32025595Y-113880711D02*
X32120833Y-113975950D01*
X32120833Y-113975950D02*
X32263690Y-114023569D01*
X32263690Y-114023569D02*
X32501785Y-114023569D01*
X31549404Y-113118807D02*
X31501785Y-113071188D01*
X31501785Y-113071188D02*
X31406547Y-113023569D01*
X31406547Y-113023569D02*
X31168452Y-113023569D01*
X31168452Y-113023569D02*
X31073214Y-113071188D01*
X31073214Y-113071188D02*
X31025595Y-113118807D01*
X31025595Y-113118807D02*
X30977976Y-113214045D01*
X30977976Y-113214045D02*
X30977976Y-113309283D01*
X30977976Y-113309283D02*
X31025595Y-113452140D01*
X31025595Y-113452140D02*
X31597023Y-114023569D01*
X31597023Y-114023569D02*
X30977976Y-114023569D01*
X30644642Y-113023569D02*
X29977976Y-113023569D01*
X29977976Y-113023569D02*
X30406547Y-114023569D01*
X45433035Y-94973569D02*
X45433035Y-93973569D01*
X45433035Y-93973569D02*
X45194940Y-93973569D01*
X45194940Y-93973569D02*
X45052083Y-94021188D01*
X45052083Y-94021188D02*
X44956845Y-94116426D01*
X44956845Y-94116426D02*
X44909226Y-94211664D01*
X44909226Y-94211664D02*
X44861607Y-94402140D01*
X44861607Y-94402140D02*
X44861607Y-94544997D01*
X44861607Y-94544997D02*
X44909226Y-94735473D01*
X44909226Y-94735473D02*
X44956845Y-94830711D01*
X44956845Y-94830711D02*
X45052083Y-94925950D01*
X45052083Y-94925950D02*
X45194940Y-94973569D01*
X45194940Y-94973569D02*
X45433035Y-94973569D01*
X43909226Y-94973569D02*
X44480654Y-94973569D01*
X44194940Y-94973569D02*
X44194940Y-93973569D01*
X44194940Y-93973569D02*
X44290178Y-94116426D01*
X44290178Y-94116426D02*
X44385416Y-94211664D01*
X44385416Y-94211664D02*
X44480654Y-94259283D01*
X43004464Y-93973569D02*
X43480654Y-93973569D01*
X43480654Y-93973569D02*
X43528273Y-94449759D01*
X43528273Y-94449759D02*
X43480654Y-94402140D01*
X43480654Y-94402140D02*
X43385416Y-94354521D01*
X43385416Y-94354521D02*
X43147321Y-94354521D01*
X43147321Y-94354521D02*
X43052083Y-94402140D01*
X43052083Y-94402140D02*
X43004464Y-94449759D01*
X43004464Y-94449759D02*
X42956845Y-94544997D01*
X42956845Y-94544997D02*
X42956845Y-94783092D01*
X42956845Y-94783092D02*
X43004464Y-94878330D01*
X43004464Y-94878330D02*
X43052083Y-94925950D01*
X43052083Y-94925950D02*
X43147321Y-94973569D01*
X43147321Y-94973569D02*
X43385416Y-94973569D01*
X43385416Y-94973569D02*
X43480654Y-94925950D01*
X43480654Y-94925950D02*
X43528273Y-94878330D01*
X54018691Y-171173569D02*
X54018691Y-170173569D01*
X54018691Y-170173569D02*
X53780596Y-170173569D01*
X53780596Y-170173569D02*
X53637739Y-170221188D01*
X53637739Y-170221188D02*
X53542501Y-170316426D01*
X53542501Y-170316426D02*
X53494882Y-170411664D01*
X53494882Y-170411664D02*
X53447263Y-170602140D01*
X53447263Y-170602140D02*
X53447263Y-170744997D01*
X53447263Y-170744997D02*
X53494882Y-170935473D01*
X53494882Y-170935473D02*
X53542501Y-171030711D01*
X53542501Y-171030711D02*
X53637739Y-171125950D01*
X53637739Y-171125950D02*
X53780596Y-171173569D01*
X53780596Y-171173569D02*
X54018691Y-171173569D01*
X52875834Y-170602140D02*
X52971072Y-170554521D01*
X52971072Y-170554521D02*
X53018691Y-170506902D01*
X53018691Y-170506902D02*
X53066310Y-170411664D01*
X53066310Y-170411664D02*
X53066310Y-170364045D01*
X53066310Y-170364045D02*
X53018691Y-170268807D01*
X53018691Y-170268807D02*
X52971072Y-170221188D01*
X52971072Y-170221188D02*
X52875834Y-170173569D01*
X52875834Y-170173569D02*
X52685358Y-170173569D01*
X52685358Y-170173569D02*
X52590120Y-170221188D01*
X52590120Y-170221188D02*
X52542501Y-170268807D01*
X52542501Y-170268807D02*
X52494882Y-170364045D01*
X52494882Y-170364045D02*
X52494882Y-170411664D01*
X52494882Y-170411664D02*
X52542501Y-170506902D01*
X52542501Y-170506902D02*
X52590120Y-170554521D01*
X52590120Y-170554521D02*
X52685358Y-170602140D01*
X52685358Y-170602140D02*
X52875834Y-170602140D01*
X52875834Y-170602140D02*
X52971072Y-170649759D01*
X52971072Y-170649759D02*
X53018691Y-170697378D01*
X53018691Y-170697378D02*
X53066310Y-170792616D01*
X53066310Y-170792616D02*
X53066310Y-170983092D01*
X53066310Y-170983092D02*
X53018691Y-171078330D01*
X53018691Y-171078330D02*
X52971072Y-171125950D01*
X52971072Y-171125950D02*
X52875834Y-171173569D01*
X52875834Y-171173569D02*
X52685358Y-171173569D01*
X52685358Y-171173569D02*
X52590120Y-171125950D01*
X52590120Y-171125950D02*
X52542501Y-171078330D01*
X52542501Y-171078330D02*
X52494882Y-170983092D01*
X52494882Y-170983092D02*
X52494882Y-170792616D01*
X52494882Y-170792616D02*
X52542501Y-170697378D01*
X52542501Y-170697378D02*
X52590120Y-170649759D01*
X52590120Y-170649759D02*
X52685358Y-170602140D01*
X51875834Y-170173569D02*
X51780596Y-170173569D01*
X51780596Y-170173569D02*
X51685358Y-170221188D01*
X51685358Y-170221188D02*
X51637739Y-170268807D01*
X51637739Y-170268807D02*
X51590120Y-170364045D01*
X51590120Y-170364045D02*
X51542501Y-170554521D01*
X51542501Y-170554521D02*
X51542501Y-170792616D01*
X51542501Y-170792616D02*
X51590120Y-170983092D01*
X51590120Y-170983092D02*
X51637739Y-171078330D01*
X51637739Y-171078330D02*
X51685358Y-171125950D01*
X51685358Y-171125950D02*
X51780596Y-171173569D01*
X51780596Y-171173569D02*
X51875834Y-171173569D01*
X51875834Y-171173569D02*
X51971072Y-171125950D01*
X51971072Y-171125950D02*
X52018691Y-171078330D01*
X52018691Y-171078330D02*
X52066310Y-170983092D01*
X52066310Y-170983092D02*
X52113929Y-170792616D01*
X52113929Y-170792616D02*
X52113929Y-170554521D01*
X52113929Y-170554521D02*
X52066310Y-170364045D01*
X52066310Y-170364045D02*
X52018691Y-170268807D01*
X52018691Y-170268807D02*
X51971072Y-170221188D01*
X51971072Y-170221188D02*
X51875834Y-170173569D01*
X324039285Y-68779819D02*
X324039285Y-67779819D01*
X324039285Y-67779819D02*
X323801190Y-67779819D01*
X323801190Y-67779819D02*
X323658333Y-67827438D01*
X323658333Y-67827438D02*
X323563095Y-67922676D01*
X323563095Y-67922676D02*
X323515476Y-68017914D01*
X323515476Y-68017914D02*
X323467857Y-68208390D01*
X323467857Y-68208390D02*
X323467857Y-68351247D01*
X323467857Y-68351247D02*
X323515476Y-68541723D01*
X323515476Y-68541723D02*
X323563095Y-68636961D01*
X323563095Y-68636961D02*
X323658333Y-68732200D01*
X323658333Y-68732200D02*
X323801190Y-68779819D01*
X323801190Y-68779819D02*
X324039285Y-68779819D01*
X322610714Y-67779819D02*
X322801190Y-67779819D01*
X322801190Y-67779819D02*
X322896428Y-67827438D01*
X322896428Y-67827438D02*
X322944047Y-67875057D01*
X322944047Y-67875057D02*
X323039285Y-68017914D01*
X323039285Y-68017914D02*
X323086904Y-68208390D01*
X323086904Y-68208390D02*
X323086904Y-68589342D01*
X323086904Y-68589342D02*
X323039285Y-68684580D01*
X323039285Y-68684580D02*
X322991666Y-68732200D01*
X322991666Y-68732200D02*
X322896428Y-68779819D01*
X322896428Y-68779819D02*
X322705952Y-68779819D01*
X322705952Y-68779819D02*
X322610714Y-68732200D01*
X322610714Y-68732200D02*
X322563095Y-68684580D01*
X322563095Y-68684580D02*
X322515476Y-68589342D01*
X322515476Y-68589342D02*
X322515476Y-68351247D01*
X322515476Y-68351247D02*
X322563095Y-68256009D01*
X322563095Y-68256009D02*
X322610714Y-68208390D01*
X322610714Y-68208390D02*
X322705952Y-68160771D01*
X322705952Y-68160771D02*
X322896428Y-68160771D01*
X322896428Y-68160771D02*
X322991666Y-68208390D01*
X322991666Y-68208390D02*
X323039285Y-68256009D01*
X323039285Y-68256009D02*
X323086904Y-68351247D01*
X321658333Y-67779819D02*
X321848809Y-67779819D01*
X321848809Y-67779819D02*
X321944047Y-67827438D01*
X321944047Y-67827438D02*
X321991666Y-67875057D01*
X321991666Y-67875057D02*
X322086904Y-68017914D01*
X322086904Y-68017914D02*
X322134523Y-68208390D01*
X322134523Y-68208390D02*
X322134523Y-68589342D01*
X322134523Y-68589342D02*
X322086904Y-68684580D01*
X322086904Y-68684580D02*
X322039285Y-68732200D01*
X322039285Y-68732200D02*
X321944047Y-68779819D01*
X321944047Y-68779819D02*
X321753571Y-68779819D01*
X321753571Y-68779819D02*
X321658333Y-68732200D01*
X321658333Y-68732200D02*
X321610714Y-68684580D01*
X321610714Y-68684580D02*
X321563095Y-68589342D01*
X321563095Y-68589342D02*
X321563095Y-68351247D01*
X321563095Y-68351247D02*
X321610714Y-68256009D01*
X321610714Y-68256009D02*
X321658333Y-68208390D01*
X321658333Y-68208390D02*
X321753571Y-68160771D01*
X321753571Y-68160771D02*
X321944047Y-68160771D01*
X321944047Y-68160771D02*
X322039285Y-68208390D01*
X322039285Y-68208390D02*
X322086904Y-68256009D01*
X322086904Y-68256009D02*
X322134523Y-68351247D01*
X39314285Y-152060069D02*
X39314285Y-151060069D01*
X39314285Y-151060069D02*
X39076190Y-151060069D01*
X39076190Y-151060069D02*
X38933333Y-151107688D01*
X38933333Y-151107688D02*
X38838095Y-151202926D01*
X38838095Y-151202926D02*
X38790476Y-151298164D01*
X38790476Y-151298164D02*
X38742857Y-151488640D01*
X38742857Y-151488640D02*
X38742857Y-151631497D01*
X38742857Y-151631497D02*
X38790476Y-151821973D01*
X38790476Y-151821973D02*
X38838095Y-151917211D01*
X38838095Y-151917211D02*
X38933333Y-152012450D01*
X38933333Y-152012450D02*
X39076190Y-152060069D01*
X39076190Y-152060069D02*
X39314285Y-152060069D01*
X37838095Y-151060069D02*
X38314285Y-151060069D01*
X38314285Y-151060069D02*
X38361904Y-151536259D01*
X38361904Y-151536259D02*
X38314285Y-151488640D01*
X38314285Y-151488640D02*
X38219047Y-151441021D01*
X38219047Y-151441021D02*
X37980952Y-151441021D01*
X37980952Y-151441021D02*
X37885714Y-151488640D01*
X37885714Y-151488640D02*
X37838095Y-151536259D01*
X37838095Y-151536259D02*
X37790476Y-151631497D01*
X37790476Y-151631497D02*
X37790476Y-151869592D01*
X37790476Y-151869592D02*
X37838095Y-151964830D01*
X37838095Y-151964830D02*
X37885714Y-152012450D01*
X37885714Y-152012450D02*
X37980952Y-152060069D01*
X37980952Y-152060069D02*
X38219047Y-152060069D01*
X38219047Y-152060069D02*
X38314285Y-152012450D01*
X38314285Y-152012450D02*
X38361904Y-151964830D01*
X37457142Y-151060069D02*
X36838095Y-151060069D01*
X36838095Y-151060069D02*
X37171428Y-151441021D01*
X37171428Y-151441021D02*
X37028571Y-151441021D01*
X37028571Y-151441021D02*
X36933333Y-151488640D01*
X36933333Y-151488640D02*
X36885714Y-151536259D01*
X36885714Y-151536259D02*
X36838095Y-151631497D01*
X36838095Y-151631497D02*
X36838095Y-151869592D01*
X36838095Y-151869592D02*
X36885714Y-151964830D01*
X36885714Y-151964830D02*
X36933333Y-152012450D01*
X36933333Y-152012450D02*
X37028571Y-152060069D01*
X37028571Y-152060069D02*
X37314285Y-152060069D01*
X37314285Y-152060069D02*
X37409523Y-152012450D01*
X37409523Y-152012450D02*
X37457142Y-151964830D01*
X140683035Y-94973569D02*
X140683035Y-93973569D01*
X140683035Y-93973569D02*
X140444940Y-93973569D01*
X140444940Y-93973569D02*
X140302083Y-94021188D01*
X140302083Y-94021188D02*
X140206845Y-94116426D01*
X140206845Y-94116426D02*
X140159226Y-94211664D01*
X140159226Y-94211664D02*
X140111607Y-94402140D01*
X140111607Y-94402140D02*
X140111607Y-94544997D01*
X140111607Y-94544997D02*
X140159226Y-94735473D01*
X140159226Y-94735473D02*
X140206845Y-94830711D01*
X140206845Y-94830711D02*
X140302083Y-94925950D01*
X140302083Y-94925950D02*
X140444940Y-94973569D01*
X140444940Y-94973569D02*
X140683035Y-94973569D01*
X139730654Y-94068807D02*
X139683035Y-94021188D01*
X139683035Y-94021188D02*
X139587797Y-93973569D01*
X139587797Y-93973569D02*
X139349702Y-93973569D01*
X139349702Y-93973569D02*
X139254464Y-94021188D01*
X139254464Y-94021188D02*
X139206845Y-94068807D01*
X139206845Y-94068807D02*
X139159226Y-94164045D01*
X139159226Y-94164045D02*
X139159226Y-94259283D01*
X139159226Y-94259283D02*
X139206845Y-94402140D01*
X139206845Y-94402140D02*
X139778273Y-94973569D01*
X139778273Y-94973569D02*
X139159226Y-94973569D01*
X138540178Y-93973569D02*
X138444940Y-93973569D01*
X138444940Y-93973569D02*
X138349702Y-94021188D01*
X138349702Y-94021188D02*
X138302083Y-94068807D01*
X138302083Y-94068807D02*
X138254464Y-94164045D01*
X138254464Y-94164045D02*
X138206845Y-94354521D01*
X138206845Y-94354521D02*
X138206845Y-94592616D01*
X138206845Y-94592616D02*
X138254464Y-94783092D01*
X138254464Y-94783092D02*
X138302083Y-94878330D01*
X138302083Y-94878330D02*
X138349702Y-94925950D01*
X138349702Y-94925950D02*
X138444940Y-94973569D01*
X138444940Y-94973569D02*
X138540178Y-94973569D01*
X138540178Y-94973569D02*
X138635416Y-94925950D01*
X138635416Y-94925950D02*
X138683035Y-94878330D01*
X138683035Y-94878330D02*
X138730654Y-94783092D01*
X138730654Y-94783092D02*
X138778273Y-94592616D01*
X138778273Y-94592616D02*
X138778273Y-94354521D01*
X138778273Y-94354521D02*
X138730654Y-94164045D01*
X138730654Y-94164045D02*
X138683035Y-94068807D01*
X138683035Y-94068807D02*
X138635416Y-94021188D01*
X138635416Y-94021188D02*
X138540178Y-93973569D01*
X137428571Y-133073569D02*
X137428571Y-132073569D01*
X137428571Y-132073569D02*
X137190476Y-132073569D01*
X137190476Y-132073569D02*
X137047619Y-132121188D01*
X137047619Y-132121188D02*
X136952381Y-132216426D01*
X136952381Y-132216426D02*
X136904762Y-132311664D01*
X136904762Y-132311664D02*
X136857143Y-132502140D01*
X136857143Y-132502140D02*
X136857143Y-132644997D01*
X136857143Y-132644997D02*
X136904762Y-132835473D01*
X136904762Y-132835473D02*
X136952381Y-132930711D01*
X136952381Y-132930711D02*
X137047619Y-133025950D01*
X137047619Y-133025950D02*
X137190476Y-133073569D01*
X137190476Y-133073569D02*
X137428571Y-133073569D01*
X136000000Y-132406902D02*
X136000000Y-133073569D01*
X136238095Y-132025950D02*
X136476190Y-132740235D01*
X136476190Y-132740235D02*
X135857143Y-132740235D01*
X135000000Y-132073569D02*
X135476190Y-132073569D01*
X135476190Y-132073569D02*
X135523809Y-132549759D01*
X135523809Y-132549759D02*
X135476190Y-132502140D01*
X135476190Y-132502140D02*
X135380952Y-132454521D01*
X135380952Y-132454521D02*
X135142857Y-132454521D01*
X135142857Y-132454521D02*
X135047619Y-132502140D01*
X135047619Y-132502140D02*
X135000000Y-132549759D01*
X135000000Y-132549759D02*
X134952381Y-132644997D01*
X134952381Y-132644997D02*
X134952381Y-132883092D01*
X134952381Y-132883092D02*
X135000000Y-132978330D01*
X135000000Y-132978330D02*
X135047619Y-133025950D01*
X135047619Y-133025950D02*
X135142857Y-133073569D01*
X135142857Y-133073569D02*
X135380952Y-133073569D01*
X135380952Y-133073569D02*
X135476190Y-133025950D01*
X135476190Y-133025950D02*
X135523809Y-132978330D01*
X184570535Y-152060069D02*
X184570535Y-151060069D01*
X184570535Y-151060069D02*
X184332440Y-151060069D01*
X184332440Y-151060069D02*
X184189583Y-151107688D01*
X184189583Y-151107688D02*
X184094345Y-151202926D01*
X184094345Y-151202926D02*
X184046726Y-151298164D01*
X184046726Y-151298164D02*
X183999107Y-151488640D01*
X183999107Y-151488640D02*
X183999107Y-151631497D01*
X183999107Y-151631497D02*
X184046726Y-151821973D01*
X184046726Y-151821973D02*
X184094345Y-151917211D01*
X184094345Y-151917211D02*
X184189583Y-152012450D01*
X184189583Y-152012450D02*
X184332440Y-152060069D01*
X184332440Y-152060069D02*
X184570535Y-152060069D01*
X183141964Y-151060069D02*
X183332440Y-151060069D01*
X183332440Y-151060069D02*
X183427678Y-151107688D01*
X183427678Y-151107688D02*
X183475297Y-151155307D01*
X183475297Y-151155307D02*
X183570535Y-151298164D01*
X183570535Y-151298164D02*
X183618154Y-151488640D01*
X183618154Y-151488640D02*
X183618154Y-151869592D01*
X183618154Y-151869592D02*
X183570535Y-151964830D01*
X183570535Y-151964830D02*
X183522916Y-152012450D01*
X183522916Y-152012450D02*
X183427678Y-152060069D01*
X183427678Y-152060069D02*
X183237202Y-152060069D01*
X183237202Y-152060069D02*
X183141964Y-152012450D01*
X183141964Y-152012450D02*
X183094345Y-151964830D01*
X183094345Y-151964830D02*
X183046726Y-151869592D01*
X183046726Y-151869592D02*
X183046726Y-151631497D01*
X183046726Y-151631497D02*
X183094345Y-151536259D01*
X183094345Y-151536259D02*
X183141964Y-151488640D01*
X183141964Y-151488640D02*
X183237202Y-151441021D01*
X183237202Y-151441021D02*
X183427678Y-151441021D01*
X183427678Y-151441021D02*
X183522916Y-151488640D01*
X183522916Y-151488640D02*
X183570535Y-151536259D01*
X183570535Y-151536259D02*
X183618154Y-151631497D01*
X182427678Y-151060069D02*
X182332440Y-151060069D01*
X182332440Y-151060069D02*
X182237202Y-151107688D01*
X182237202Y-151107688D02*
X182189583Y-151155307D01*
X182189583Y-151155307D02*
X182141964Y-151250545D01*
X182141964Y-151250545D02*
X182094345Y-151441021D01*
X182094345Y-151441021D02*
X182094345Y-151679116D01*
X182094345Y-151679116D02*
X182141964Y-151869592D01*
X182141964Y-151869592D02*
X182189583Y-151964830D01*
X182189583Y-151964830D02*
X182237202Y-152012450D01*
X182237202Y-152012450D02*
X182332440Y-152060069D01*
X182332440Y-152060069D02*
X182427678Y-152060069D01*
X182427678Y-152060069D02*
X182522916Y-152012450D01*
X182522916Y-152012450D02*
X182570535Y-151964830D01*
X182570535Y-151964830D02*
X182618154Y-151869592D01*
X182618154Y-151869592D02*
X182665773Y-151679116D01*
X182665773Y-151679116D02*
X182665773Y-151441021D01*
X182665773Y-151441021D02*
X182618154Y-151250545D01*
X182618154Y-151250545D02*
X182570535Y-151155307D01*
X182570535Y-151155307D02*
X182522916Y-151107688D01*
X182522916Y-151107688D02*
X182427678Y-151060069D01*
X79253571Y-133073569D02*
X79253571Y-132073569D01*
X79253571Y-132073569D02*
X79015476Y-132073569D01*
X79015476Y-132073569D02*
X78872619Y-132121188D01*
X78872619Y-132121188D02*
X78777381Y-132216426D01*
X78777381Y-132216426D02*
X78729762Y-132311664D01*
X78729762Y-132311664D02*
X78682143Y-132502140D01*
X78682143Y-132502140D02*
X78682143Y-132644997D01*
X78682143Y-132644997D02*
X78729762Y-132835473D01*
X78729762Y-132835473D02*
X78777381Y-132930711D01*
X78777381Y-132930711D02*
X78872619Y-133025950D01*
X78872619Y-133025950D02*
X79015476Y-133073569D01*
X79015476Y-133073569D02*
X79253571Y-133073569D01*
X77825000Y-132406902D02*
X77825000Y-133073569D01*
X78063095Y-132025950D02*
X78301190Y-132740235D01*
X78301190Y-132740235D02*
X77682143Y-132740235D01*
X77348809Y-132168807D02*
X77301190Y-132121188D01*
X77301190Y-132121188D02*
X77205952Y-132073569D01*
X77205952Y-132073569D02*
X76967857Y-132073569D01*
X76967857Y-132073569D02*
X76872619Y-132121188D01*
X76872619Y-132121188D02*
X76825000Y-132168807D01*
X76825000Y-132168807D02*
X76777381Y-132264045D01*
X76777381Y-132264045D02*
X76777381Y-132359283D01*
X76777381Y-132359283D02*
X76825000Y-132502140D01*
X76825000Y-132502140D02*
X77396428Y-133073569D01*
X77396428Y-133073569D02*
X76777381Y-133073569D01*
X245458035Y-114023569D02*
X245458035Y-113023569D01*
X245458035Y-113023569D02*
X245219940Y-113023569D01*
X245219940Y-113023569D02*
X245077083Y-113071188D01*
X245077083Y-113071188D02*
X244981845Y-113166426D01*
X244981845Y-113166426D02*
X244934226Y-113261664D01*
X244934226Y-113261664D02*
X244886607Y-113452140D01*
X244886607Y-113452140D02*
X244886607Y-113594997D01*
X244886607Y-113594997D02*
X244934226Y-113785473D01*
X244934226Y-113785473D02*
X244981845Y-113880711D01*
X244981845Y-113880711D02*
X245077083Y-113975950D01*
X245077083Y-113975950D02*
X245219940Y-114023569D01*
X245219940Y-114023569D02*
X245458035Y-114023569D01*
X244553273Y-113023569D02*
X243934226Y-113023569D01*
X243934226Y-113023569D02*
X244267559Y-113404521D01*
X244267559Y-113404521D02*
X244124702Y-113404521D01*
X244124702Y-113404521D02*
X244029464Y-113452140D01*
X244029464Y-113452140D02*
X243981845Y-113499759D01*
X243981845Y-113499759D02*
X243934226Y-113594997D01*
X243934226Y-113594997D02*
X243934226Y-113833092D01*
X243934226Y-113833092D02*
X243981845Y-113928330D01*
X243981845Y-113928330D02*
X244029464Y-113975950D01*
X244029464Y-113975950D02*
X244124702Y-114023569D01*
X244124702Y-114023569D02*
X244410416Y-114023569D01*
X244410416Y-114023569D02*
X244505654Y-113975950D01*
X244505654Y-113975950D02*
X244553273Y-113928330D01*
X243362797Y-113452140D02*
X243458035Y-113404521D01*
X243458035Y-113404521D02*
X243505654Y-113356902D01*
X243505654Y-113356902D02*
X243553273Y-113261664D01*
X243553273Y-113261664D02*
X243553273Y-113214045D01*
X243553273Y-113214045D02*
X243505654Y-113118807D01*
X243505654Y-113118807D02*
X243458035Y-113071188D01*
X243458035Y-113071188D02*
X243362797Y-113023569D01*
X243362797Y-113023569D02*
X243172321Y-113023569D01*
X243172321Y-113023569D02*
X243077083Y-113071188D01*
X243077083Y-113071188D02*
X243029464Y-113118807D01*
X243029464Y-113118807D02*
X242981845Y-113214045D01*
X242981845Y-113214045D02*
X242981845Y-113261664D01*
X242981845Y-113261664D02*
X243029464Y-113356902D01*
X243029464Y-113356902D02*
X243077083Y-113404521D01*
X243077083Y-113404521D02*
X243172321Y-113452140D01*
X243172321Y-113452140D02*
X243362797Y-113452140D01*
X243362797Y-113452140D02*
X243458035Y-113499759D01*
X243458035Y-113499759D02*
X243505654Y-113547378D01*
X243505654Y-113547378D02*
X243553273Y-113642616D01*
X243553273Y-113642616D02*
X243553273Y-113833092D01*
X243553273Y-113833092D02*
X243505654Y-113928330D01*
X243505654Y-113928330D02*
X243458035Y-113975950D01*
X243458035Y-113975950D02*
X243362797Y-114023569D01*
X243362797Y-114023569D02*
X243172321Y-114023569D01*
X243172321Y-114023569D02*
X243077083Y-113975950D01*
X243077083Y-113975950D02*
X243029464Y-113928330D01*
X243029464Y-113928330D02*
X242981845Y-113833092D01*
X242981845Y-113833092D02*
X242981845Y-113642616D01*
X242981845Y-113642616D02*
X243029464Y-113547378D01*
X243029464Y-113547378D02*
X243077083Y-113499759D01*
X243077083Y-113499759D02*
X243172321Y-113452140D01*
X214191071Y-133073569D02*
X214191071Y-132073569D01*
X214191071Y-132073569D02*
X213952976Y-132073569D01*
X213952976Y-132073569D02*
X213810119Y-132121188D01*
X213810119Y-132121188D02*
X213714881Y-132216426D01*
X213714881Y-132216426D02*
X213667262Y-132311664D01*
X213667262Y-132311664D02*
X213619643Y-132502140D01*
X213619643Y-132502140D02*
X213619643Y-132644997D01*
X213619643Y-132644997D02*
X213667262Y-132835473D01*
X213667262Y-132835473D02*
X213714881Y-132930711D01*
X213714881Y-132930711D02*
X213810119Y-133025950D01*
X213810119Y-133025950D02*
X213952976Y-133073569D01*
X213952976Y-133073569D02*
X214191071Y-133073569D01*
X212762500Y-132406902D02*
X212762500Y-133073569D01*
X213000595Y-132025950D02*
X213238690Y-132740235D01*
X213238690Y-132740235D02*
X212619643Y-132740235D01*
X212191071Y-133073569D02*
X212000595Y-133073569D01*
X212000595Y-133073569D02*
X211905357Y-133025950D01*
X211905357Y-133025950D02*
X211857738Y-132978330D01*
X211857738Y-132978330D02*
X211762500Y-132835473D01*
X211762500Y-132835473D02*
X211714881Y-132644997D01*
X211714881Y-132644997D02*
X211714881Y-132264045D01*
X211714881Y-132264045D02*
X211762500Y-132168807D01*
X211762500Y-132168807D02*
X211810119Y-132121188D01*
X211810119Y-132121188D02*
X211905357Y-132073569D01*
X211905357Y-132073569D02*
X212095833Y-132073569D01*
X212095833Y-132073569D02*
X212191071Y-132121188D01*
X212191071Y-132121188D02*
X212238690Y-132168807D01*
X212238690Y-132168807D02*
X212286309Y-132264045D01*
X212286309Y-132264045D02*
X212286309Y-132502140D01*
X212286309Y-132502140D02*
X212238690Y-132597378D01*
X212238690Y-132597378D02*
X212191071Y-132644997D01*
X212191071Y-132644997D02*
X212095833Y-132692616D01*
X212095833Y-132692616D02*
X211905357Y-132692616D01*
X211905357Y-132692616D02*
X211810119Y-132644997D01*
X211810119Y-132644997D02*
X211762500Y-132597378D01*
X211762500Y-132597378D02*
X211714881Y-132502140D01*
X56863094Y-68779819D02*
X56863094Y-67779819D01*
X56863094Y-67779819D02*
X56624999Y-67779819D01*
X56624999Y-67779819D02*
X56482142Y-67827438D01*
X56482142Y-67827438D02*
X56386904Y-67922676D01*
X56386904Y-67922676D02*
X56339285Y-68017914D01*
X56339285Y-68017914D02*
X56291666Y-68208390D01*
X56291666Y-68208390D02*
X56291666Y-68351247D01*
X56291666Y-68351247D02*
X56339285Y-68541723D01*
X56339285Y-68541723D02*
X56386904Y-68636961D01*
X56386904Y-68636961D02*
X56482142Y-68732200D01*
X56482142Y-68732200D02*
X56624999Y-68779819D01*
X56624999Y-68779819D02*
X56863094Y-68779819D01*
X55910713Y-67875057D02*
X55863094Y-67827438D01*
X55863094Y-67827438D02*
X55767856Y-67779819D01*
X55767856Y-67779819D02*
X55529761Y-67779819D01*
X55529761Y-67779819D02*
X55434523Y-67827438D01*
X55434523Y-67827438D02*
X55386904Y-67875057D01*
X55386904Y-67875057D02*
X55339285Y-67970295D01*
X55339285Y-67970295D02*
X55339285Y-68065533D01*
X55339285Y-68065533D02*
X55386904Y-68208390D01*
X55386904Y-68208390D02*
X55958332Y-68779819D01*
X55958332Y-68779819D02*
X55339285Y-68779819D01*
X165520535Y-152060069D02*
X165520535Y-151060069D01*
X165520535Y-151060069D02*
X165282440Y-151060069D01*
X165282440Y-151060069D02*
X165139583Y-151107688D01*
X165139583Y-151107688D02*
X165044345Y-151202926D01*
X165044345Y-151202926D02*
X164996726Y-151298164D01*
X164996726Y-151298164D02*
X164949107Y-151488640D01*
X164949107Y-151488640D02*
X164949107Y-151631497D01*
X164949107Y-151631497D02*
X164996726Y-151821973D01*
X164996726Y-151821973D02*
X165044345Y-151917211D01*
X165044345Y-151917211D02*
X165139583Y-152012450D01*
X165139583Y-152012450D02*
X165282440Y-152060069D01*
X165282440Y-152060069D02*
X165520535Y-152060069D01*
X164044345Y-151060069D02*
X164520535Y-151060069D01*
X164520535Y-151060069D02*
X164568154Y-151536259D01*
X164568154Y-151536259D02*
X164520535Y-151488640D01*
X164520535Y-151488640D02*
X164425297Y-151441021D01*
X164425297Y-151441021D02*
X164187202Y-151441021D01*
X164187202Y-151441021D02*
X164091964Y-151488640D01*
X164091964Y-151488640D02*
X164044345Y-151536259D01*
X164044345Y-151536259D02*
X163996726Y-151631497D01*
X163996726Y-151631497D02*
X163996726Y-151869592D01*
X163996726Y-151869592D02*
X164044345Y-151964830D01*
X164044345Y-151964830D02*
X164091964Y-152012450D01*
X164091964Y-152012450D02*
X164187202Y-152060069D01*
X164187202Y-152060069D02*
X164425297Y-152060069D01*
X164425297Y-152060069D02*
X164520535Y-152012450D01*
X164520535Y-152012450D02*
X164568154Y-151964830D01*
X163520535Y-152060069D02*
X163330059Y-152060069D01*
X163330059Y-152060069D02*
X163234821Y-152012450D01*
X163234821Y-152012450D02*
X163187202Y-151964830D01*
X163187202Y-151964830D02*
X163091964Y-151821973D01*
X163091964Y-151821973D02*
X163044345Y-151631497D01*
X163044345Y-151631497D02*
X163044345Y-151250545D01*
X163044345Y-151250545D02*
X163091964Y-151155307D01*
X163091964Y-151155307D02*
X163139583Y-151107688D01*
X163139583Y-151107688D02*
X163234821Y-151060069D01*
X163234821Y-151060069D02*
X163425297Y-151060069D01*
X163425297Y-151060069D02*
X163520535Y-151107688D01*
X163520535Y-151107688D02*
X163568154Y-151155307D01*
X163568154Y-151155307D02*
X163615773Y-151250545D01*
X163615773Y-151250545D02*
X163615773Y-151488640D01*
X163615773Y-151488640D02*
X163568154Y-151583878D01*
X163568154Y-151583878D02*
X163520535Y-151631497D01*
X163520535Y-151631497D02*
X163425297Y-151679116D01*
X163425297Y-151679116D02*
X163234821Y-151679116D01*
X163234821Y-151679116D02*
X163139583Y-151631497D01*
X163139583Y-151631497D02*
X163091964Y-151583878D01*
X163091964Y-151583878D02*
X163044345Y-151488640D01*
X362415535Y-170379819D02*
X362415535Y-169379819D01*
X362415535Y-169379819D02*
X362177440Y-169379819D01*
X362177440Y-169379819D02*
X362034583Y-169427438D01*
X362034583Y-169427438D02*
X361939345Y-169522676D01*
X361939345Y-169522676D02*
X361891726Y-169617914D01*
X361891726Y-169617914D02*
X361844107Y-169808390D01*
X361844107Y-169808390D02*
X361844107Y-169951247D01*
X361844107Y-169951247D02*
X361891726Y-170141723D01*
X361891726Y-170141723D02*
X361939345Y-170236961D01*
X361939345Y-170236961D02*
X362034583Y-170332200D01*
X362034583Y-170332200D02*
X362177440Y-170379819D01*
X362177440Y-170379819D02*
X362415535Y-170379819D01*
X361510773Y-169379819D02*
X360844107Y-169379819D01*
X360844107Y-169379819D02*
X361272678Y-170379819D01*
X360034583Y-169713152D02*
X360034583Y-170379819D01*
X360272678Y-169332200D02*
X360510773Y-170046485D01*
X360510773Y-170046485D02*
X359891726Y-170046485D01*
X205294344Y-68779819D02*
X205294344Y-67779819D01*
X205294344Y-67779819D02*
X205056249Y-67779819D01*
X205056249Y-67779819D02*
X204913392Y-67827438D01*
X204913392Y-67827438D02*
X204818154Y-67922676D01*
X204818154Y-67922676D02*
X204770535Y-68017914D01*
X204770535Y-68017914D02*
X204722916Y-68208390D01*
X204722916Y-68208390D02*
X204722916Y-68351247D01*
X204722916Y-68351247D02*
X204770535Y-68541723D01*
X204770535Y-68541723D02*
X204818154Y-68636961D01*
X204818154Y-68636961D02*
X204913392Y-68732200D01*
X204913392Y-68732200D02*
X205056249Y-68779819D01*
X205056249Y-68779819D02*
X205294344Y-68779819D01*
X204246725Y-68779819D02*
X204056249Y-68779819D01*
X204056249Y-68779819D02*
X203961011Y-68732200D01*
X203961011Y-68732200D02*
X203913392Y-68684580D01*
X203913392Y-68684580D02*
X203818154Y-68541723D01*
X203818154Y-68541723D02*
X203770535Y-68351247D01*
X203770535Y-68351247D02*
X203770535Y-67970295D01*
X203770535Y-67970295D02*
X203818154Y-67875057D01*
X203818154Y-67875057D02*
X203865773Y-67827438D01*
X203865773Y-67827438D02*
X203961011Y-67779819D01*
X203961011Y-67779819D02*
X204151487Y-67779819D01*
X204151487Y-67779819D02*
X204246725Y-67827438D01*
X204246725Y-67827438D02*
X204294344Y-67875057D01*
X204294344Y-67875057D02*
X204341963Y-67970295D01*
X204341963Y-67970295D02*
X204341963Y-68208390D01*
X204341963Y-68208390D02*
X204294344Y-68303628D01*
X204294344Y-68303628D02*
X204246725Y-68351247D01*
X204246725Y-68351247D02*
X204151487Y-68398866D01*
X204151487Y-68398866D02*
X203961011Y-68398866D01*
X203961011Y-68398866D02*
X203865773Y-68351247D01*
X203865773Y-68351247D02*
X203818154Y-68303628D01*
X203818154Y-68303628D02*
X203770535Y-68208390D01*
X268476785Y-171173569D02*
X268476785Y-170173569D01*
X268476785Y-170173569D02*
X268238690Y-170173569D01*
X268238690Y-170173569D02*
X268095833Y-170221188D01*
X268095833Y-170221188D02*
X268000595Y-170316426D01*
X268000595Y-170316426D02*
X267952976Y-170411664D01*
X267952976Y-170411664D02*
X267905357Y-170602140D01*
X267905357Y-170602140D02*
X267905357Y-170744997D01*
X267905357Y-170744997D02*
X267952976Y-170935473D01*
X267952976Y-170935473D02*
X268000595Y-171030711D01*
X268000595Y-171030711D02*
X268095833Y-171125950D01*
X268095833Y-171125950D02*
X268238690Y-171173569D01*
X268238690Y-171173569D02*
X268476785Y-171173569D01*
X267333928Y-170602140D02*
X267429166Y-170554521D01*
X267429166Y-170554521D02*
X267476785Y-170506902D01*
X267476785Y-170506902D02*
X267524404Y-170411664D01*
X267524404Y-170411664D02*
X267524404Y-170364045D01*
X267524404Y-170364045D02*
X267476785Y-170268807D01*
X267476785Y-170268807D02*
X267429166Y-170221188D01*
X267429166Y-170221188D02*
X267333928Y-170173569D01*
X267333928Y-170173569D02*
X267143452Y-170173569D01*
X267143452Y-170173569D02*
X267048214Y-170221188D01*
X267048214Y-170221188D02*
X267000595Y-170268807D01*
X267000595Y-170268807D02*
X266952976Y-170364045D01*
X266952976Y-170364045D02*
X266952976Y-170411664D01*
X266952976Y-170411664D02*
X267000595Y-170506902D01*
X267000595Y-170506902D02*
X267048214Y-170554521D01*
X267048214Y-170554521D02*
X267143452Y-170602140D01*
X267143452Y-170602140D02*
X267333928Y-170602140D01*
X267333928Y-170602140D02*
X267429166Y-170649759D01*
X267429166Y-170649759D02*
X267476785Y-170697378D01*
X267476785Y-170697378D02*
X267524404Y-170792616D01*
X267524404Y-170792616D02*
X267524404Y-170983092D01*
X267524404Y-170983092D02*
X267476785Y-171078330D01*
X267476785Y-171078330D02*
X267429166Y-171125950D01*
X267429166Y-171125950D02*
X267333928Y-171173569D01*
X267333928Y-171173569D02*
X267143452Y-171173569D01*
X267143452Y-171173569D02*
X267048214Y-171125950D01*
X267048214Y-171125950D02*
X267000595Y-171078330D01*
X267000595Y-171078330D02*
X266952976Y-170983092D01*
X266952976Y-170983092D02*
X266952976Y-170792616D01*
X266952976Y-170792616D02*
X267000595Y-170697378D01*
X267000595Y-170697378D02*
X267048214Y-170649759D01*
X267048214Y-170649759D02*
X267143452Y-170602140D01*
X266572023Y-170268807D02*
X266524404Y-170221188D01*
X266524404Y-170221188D02*
X266429166Y-170173569D01*
X266429166Y-170173569D02*
X266191071Y-170173569D01*
X266191071Y-170173569D02*
X266095833Y-170221188D01*
X266095833Y-170221188D02*
X266048214Y-170268807D01*
X266048214Y-170268807D02*
X266000595Y-170364045D01*
X266000595Y-170364045D02*
X266000595Y-170459283D01*
X266000595Y-170459283D02*
X266048214Y-170602140D01*
X266048214Y-170602140D02*
X266619642Y-171173569D01*
X266619642Y-171173569D02*
X266000595Y-171173569D01*
X232678571Y-133073569D02*
X232678571Y-132073569D01*
X232678571Y-132073569D02*
X232440476Y-132073569D01*
X232440476Y-132073569D02*
X232297619Y-132121188D01*
X232297619Y-132121188D02*
X232202381Y-132216426D01*
X232202381Y-132216426D02*
X232154762Y-132311664D01*
X232154762Y-132311664D02*
X232107143Y-132502140D01*
X232107143Y-132502140D02*
X232107143Y-132644997D01*
X232107143Y-132644997D02*
X232154762Y-132835473D01*
X232154762Y-132835473D02*
X232202381Y-132930711D01*
X232202381Y-132930711D02*
X232297619Y-133025950D01*
X232297619Y-133025950D02*
X232440476Y-133073569D01*
X232440476Y-133073569D02*
X232678571Y-133073569D01*
X231202381Y-132073569D02*
X231678571Y-132073569D01*
X231678571Y-132073569D02*
X231726190Y-132549759D01*
X231726190Y-132549759D02*
X231678571Y-132502140D01*
X231678571Y-132502140D02*
X231583333Y-132454521D01*
X231583333Y-132454521D02*
X231345238Y-132454521D01*
X231345238Y-132454521D02*
X231250000Y-132502140D01*
X231250000Y-132502140D02*
X231202381Y-132549759D01*
X231202381Y-132549759D02*
X231154762Y-132644997D01*
X231154762Y-132644997D02*
X231154762Y-132883092D01*
X231154762Y-132883092D02*
X231202381Y-132978330D01*
X231202381Y-132978330D02*
X231250000Y-133025950D01*
X231250000Y-133025950D02*
X231345238Y-133073569D01*
X231345238Y-133073569D02*
X231583333Y-133073569D01*
X231583333Y-133073569D02*
X231678571Y-133025950D01*
X231678571Y-133025950D02*
X231726190Y-132978330D01*
X230535714Y-132073569D02*
X230440476Y-132073569D01*
X230440476Y-132073569D02*
X230345238Y-132121188D01*
X230345238Y-132121188D02*
X230297619Y-132168807D01*
X230297619Y-132168807D02*
X230250000Y-132264045D01*
X230250000Y-132264045D02*
X230202381Y-132454521D01*
X230202381Y-132454521D02*
X230202381Y-132692616D01*
X230202381Y-132692616D02*
X230250000Y-132883092D01*
X230250000Y-132883092D02*
X230297619Y-132978330D01*
X230297619Y-132978330D02*
X230345238Y-133025950D01*
X230345238Y-133025950D02*
X230440476Y-133073569D01*
X230440476Y-133073569D02*
X230535714Y-133073569D01*
X230535714Y-133073569D02*
X230630952Y-133025950D01*
X230630952Y-133025950D02*
X230678571Y-132978330D01*
X230678571Y-132978330D02*
X230726190Y-132883092D01*
X230726190Y-132883092D02*
X230773809Y-132692616D01*
X230773809Y-132692616D02*
X230773809Y-132454521D01*
X230773809Y-132454521D02*
X230726190Y-132264045D01*
X230726190Y-132264045D02*
X230678571Y-132168807D01*
X230678571Y-132168807D02*
X230630952Y-132121188D01*
X230630952Y-132121188D02*
X230535714Y-132073569D01*
X175528571Y-133073569D02*
X175528571Y-132073569D01*
X175528571Y-132073569D02*
X175290476Y-132073569D01*
X175290476Y-132073569D02*
X175147619Y-132121188D01*
X175147619Y-132121188D02*
X175052381Y-132216426D01*
X175052381Y-132216426D02*
X175004762Y-132311664D01*
X175004762Y-132311664D02*
X174957143Y-132502140D01*
X174957143Y-132502140D02*
X174957143Y-132644997D01*
X174957143Y-132644997D02*
X175004762Y-132835473D01*
X175004762Y-132835473D02*
X175052381Y-132930711D01*
X175052381Y-132930711D02*
X175147619Y-133025950D01*
X175147619Y-133025950D02*
X175290476Y-133073569D01*
X175290476Y-133073569D02*
X175528571Y-133073569D01*
X174100000Y-132406902D02*
X174100000Y-133073569D01*
X174338095Y-132025950D02*
X174576190Y-132740235D01*
X174576190Y-132740235D02*
X173957143Y-132740235D01*
X173671428Y-132073569D02*
X173004762Y-132073569D01*
X173004762Y-132073569D02*
X173433333Y-133073569D01*
X93715535Y-114217319D02*
X93715535Y-113217319D01*
X93715535Y-113217319D02*
X93477440Y-113217319D01*
X93477440Y-113217319D02*
X93334583Y-113264938D01*
X93334583Y-113264938D02*
X93239345Y-113360176D01*
X93239345Y-113360176D02*
X93191726Y-113455414D01*
X93191726Y-113455414D02*
X93144107Y-113645890D01*
X93144107Y-113645890D02*
X93144107Y-113788747D01*
X93144107Y-113788747D02*
X93191726Y-113979223D01*
X93191726Y-113979223D02*
X93239345Y-114074461D01*
X93239345Y-114074461D02*
X93334583Y-114169700D01*
X93334583Y-114169700D02*
X93477440Y-114217319D01*
X93477440Y-114217319D02*
X93715535Y-114217319D01*
X92810773Y-113217319D02*
X92191726Y-113217319D01*
X92191726Y-113217319D02*
X92525059Y-113598271D01*
X92525059Y-113598271D02*
X92382202Y-113598271D01*
X92382202Y-113598271D02*
X92286964Y-113645890D01*
X92286964Y-113645890D02*
X92239345Y-113693509D01*
X92239345Y-113693509D02*
X92191726Y-113788747D01*
X92191726Y-113788747D02*
X92191726Y-114026842D01*
X92191726Y-114026842D02*
X92239345Y-114122080D01*
X92239345Y-114122080D02*
X92286964Y-114169700D01*
X92286964Y-114169700D02*
X92382202Y-114217319D01*
X92382202Y-114217319D02*
X92667916Y-114217319D01*
X92667916Y-114217319D02*
X92763154Y-114169700D01*
X92763154Y-114169700D02*
X92810773Y-114122080D01*
X91572678Y-113217319D02*
X91477440Y-113217319D01*
X91477440Y-113217319D02*
X91382202Y-113264938D01*
X91382202Y-113264938D02*
X91334583Y-113312557D01*
X91334583Y-113312557D02*
X91286964Y-113407795D01*
X91286964Y-113407795D02*
X91239345Y-113598271D01*
X91239345Y-113598271D02*
X91239345Y-113836366D01*
X91239345Y-113836366D02*
X91286964Y-114026842D01*
X91286964Y-114026842D02*
X91334583Y-114122080D01*
X91334583Y-114122080D02*
X91382202Y-114169700D01*
X91382202Y-114169700D02*
X91477440Y-114217319D01*
X91477440Y-114217319D02*
X91572678Y-114217319D01*
X91572678Y-114217319D02*
X91667916Y-114169700D01*
X91667916Y-114169700D02*
X91715535Y-114122080D01*
X91715535Y-114122080D02*
X91763154Y-114026842D01*
X91763154Y-114026842D02*
X91810773Y-113836366D01*
X91810773Y-113836366D02*
X91810773Y-113598271D01*
X91810773Y-113598271D02*
X91763154Y-113407795D01*
X91763154Y-113407795D02*
X91715535Y-113312557D01*
X91715535Y-113312557D02*
X91667916Y-113264938D01*
X91667916Y-113264938D02*
X91572678Y-113217319D01*
X150770535Y-114023569D02*
X150770535Y-113023569D01*
X150770535Y-113023569D02*
X150532440Y-113023569D01*
X150532440Y-113023569D02*
X150389583Y-113071188D01*
X150389583Y-113071188D02*
X150294345Y-113166426D01*
X150294345Y-113166426D02*
X150246726Y-113261664D01*
X150246726Y-113261664D02*
X150199107Y-113452140D01*
X150199107Y-113452140D02*
X150199107Y-113594997D01*
X150199107Y-113594997D02*
X150246726Y-113785473D01*
X150246726Y-113785473D02*
X150294345Y-113880711D01*
X150294345Y-113880711D02*
X150389583Y-113975950D01*
X150389583Y-113975950D02*
X150532440Y-114023569D01*
X150532440Y-114023569D02*
X150770535Y-114023569D01*
X149865773Y-113023569D02*
X149246726Y-113023569D01*
X149246726Y-113023569D02*
X149580059Y-113404521D01*
X149580059Y-113404521D02*
X149437202Y-113404521D01*
X149437202Y-113404521D02*
X149341964Y-113452140D01*
X149341964Y-113452140D02*
X149294345Y-113499759D01*
X149294345Y-113499759D02*
X149246726Y-113594997D01*
X149246726Y-113594997D02*
X149246726Y-113833092D01*
X149246726Y-113833092D02*
X149294345Y-113928330D01*
X149294345Y-113928330D02*
X149341964Y-113975950D01*
X149341964Y-113975950D02*
X149437202Y-114023569D01*
X149437202Y-114023569D02*
X149722916Y-114023569D01*
X149722916Y-114023569D02*
X149818154Y-113975950D01*
X149818154Y-113975950D02*
X149865773Y-113928330D01*
X148913392Y-113023569D02*
X148294345Y-113023569D01*
X148294345Y-113023569D02*
X148627678Y-113404521D01*
X148627678Y-113404521D02*
X148484821Y-113404521D01*
X148484821Y-113404521D02*
X148389583Y-113452140D01*
X148389583Y-113452140D02*
X148341964Y-113499759D01*
X148341964Y-113499759D02*
X148294345Y-113594997D01*
X148294345Y-113594997D02*
X148294345Y-113833092D01*
X148294345Y-113833092D02*
X148341964Y-113928330D01*
X148341964Y-113928330D02*
X148389583Y-113975950D01*
X148389583Y-113975950D02*
X148484821Y-114023569D01*
X148484821Y-114023569D02*
X148770535Y-114023569D01*
X148770535Y-114023569D02*
X148865773Y-113975950D01*
X148865773Y-113975950D02*
X148913392Y-113928330D01*
X235933035Y-94973569D02*
X235933035Y-93973569D01*
X235933035Y-93973569D02*
X235694940Y-93973569D01*
X235694940Y-93973569D02*
X235552083Y-94021188D01*
X235552083Y-94021188D02*
X235456845Y-94116426D01*
X235456845Y-94116426D02*
X235409226Y-94211664D01*
X235409226Y-94211664D02*
X235361607Y-94402140D01*
X235361607Y-94402140D02*
X235361607Y-94544997D01*
X235361607Y-94544997D02*
X235409226Y-94735473D01*
X235409226Y-94735473D02*
X235456845Y-94830711D01*
X235456845Y-94830711D02*
X235552083Y-94925950D01*
X235552083Y-94925950D02*
X235694940Y-94973569D01*
X235694940Y-94973569D02*
X235933035Y-94973569D01*
X234980654Y-94068807D02*
X234933035Y-94021188D01*
X234933035Y-94021188D02*
X234837797Y-93973569D01*
X234837797Y-93973569D02*
X234599702Y-93973569D01*
X234599702Y-93973569D02*
X234504464Y-94021188D01*
X234504464Y-94021188D02*
X234456845Y-94068807D01*
X234456845Y-94068807D02*
X234409226Y-94164045D01*
X234409226Y-94164045D02*
X234409226Y-94259283D01*
X234409226Y-94259283D02*
X234456845Y-94402140D01*
X234456845Y-94402140D02*
X235028273Y-94973569D01*
X235028273Y-94973569D02*
X234409226Y-94973569D01*
X233504464Y-93973569D02*
X233980654Y-93973569D01*
X233980654Y-93973569D02*
X234028273Y-94449759D01*
X234028273Y-94449759D02*
X233980654Y-94402140D01*
X233980654Y-94402140D02*
X233885416Y-94354521D01*
X233885416Y-94354521D02*
X233647321Y-94354521D01*
X233647321Y-94354521D02*
X233552083Y-94402140D01*
X233552083Y-94402140D02*
X233504464Y-94449759D01*
X233504464Y-94449759D02*
X233456845Y-94544997D01*
X233456845Y-94544997D02*
X233456845Y-94783092D01*
X233456845Y-94783092D02*
X233504464Y-94878330D01*
X233504464Y-94878330D02*
X233552083Y-94925950D01*
X233552083Y-94925950D02*
X233647321Y-94973569D01*
X233647321Y-94973569D02*
X233885416Y-94973569D01*
X233885416Y-94973569D02*
X233980654Y-94925950D01*
X233980654Y-94925950D02*
X234028273Y-94878330D01*
X63689285Y-94973569D02*
X63689285Y-93973569D01*
X63689285Y-93973569D02*
X63451190Y-93973569D01*
X63451190Y-93973569D02*
X63308333Y-94021188D01*
X63308333Y-94021188D02*
X63213095Y-94116426D01*
X63213095Y-94116426D02*
X63165476Y-94211664D01*
X63165476Y-94211664D02*
X63117857Y-94402140D01*
X63117857Y-94402140D02*
X63117857Y-94544997D01*
X63117857Y-94544997D02*
X63165476Y-94735473D01*
X63165476Y-94735473D02*
X63213095Y-94830711D01*
X63213095Y-94830711D02*
X63308333Y-94925950D01*
X63308333Y-94925950D02*
X63451190Y-94973569D01*
X63451190Y-94973569D02*
X63689285Y-94973569D01*
X62165476Y-94973569D02*
X62736904Y-94973569D01*
X62451190Y-94973569D02*
X62451190Y-93973569D01*
X62451190Y-93973569D02*
X62546428Y-94116426D01*
X62546428Y-94116426D02*
X62641666Y-94211664D01*
X62641666Y-94211664D02*
X62736904Y-94259283D01*
X61308333Y-93973569D02*
X61498809Y-93973569D01*
X61498809Y-93973569D02*
X61594047Y-94021188D01*
X61594047Y-94021188D02*
X61641666Y-94068807D01*
X61641666Y-94068807D02*
X61736904Y-94211664D01*
X61736904Y-94211664D02*
X61784523Y-94402140D01*
X61784523Y-94402140D02*
X61784523Y-94783092D01*
X61784523Y-94783092D02*
X61736904Y-94878330D01*
X61736904Y-94878330D02*
X61689285Y-94925950D01*
X61689285Y-94925950D02*
X61594047Y-94973569D01*
X61594047Y-94973569D02*
X61403571Y-94973569D01*
X61403571Y-94973569D02*
X61308333Y-94925950D01*
X61308333Y-94925950D02*
X61260714Y-94878330D01*
X61260714Y-94878330D02*
X61213095Y-94783092D01*
X61213095Y-94783092D02*
X61213095Y-94544997D01*
X61213095Y-94544997D02*
X61260714Y-94449759D01*
X61260714Y-94449759D02*
X61308333Y-94402140D01*
X61308333Y-94402140D02*
X61403571Y-94354521D01*
X61403571Y-94354521D02*
X61594047Y-94354521D01*
X61594047Y-94354521D02*
X61689285Y-94402140D01*
X61689285Y-94402140D02*
X61736904Y-94449759D01*
X61736904Y-94449759D02*
X61784523Y-94544997D01*
X264508035Y-114023569D02*
X264508035Y-113023569D01*
X264508035Y-113023569D02*
X264269940Y-113023569D01*
X264269940Y-113023569D02*
X264127083Y-113071188D01*
X264127083Y-113071188D02*
X264031845Y-113166426D01*
X264031845Y-113166426D02*
X263984226Y-113261664D01*
X263984226Y-113261664D02*
X263936607Y-113452140D01*
X263936607Y-113452140D02*
X263936607Y-113594997D01*
X263936607Y-113594997D02*
X263984226Y-113785473D01*
X263984226Y-113785473D02*
X264031845Y-113880711D01*
X264031845Y-113880711D02*
X264127083Y-113975950D01*
X264127083Y-113975950D02*
X264269940Y-114023569D01*
X264269940Y-114023569D02*
X264508035Y-114023569D01*
X263603273Y-113023569D02*
X262936607Y-113023569D01*
X262936607Y-113023569D02*
X263365178Y-114023569D01*
X262127083Y-113023569D02*
X262317559Y-113023569D01*
X262317559Y-113023569D02*
X262412797Y-113071188D01*
X262412797Y-113071188D02*
X262460416Y-113118807D01*
X262460416Y-113118807D02*
X262555654Y-113261664D01*
X262555654Y-113261664D02*
X262603273Y-113452140D01*
X262603273Y-113452140D02*
X262603273Y-113833092D01*
X262603273Y-113833092D02*
X262555654Y-113928330D01*
X262555654Y-113928330D02*
X262508035Y-113975950D01*
X262508035Y-113975950D02*
X262412797Y-114023569D01*
X262412797Y-114023569D02*
X262222321Y-114023569D01*
X262222321Y-114023569D02*
X262127083Y-113975950D01*
X262127083Y-113975950D02*
X262079464Y-113928330D01*
X262079464Y-113928330D02*
X262031845Y-113833092D01*
X262031845Y-113833092D02*
X262031845Y-113594997D01*
X262031845Y-113594997D02*
X262079464Y-113499759D01*
X262079464Y-113499759D02*
X262127083Y-113452140D01*
X262127083Y-113452140D02*
X262222321Y-113404521D01*
X262222321Y-113404521D02*
X262412797Y-113404521D01*
X262412797Y-113404521D02*
X262508035Y-113452140D01*
X262508035Y-113452140D02*
X262555654Y-113499759D01*
X262555654Y-113499759D02*
X262603273Y-113594997D01*
X89320535Y-152060069D02*
X89320535Y-151060069D01*
X89320535Y-151060069D02*
X89082440Y-151060069D01*
X89082440Y-151060069D02*
X88939583Y-151107688D01*
X88939583Y-151107688D02*
X88844345Y-151202926D01*
X88844345Y-151202926D02*
X88796726Y-151298164D01*
X88796726Y-151298164D02*
X88749107Y-151488640D01*
X88749107Y-151488640D02*
X88749107Y-151631497D01*
X88749107Y-151631497D02*
X88796726Y-151821973D01*
X88796726Y-151821973D02*
X88844345Y-151917211D01*
X88844345Y-151917211D02*
X88939583Y-152012450D01*
X88939583Y-152012450D02*
X89082440Y-152060069D01*
X89082440Y-152060069D02*
X89320535Y-152060069D01*
X87844345Y-151060069D02*
X88320535Y-151060069D01*
X88320535Y-151060069D02*
X88368154Y-151536259D01*
X88368154Y-151536259D02*
X88320535Y-151488640D01*
X88320535Y-151488640D02*
X88225297Y-151441021D01*
X88225297Y-151441021D02*
X87987202Y-151441021D01*
X87987202Y-151441021D02*
X87891964Y-151488640D01*
X87891964Y-151488640D02*
X87844345Y-151536259D01*
X87844345Y-151536259D02*
X87796726Y-151631497D01*
X87796726Y-151631497D02*
X87796726Y-151869592D01*
X87796726Y-151869592D02*
X87844345Y-151964830D01*
X87844345Y-151964830D02*
X87891964Y-152012450D01*
X87891964Y-152012450D02*
X87987202Y-152060069D01*
X87987202Y-152060069D02*
X88225297Y-152060069D01*
X88225297Y-152060069D02*
X88320535Y-152012450D01*
X88320535Y-152012450D02*
X88368154Y-151964830D01*
X86891964Y-151060069D02*
X87368154Y-151060069D01*
X87368154Y-151060069D02*
X87415773Y-151536259D01*
X87415773Y-151536259D02*
X87368154Y-151488640D01*
X87368154Y-151488640D02*
X87272916Y-151441021D01*
X87272916Y-151441021D02*
X87034821Y-151441021D01*
X87034821Y-151441021D02*
X86939583Y-151488640D01*
X86939583Y-151488640D02*
X86891964Y-151536259D01*
X86891964Y-151536259D02*
X86844345Y-151631497D01*
X86844345Y-151631497D02*
X86844345Y-151869592D01*
X86844345Y-151869592D02*
X86891964Y-151964830D01*
X86891964Y-151964830D02*
X86939583Y-152012450D01*
X86939583Y-152012450D02*
X87034821Y-152060069D01*
X87034821Y-152060069D02*
X87272916Y-152060069D01*
X87272916Y-152060069D02*
X87368154Y-152012450D01*
X87368154Y-152012450D02*
X87415773Y-151964830D01*
X197601785Y-94973569D02*
X197601785Y-93973569D01*
X197601785Y-93973569D02*
X197363690Y-93973569D01*
X197363690Y-93973569D02*
X197220833Y-94021188D01*
X197220833Y-94021188D02*
X197125595Y-94116426D01*
X197125595Y-94116426D02*
X197077976Y-94211664D01*
X197077976Y-94211664D02*
X197030357Y-94402140D01*
X197030357Y-94402140D02*
X197030357Y-94544997D01*
X197030357Y-94544997D02*
X197077976Y-94735473D01*
X197077976Y-94735473D02*
X197125595Y-94830711D01*
X197125595Y-94830711D02*
X197220833Y-94925950D01*
X197220833Y-94925950D02*
X197363690Y-94973569D01*
X197363690Y-94973569D02*
X197601785Y-94973569D01*
X196649404Y-94068807D02*
X196601785Y-94021188D01*
X196601785Y-94021188D02*
X196506547Y-93973569D01*
X196506547Y-93973569D02*
X196268452Y-93973569D01*
X196268452Y-93973569D02*
X196173214Y-94021188D01*
X196173214Y-94021188D02*
X196125595Y-94068807D01*
X196125595Y-94068807D02*
X196077976Y-94164045D01*
X196077976Y-94164045D02*
X196077976Y-94259283D01*
X196077976Y-94259283D02*
X196125595Y-94402140D01*
X196125595Y-94402140D02*
X196697023Y-94973569D01*
X196697023Y-94973569D02*
X196077976Y-94973569D01*
X195744642Y-93973569D02*
X195125595Y-93973569D01*
X195125595Y-93973569D02*
X195458928Y-94354521D01*
X195458928Y-94354521D02*
X195316071Y-94354521D01*
X195316071Y-94354521D02*
X195220833Y-94402140D01*
X195220833Y-94402140D02*
X195173214Y-94449759D01*
X195173214Y-94449759D02*
X195125595Y-94544997D01*
X195125595Y-94544997D02*
X195125595Y-94783092D01*
X195125595Y-94783092D02*
X195173214Y-94878330D01*
X195173214Y-94878330D02*
X195220833Y-94925950D01*
X195220833Y-94925950D02*
X195316071Y-94973569D01*
X195316071Y-94973569D02*
X195601785Y-94973569D01*
X195601785Y-94973569D02*
X195697023Y-94925950D01*
X195697023Y-94925950D02*
X195744642Y-94878330D01*
X131158035Y-114023569D02*
X131158035Y-113023569D01*
X131158035Y-113023569D02*
X130919940Y-113023569D01*
X130919940Y-113023569D02*
X130777083Y-113071188D01*
X130777083Y-113071188D02*
X130681845Y-113166426D01*
X130681845Y-113166426D02*
X130634226Y-113261664D01*
X130634226Y-113261664D02*
X130586607Y-113452140D01*
X130586607Y-113452140D02*
X130586607Y-113594997D01*
X130586607Y-113594997D02*
X130634226Y-113785473D01*
X130634226Y-113785473D02*
X130681845Y-113880711D01*
X130681845Y-113880711D02*
X130777083Y-113975950D01*
X130777083Y-113975950D02*
X130919940Y-114023569D01*
X130919940Y-114023569D02*
X131158035Y-114023569D01*
X130253273Y-113023569D02*
X129634226Y-113023569D01*
X129634226Y-113023569D02*
X129967559Y-113404521D01*
X129967559Y-113404521D02*
X129824702Y-113404521D01*
X129824702Y-113404521D02*
X129729464Y-113452140D01*
X129729464Y-113452140D02*
X129681845Y-113499759D01*
X129681845Y-113499759D02*
X129634226Y-113594997D01*
X129634226Y-113594997D02*
X129634226Y-113833092D01*
X129634226Y-113833092D02*
X129681845Y-113928330D01*
X129681845Y-113928330D02*
X129729464Y-113975950D01*
X129729464Y-113975950D02*
X129824702Y-114023569D01*
X129824702Y-114023569D02*
X130110416Y-114023569D01*
X130110416Y-114023569D02*
X130205654Y-113975950D01*
X130205654Y-113975950D02*
X130253273Y-113928330D01*
X129253273Y-113118807D02*
X129205654Y-113071188D01*
X129205654Y-113071188D02*
X129110416Y-113023569D01*
X129110416Y-113023569D02*
X128872321Y-113023569D01*
X128872321Y-113023569D02*
X128777083Y-113071188D01*
X128777083Y-113071188D02*
X128729464Y-113118807D01*
X128729464Y-113118807D02*
X128681845Y-113214045D01*
X128681845Y-113214045D02*
X128681845Y-113309283D01*
X128681845Y-113309283D02*
X128729464Y-113452140D01*
X128729464Y-113452140D02*
X129300892Y-114023569D01*
X129300892Y-114023569D02*
X128681845Y-114023569D01*
X283789285Y-94973569D02*
X283789285Y-93973569D01*
X283789285Y-93973569D02*
X283551190Y-93973569D01*
X283551190Y-93973569D02*
X283408333Y-94021188D01*
X283408333Y-94021188D02*
X283313095Y-94116426D01*
X283313095Y-94116426D02*
X283265476Y-94211664D01*
X283265476Y-94211664D02*
X283217857Y-94402140D01*
X283217857Y-94402140D02*
X283217857Y-94544997D01*
X283217857Y-94544997D02*
X283265476Y-94735473D01*
X283265476Y-94735473D02*
X283313095Y-94830711D01*
X283313095Y-94830711D02*
X283408333Y-94925950D01*
X283408333Y-94925950D02*
X283551190Y-94973569D01*
X283551190Y-94973569D02*
X283789285Y-94973569D01*
X282836904Y-94068807D02*
X282789285Y-94021188D01*
X282789285Y-94021188D02*
X282694047Y-93973569D01*
X282694047Y-93973569D02*
X282455952Y-93973569D01*
X282455952Y-93973569D02*
X282360714Y-94021188D01*
X282360714Y-94021188D02*
X282313095Y-94068807D01*
X282313095Y-94068807D02*
X282265476Y-94164045D01*
X282265476Y-94164045D02*
X282265476Y-94259283D01*
X282265476Y-94259283D02*
X282313095Y-94402140D01*
X282313095Y-94402140D02*
X282884523Y-94973569D01*
X282884523Y-94973569D02*
X282265476Y-94973569D01*
X281408333Y-93973569D02*
X281598809Y-93973569D01*
X281598809Y-93973569D02*
X281694047Y-94021188D01*
X281694047Y-94021188D02*
X281741666Y-94068807D01*
X281741666Y-94068807D02*
X281836904Y-94211664D01*
X281836904Y-94211664D02*
X281884523Y-94402140D01*
X281884523Y-94402140D02*
X281884523Y-94783092D01*
X281884523Y-94783092D02*
X281836904Y-94878330D01*
X281836904Y-94878330D02*
X281789285Y-94925950D01*
X281789285Y-94925950D02*
X281694047Y-94973569D01*
X281694047Y-94973569D02*
X281503571Y-94973569D01*
X281503571Y-94973569D02*
X281408333Y-94925950D01*
X281408333Y-94925950D02*
X281360714Y-94878330D01*
X281360714Y-94878330D02*
X281313095Y-94783092D01*
X281313095Y-94783092D02*
X281313095Y-94544997D01*
X281313095Y-94544997D02*
X281360714Y-94449759D01*
X281360714Y-94449759D02*
X281408333Y-94402140D01*
X281408333Y-94402140D02*
X281503571Y-94354521D01*
X281503571Y-94354521D02*
X281694047Y-94354521D01*
X281694047Y-94354521D02*
X281789285Y-94402140D01*
X281789285Y-94402140D02*
X281836904Y-94449759D01*
X281836904Y-94449759D02*
X281884523Y-94544997D01*
X75913094Y-68779819D02*
X75913094Y-67779819D01*
X75913094Y-67779819D02*
X75674999Y-67779819D01*
X75674999Y-67779819D02*
X75532142Y-67827438D01*
X75532142Y-67827438D02*
X75436904Y-67922676D01*
X75436904Y-67922676D02*
X75389285Y-68017914D01*
X75389285Y-68017914D02*
X75341666Y-68208390D01*
X75341666Y-68208390D02*
X75341666Y-68351247D01*
X75341666Y-68351247D02*
X75389285Y-68541723D01*
X75389285Y-68541723D02*
X75436904Y-68636961D01*
X75436904Y-68636961D02*
X75532142Y-68732200D01*
X75532142Y-68732200D02*
X75674999Y-68779819D01*
X75674999Y-68779819D02*
X75913094Y-68779819D01*
X75008332Y-67779819D02*
X74389285Y-67779819D01*
X74389285Y-67779819D02*
X74722618Y-68160771D01*
X74722618Y-68160771D02*
X74579761Y-68160771D01*
X74579761Y-68160771D02*
X74484523Y-68208390D01*
X74484523Y-68208390D02*
X74436904Y-68256009D01*
X74436904Y-68256009D02*
X74389285Y-68351247D01*
X74389285Y-68351247D02*
X74389285Y-68589342D01*
X74389285Y-68589342D02*
X74436904Y-68684580D01*
X74436904Y-68684580D02*
X74484523Y-68732200D01*
X74484523Y-68732200D02*
X74579761Y-68779819D01*
X74579761Y-68779819D02*
X74865475Y-68779819D01*
X74865475Y-68779819D02*
X74960713Y-68732200D01*
X74960713Y-68732200D02*
X75008332Y-68684580D01*
X149268691Y-171173569D02*
X149268691Y-170173569D01*
X149268691Y-170173569D02*
X149030596Y-170173569D01*
X149030596Y-170173569D02*
X148887739Y-170221188D01*
X148887739Y-170221188D02*
X148792501Y-170316426D01*
X148792501Y-170316426D02*
X148744882Y-170411664D01*
X148744882Y-170411664D02*
X148697263Y-170602140D01*
X148697263Y-170602140D02*
X148697263Y-170744997D01*
X148697263Y-170744997D02*
X148744882Y-170935473D01*
X148744882Y-170935473D02*
X148792501Y-171030711D01*
X148792501Y-171030711D02*
X148887739Y-171125950D01*
X148887739Y-171125950D02*
X149030596Y-171173569D01*
X149030596Y-171173569D02*
X149268691Y-171173569D01*
X148125834Y-170602140D02*
X148221072Y-170554521D01*
X148221072Y-170554521D02*
X148268691Y-170506902D01*
X148268691Y-170506902D02*
X148316310Y-170411664D01*
X148316310Y-170411664D02*
X148316310Y-170364045D01*
X148316310Y-170364045D02*
X148268691Y-170268807D01*
X148268691Y-170268807D02*
X148221072Y-170221188D01*
X148221072Y-170221188D02*
X148125834Y-170173569D01*
X148125834Y-170173569D02*
X147935358Y-170173569D01*
X147935358Y-170173569D02*
X147840120Y-170221188D01*
X147840120Y-170221188D02*
X147792501Y-170268807D01*
X147792501Y-170268807D02*
X147744882Y-170364045D01*
X147744882Y-170364045D02*
X147744882Y-170411664D01*
X147744882Y-170411664D02*
X147792501Y-170506902D01*
X147792501Y-170506902D02*
X147840120Y-170554521D01*
X147840120Y-170554521D02*
X147935358Y-170602140D01*
X147935358Y-170602140D02*
X148125834Y-170602140D01*
X148125834Y-170602140D02*
X148221072Y-170649759D01*
X148221072Y-170649759D02*
X148268691Y-170697378D01*
X148268691Y-170697378D02*
X148316310Y-170792616D01*
X148316310Y-170792616D02*
X148316310Y-170983092D01*
X148316310Y-170983092D02*
X148268691Y-171078330D01*
X148268691Y-171078330D02*
X148221072Y-171125950D01*
X148221072Y-171125950D02*
X148125834Y-171173569D01*
X148125834Y-171173569D02*
X147935358Y-171173569D01*
X147935358Y-171173569D02*
X147840120Y-171125950D01*
X147840120Y-171125950D02*
X147792501Y-171078330D01*
X147792501Y-171078330D02*
X147744882Y-170983092D01*
X147744882Y-170983092D02*
X147744882Y-170792616D01*
X147744882Y-170792616D02*
X147792501Y-170697378D01*
X147792501Y-170697378D02*
X147840120Y-170649759D01*
X147840120Y-170649759D02*
X147935358Y-170602140D01*
X146792501Y-171173569D02*
X147363929Y-171173569D01*
X147078215Y-171173569D02*
X147078215Y-170173569D01*
X147078215Y-170173569D02*
X147173453Y-170316426D01*
X147173453Y-170316426D02*
X147268691Y-170411664D01*
X147268691Y-170411664D02*
X147363929Y-170459283D01*
X146470535Y-152060069D02*
X146470535Y-151060069D01*
X146470535Y-151060069D02*
X146232440Y-151060069D01*
X146232440Y-151060069D02*
X146089583Y-151107688D01*
X146089583Y-151107688D02*
X145994345Y-151202926D01*
X145994345Y-151202926D02*
X145946726Y-151298164D01*
X145946726Y-151298164D02*
X145899107Y-151488640D01*
X145899107Y-151488640D02*
X145899107Y-151631497D01*
X145899107Y-151631497D02*
X145946726Y-151821973D01*
X145946726Y-151821973D02*
X145994345Y-151917211D01*
X145994345Y-151917211D02*
X146089583Y-152012450D01*
X146089583Y-152012450D02*
X146232440Y-152060069D01*
X146232440Y-152060069D02*
X146470535Y-152060069D01*
X144994345Y-151060069D02*
X145470535Y-151060069D01*
X145470535Y-151060069D02*
X145518154Y-151536259D01*
X145518154Y-151536259D02*
X145470535Y-151488640D01*
X145470535Y-151488640D02*
X145375297Y-151441021D01*
X145375297Y-151441021D02*
X145137202Y-151441021D01*
X145137202Y-151441021D02*
X145041964Y-151488640D01*
X145041964Y-151488640D02*
X144994345Y-151536259D01*
X144994345Y-151536259D02*
X144946726Y-151631497D01*
X144946726Y-151631497D02*
X144946726Y-151869592D01*
X144946726Y-151869592D02*
X144994345Y-151964830D01*
X144994345Y-151964830D02*
X145041964Y-152012450D01*
X145041964Y-152012450D02*
X145137202Y-152060069D01*
X145137202Y-152060069D02*
X145375297Y-152060069D01*
X145375297Y-152060069D02*
X145470535Y-152012450D01*
X145470535Y-152012450D02*
X145518154Y-151964830D01*
X144375297Y-151488640D02*
X144470535Y-151441021D01*
X144470535Y-151441021D02*
X144518154Y-151393402D01*
X144518154Y-151393402D02*
X144565773Y-151298164D01*
X144565773Y-151298164D02*
X144565773Y-151250545D01*
X144565773Y-151250545D02*
X144518154Y-151155307D01*
X144518154Y-151155307D02*
X144470535Y-151107688D01*
X144470535Y-151107688D02*
X144375297Y-151060069D01*
X144375297Y-151060069D02*
X144184821Y-151060069D01*
X144184821Y-151060069D02*
X144089583Y-151107688D01*
X144089583Y-151107688D02*
X144041964Y-151155307D01*
X144041964Y-151155307D02*
X143994345Y-151250545D01*
X143994345Y-151250545D02*
X143994345Y-151298164D01*
X143994345Y-151298164D02*
X144041964Y-151393402D01*
X144041964Y-151393402D02*
X144089583Y-151441021D01*
X144089583Y-151441021D02*
X144184821Y-151488640D01*
X144184821Y-151488640D02*
X144375297Y-151488640D01*
X144375297Y-151488640D02*
X144470535Y-151536259D01*
X144470535Y-151536259D02*
X144518154Y-151583878D01*
X144518154Y-151583878D02*
X144565773Y-151679116D01*
X144565773Y-151679116D02*
X144565773Y-151869592D01*
X144565773Y-151869592D02*
X144518154Y-151964830D01*
X144518154Y-151964830D02*
X144470535Y-152012450D01*
X144470535Y-152012450D02*
X144375297Y-152060069D01*
X144375297Y-152060069D02*
X144184821Y-152060069D01*
X144184821Y-152060069D02*
X144089583Y-152012450D01*
X144089583Y-152012450D02*
X144041964Y-151964830D01*
X144041964Y-151964830D02*
X143994345Y-151869592D01*
X143994345Y-151869592D02*
X143994345Y-151679116D01*
X143994345Y-151679116D02*
X144041964Y-151583878D01*
X144041964Y-151583878D02*
X144089583Y-151536259D01*
X144089583Y-151536259D02*
X144184821Y-151488640D01*
X324224941Y-171173569D02*
X324224941Y-170173569D01*
X324224941Y-170173569D02*
X323986846Y-170173569D01*
X323986846Y-170173569D02*
X323843989Y-170221188D01*
X323843989Y-170221188D02*
X323748751Y-170316426D01*
X323748751Y-170316426D02*
X323701132Y-170411664D01*
X323701132Y-170411664D02*
X323653513Y-170602140D01*
X323653513Y-170602140D02*
X323653513Y-170744997D01*
X323653513Y-170744997D02*
X323701132Y-170935473D01*
X323701132Y-170935473D02*
X323748751Y-171030711D01*
X323748751Y-171030711D02*
X323843989Y-171125950D01*
X323843989Y-171125950D02*
X323986846Y-171173569D01*
X323986846Y-171173569D02*
X324224941Y-171173569D01*
X323320179Y-170173569D02*
X322653513Y-170173569D01*
X322653513Y-170173569D02*
X323082084Y-171173569D01*
X322082084Y-170173569D02*
X321986846Y-170173569D01*
X321986846Y-170173569D02*
X321891608Y-170221188D01*
X321891608Y-170221188D02*
X321843989Y-170268807D01*
X321843989Y-170268807D02*
X321796370Y-170364045D01*
X321796370Y-170364045D02*
X321748751Y-170554521D01*
X321748751Y-170554521D02*
X321748751Y-170792616D01*
X321748751Y-170792616D02*
X321796370Y-170983092D01*
X321796370Y-170983092D02*
X321843989Y-171078330D01*
X321843989Y-171078330D02*
X321891608Y-171125950D01*
X321891608Y-171125950D02*
X321986846Y-171173569D01*
X321986846Y-171173569D02*
X322082084Y-171173569D01*
X322082084Y-171173569D02*
X322177322Y-171125950D01*
X322177322Y-171125950D02*
X322224941Y-171078330D01*
X322224941Y-171078330D02*
X322272560Y-170983092D01*
X322272560Y-170983092D02*
X322320179Y-170792616D01*
X322320179Y-170792616D02*
X322320179Y-170554521D01*
X322320179Y-170554521D02*
X322272560Y-170364045D01*
X322272560Y-170364045D02*
X322224941Y-170268807D01*
X322224941Y-170268807D02*
X322177322Y-170221188D01*
X322177322Y-170221188D02*
X322082084Y-170173569D01*
X343596785Y-170379819D02*
X343596785Y-169379819D01*
X343596785Y-169379819D02*
X343358690Y-169379819D01*
X343358690Y-169379819D02*
X343215833Y-169427438D01*
X343215833Y-169427438D02*
X343120595Y-169522676D01*
X343120595Y-169522676D02*
X343072976Y-169617914D01*
X343072976Y-169617914D02*
X343025357Y-169808390D01*
X343025357Y-169808390D02*
X343025357Y-169951247D01*
X343025357Y-169951247D02*
X343072976Y-170141723D01*
X343072976Y-170141723D02*
X343120595Y-170236961D01*
X343120595Y-170236961D02*
X343215833Y-170332200D01*
X343215833Y-170332200D02*
X343358690Y-170379819D01*
X343358690Y-170379819D02*
X343596785Y-170379819D01*
X342692023Y-169379819D02*
X342025357Y-169379819D01*
X342025357Y-169379819D02*
X342453928Y-170379819D01*
X341168214Y-169379819D02*
X341644404Y-169379819D01*
X341644404Y-169379819D02*
X341692023Y-169856009D01*
X341692023Y-169856009D02*
X341644404Y-169808390D01*
X341644404Y-169808390D02*
X341549166Y-169760771D01*
X341549166Y-169760771D02*
X341311071Y-169760771D01*
X341311071Y-169760771D02*
X341215833Y-169808390D01*
X341215833Y-169808390D02*
X341168214Y-169856009D01*
X341168214Y-169856009D02*
X341120595Y-169951247D01*
X341120595Y-169951247D02*
X341120595Y-170189342D01*
X341120595Y-170189342D02*
X341168214Y-170284580D01*
X341168214Y-170284580D02*
X341215833Y-170332200D01*
X341215833Y-170332200D02*
X341311071Y-170379819D01*
X341311071Y-170379819D02*
X341549166Y-170379819D01*
X341549166Y-170379819D02*
X341644404Y-170332200D01*
X341644404Y-170332200D02*
X341692023Y-170284580D01*
X188308035Y-114023569D02*
X188308035Y-113023569D01*
X188308035Y-113023569D02*
X188069940Y-113023569D01*
X188069940Y-113023569D02*
X187927083Y-113071188D01*
X187927083Y-113071188D02*
X187831845Y-113166426D01*
X187831845Y-113166426D02*
X187784226Y-113261664D01*
X187784226Y-113261664D02*
X187736607Y-113452140D01*
X187736607Y-113452140D02*
X187736607Y-113594997D01*
X187736607Y-113594997D02*
X187784226Y-113785473D01*
X187784226Y-113785473D02*
X187831845Y-113880711D01*
X187831845Y-113880711D02*
X187927083Y-113975950D01*
X187927083Y-113975950D02*
X188069940Y-114023569D01*
X188069940Y-114023569D02*
X188308035Y-114023569D01*
X187403273Y-113023569D02*
X186784226Y-113023569D01*
X186784226Y-113023569D02*
X187117559Y-113404521D01*
X187117559Y-113404521D02*
X186974702Y-113404521D01*
X186974702Y-113404521D02*
X186879464Y-113452140D01*
X186879464Y-113452140D02*
X186831845Y-113499759D01*
X186831845Y-113499759D02*
X186784226Y-113594997D01*
X186784226Y-113594997D02*
X186784226Y-113833092D01*
X186784226Y-113833092D02*
X186831845Y-113928330D01*
X186831845Y-113928330D02*
X186879464Y-113975950D01*
X186879464Y-113975950D02*
X186974702Y-114023569D01*
X186974702Y-114023569D02*
X187260416Y-114023569D01*
X187260416Y-114023569D02*
X187355654Y-113975950D01*
X187355654Y-113975950D02*
X187403273Y-113928330D01*
X185879464Y-113023569D02*
X186355654Y-113023569D01*
X186355654Y-113023569D02*
X186403273Y-113499759D01*
X186403273Y-113499759D02*
X186355654Y-113452140D01*
X186355654Y-113452140D02*
X186260416Y-113404521D01*
X186260416Y-113404521D02*
X186022321Y-113404521D01*
X186022321Y-113404521D02*
X185927083Y-113452140D01*
X185927083Y-113452140D02*
X185879464Y-113499759D01*
X185879464Y-113499759D02*
X185831845Y-113594997D01*
X185831845Y-113594997D02*
X185831845Y-113833092D01*
X185831845Y-113833092D02*
X185879464Y-113928330D01*
X185879464Y-113928330D02*
X185927083Y-113975950D01*
X185927083Y-113975950D02*
X186022321Y-114023569D01*
X186022321Y-114023569D02*
X186260416Y-114023569D01*
X186260416Y-114023569D02*
X186355654Y-113975950D01*
X186355654Y-113975950D02*
X186403273Y-113928330D01*
X235139285Y-68779819D02*
X235139285Y-67779819D01*
X235139285Y-67779819D02*
X234901190Y-67779819D01*
X234901190Y-67779819D02*
X234758333Y-67827438D01*
X234758333Y-67827438D02*
X234663095Y-67922676D01*
X234663095Y-67922676D02*
X234615476Y-68017914D01*
X234615476Y-68017914D02*
X234567857Y-68208390D01*
X234567857Y-68208390D02*
X234567857Y-68351247D01*
X234567857Y-68351247D02*
X234615476Y-68541723D01*
X234615476Y-68541723D02*
X234663095Y-68636961D01*
X234663095Y-68636961D02*
X234758333Y-68732200D01*
X234758333Y-68732200D02*
X234901190Y-68779819D01*
X234901190Y-68779819D02*
X235139285Y-68779819D01*
X233615476Y-68779819D02*
X234186904Y-68779819D01*
X233901190Y-68779819D02*
X233901190Y-67779819D01*
X233901190Y-67779819D02*
X233996428Y-67922676D01*
X233996428Y-67922676D02*
X234091666Y-68017914D01*
X234091666Y-68017914D02*
X234186904Y-68065533D01*
X232996428Y-67779819D02*
X232901190Y-67779819D01*
X232901190Y-67779819D02*
X232805952Y-67827438D01*
X232805952Y-67827438D02*
X232758333Y-67875057D01*
X232758333Y-67875057D02*
X232710714Y-67970295D01*
X232710714Y-67970295D02*
X232663095Y-68160771D01*
X232663095Y-68160771D02*
X232663095Y-68398866D01*
X232663095Y-68398866D02*
X232710714Y-68589342D01*
X232710714Y-68589342D02*
X232758333Y-68684580D01*
X232758333Y-68684580D02*
X232805952Y-68732200D01*
X232805952Y-68732200D02*
X232901190Y-68779819D01*
X232901190Y-68779819D02*
X232996428Y-68779819D01*
X232996428Y-68779819D02*
X233091666Y-68732200D01*
X233091666Y-68732200D02*
X233139285Y-68684580D01*
X233139285Y-68684580D02*
X233186904Y-68589342D01*
X233186904Y-68589342D02*
X233234523Y-68398866D01*
X233234523Y-68398866D02*
X233234523Y-68160771D01*
X233234523Y-68160771D02*
X233186904Y-67970295D01*
X233186904Y-67970295D02*
X233139285Y-67875057D01*
X233139285Y-67875057D02*
X233091666Y-67827438D01*
X233091666Y-67827438D02*
X232996428Y-67779819D01*
X274826785Y-68779819D02*
X274826785Y-67779819D01*
X274826785Y-67779819D02*
X274588690Y-67779819D01*
X274588690Y-67779819D02*
X274445833Y-67827438D01*
X274445833Y-67827438D02*
X274350595Y-67922676D01*
X274350595Y-67922676D02*
X274302976Y-68017914D01*
X274302976Y-68017914D02*
X274255357Y-68208390D01*
X274255357Y-68208390D02*
X274255357Y-68351247D01*
X274255357Y-68351247D02*
X274302976Y-68541723D01*
X274302976Y-68541723D02*
X274350595Y-68636961D01*
X274350595Y-68636961D02*
X274445833Y-68732200D01*
X274445833Y-68732200D02*
X274588690Y-68779819D01*
X274588690Y-68779819D02*
X274826785Y-68779819D01*
X273302976Y-68779819D02*
X273874404Y-68779819D01*
X273588690Y-68779819D02*
X273588690Y-67779819D01*
X273588690Y-67779819D02*
X273683928Y-67922676D01*
X273683928Y-67922676D02*
X273779166Y-68017914D01*
X273779166Y-68017914D02*
X273874404Y-68065533D01*
X272922023Y-67875057D02*
X272874404Y-67827438D01*
X272874404Y-67827438D02*
X272779166Y-67779819D01*
X272779166Y-67779819D02*
X272541071Y-67779819D01*
X272541071Y-67779819D02*
X272445833Y-67827438D01*
X272445833Y-67827438D02*
X272398214Y-67875057D01*
X272398214Y-67875057D02*
X272350595Y-67970295D01*
X272350595Y-67970295D02*
X272350595Y-68065533D01*
X272350595Y-68065533D02*
X272398214Y-68208390D01*
X272398214Y-68208390D02*
X272969642Y-68779819D01*
X272969642Y-68779819D02*
X272350595Y-68779819D01*
X111545535Y-114023569D02*
X111545535Y-113023569D01*
X111545535Y-113023569D02*
X111307440Y-113023569D01*
X111307440Y-113023569D02*
X111164583Y-113071188D01*
X111164583Y-113071188D02*
X111069345Y-113166426D01*
X111069345Y-113166426D02*
X111021726Y-113261664D01*
X111021726Y-113261664D02*
X110974107Y-113452140D01*
X110974107Y-113452140D02*
X110974107Y-113594997D01*
X110974107Y-113594997D02*
X111021726Y-113785473D01*
X111021726Y-113785473D02*
X111069345Y-113880711D01*
X111069345Y-113880711D02*
X111164583Y-113975950D01*
X111164583Y-113975950D02*
X111307440Y-114023569D01*
X111307440Y-114023569D02*
X111545535Y-114023569D01*
X110640773Y-113023569D02*
X110021726Y-113023569D01*
X110021726Y-113023569D02*
X110355059Y-113404521D01*
X110355059Y-113404521D02*
X110212202Y-113404521D01*
X110212202Y-113404521D02*
X110116964Y-113452140D01*
X110116964Y-113452140D02*
X110069345Y-113499759D01*
X110069345Y-113499759D02*
X110021726Y-113594997D01*
X110021726Y-113594997D02*
X110021726Y-113833092D01*
X110021726Y-113833092D02*
X110069345Y-113928330D01*
X110069345Y-113928330D02*
X110116964Y-113975950D01*
X110116964Y-113975950D02*
X110212202Y-114023569D01*
X110212202Y-114023569D02*
X110497916Y-114023569D01*
X110497916Y-114023569D02*
X110593154Y-113975950D01*
X110593154Y-113975950D02*
X110640773Y-113928330D01*
X109069345Y-114023569D02*
X109640773Y-114023569D01*
X109355059Y-114023569D02*
X109355059Y-113023569D01*
X109355059Y-113023569D02*
X109450297Y-113166426D01*
X109450297Y-113166426D02*
X109545535Y-113261664D01*
X109545535Y-113261664D02*
X109640773Y-113309283D01*
X193784821Y-133011069D02*
X193784821Y-132011069D01*
X193784821Y-132011069D02*
X193546726Y-132011069D01*
X193546726Y-132011069D02*
X193403869Y-132058688D01*
X193403869Y-132058688D02*
X193308631Y-132153926D01*
X193308631Y-132153926D02*
X193261012Y-132249164D01*
X193261012Y-132249164D02*
X193213393Y-132439640D01*
X193213393Y-132439640D02*
X193213393Y-132582497D01*
X193213393Y-132582497D02*
X193261012Y-132772973D01*
X193261012Y-132772973D02*
X193308631Y-132868211D01*
X193308631Y-132868211D02*
X193403869Y-132963450D01*
X193403869Y-132963450D02*
X193546726Y-133011069D01*
X193546726Y-133011069D02*
X193784821Y-133011069D01*
X192356250Y-132344402D02*
X192356250Y-133011069D01*
X192594345Y-131963450D02*
X192832440Y-132677735D01*
X192832440Y-132677735D02*
X192213393Y-132677735D01*
X191689583Y-132439640D02*
X191784821Y-132392021D01*
X191784821Y-132392021D02*
X191832440Y-132344402D01*
X191832440Y-132344402D02*
X191880059Y-132249164D01*
X191880059Y-132249164D02*
X191880059Y-132201545D01*
X191880059Y-132201545D02*
X191832440Y-132106307D01*
X191832440Y-132106307D02*
X191784821Y-132058688D01*
X191784821Y-132058688D02*
X191689583Y-132011069D01*
X191689583Y-132011069D02*
X191499107Y-132011069D01*
X191499107Y-132011069D02*
X191403869Y-132058688D01*
X191403869Y-132058688D02*
X191356250Y-132106307D01*
X191356250Y-132106307D02*
X191308631Y-132201545D01*
X191308631Y-132201545D02*
X191308631Y-132249164D01*
X191308631Y-132249164D02*
X191356250Y-132344402D01*
X191356250Y-132344402D02*
X191403869Y-132392021D01*
X191403869Y-132392021D02*
X191499107Y-132439640D01*
X191499107Y-132439640D02*
X191689583Y-132439640D01*
X191689583Y-132439640D02*
X191784821Y-132487259D01*
X191784821Y-132487259D02*
X191832440Y-132534878D01*
X191832440Y-132534878D02*
X191880059Y-132630116D01*
X191880059Y-132630116D02*
X191880059Y-132820592D01*
X191880059Y-132820592D02*
X191832440Y-132915830D01*
X191832440Y-132915830D02*
X191784821Y-132963450D01*
X191784821Y-132963450D02*
X191689583Y-133011069D01*
X191689583Y-133011069D02*
X191499107Y-133011069D01*
X191499107Y-133011069D02*
X191403869Y-132963450D01*
X191403869Y-132963450D02*
X191356250Y-132915830D01*
X191356250Y-132915830D02*
X191308631Y-132820592D01*
X191308631Y-132820592D02*
X191308631Y-132630116D01*
X191308631Y-132630116D02*
X191356250Y-132534878D01*
X191356250Y-132534878D02*
X191403869Y-132487259D01*
X191403869Y-132487259D02*
X191499107Y-132439640D01*
X26383035Y-94973569D02*
X26383035Y-93973569D01*
X26383035Y-93973569D02*
X26144940Y-93973569D01*
X26144940Y-93973569D02*
X26002083Y-94021188D01*
X26002083Y-94021188D02*
X25906845Y-94116426D01*
X25906845Y-94116426D02*
X25859226Y-94211664D01*
X25859226Y-94211664D02*
X25811607Y-94402140D01*
X25811607Y-94402140D02*
X25811607Y-94544997D01*
X25811607Y-94544997D02*
X25859226Y-94735473D01*
X25859226Y-94735473D02*
X25906845Y-94830711D01*
X25906845Y-94830711D02*
X26002083Y-94925950D01*
X26002083Y-94925950D02*
X26144940Y-94973569D01*
X26144940Y-94973569D02*
X26383035Y-94973569D01*
X24859226Y-94973569D02*
X25430654Y-94973569D01*
X25144940Y-94973569D02*
X25144940Y-93973569D01*
X25144940Y-93973569D02*
X25240178Y-94116426D01*
X25240178Y-94116426D02*
X25335416Y-94211664D01*
X25335416Y-94211664D02*
X25430654Y-94259283D01*
X24002083Y-94306902D02*
X24002083Y-94973569D01*
X24240178Y-93925950D02*
X24478273Y-94640235D01*
X24478273Y-94640235D02*
X23859226Y-94640235D01*
X114013094Y-68779819D02*
X114013094Y-67779819D01*
X114013094Y-67779819D02*
X113774999Y-67779819D01*
X113774999Y-67779819D02*
X113632142Y-67827438D01*
X113632142Y-67827438D02*
X113536904Y-67922676D01*
X113536904Y-67922676D02*
X113489285Y-68017914D01*
X113489285Y-68017914D02*
X113441666Y-68208390D01*
X113441666Y-68208390D02*
X113441666Y-68351247D01*
X113441666Y-68351247D02*
X113489285Y-68541723D01*
X113489285Y-68541723D02*
X113536904Y-68636961D01*
X113536904Y-68636961D02*
X113632142Y-68732200D01*
X113632142Y-68732200D02*
X113774999Y-68779819D01*
X113774999Y-68779819D02*
X114013094Y-68779819D01*
X112536904Y-67779819D02*
X113013094Y-67779819D01*
X113013094Y-67779819D02*
X113060713Y-68256009D01*
X113060713Y-68256009D02*
X113013094Y-68208390D01*
X113013094Y-68208390D02*
X112917856Y-68160771D01*
X112917856Y-68160771D02*
X112679761Y-68160771D01*
X112679761Y-68160771D02*
X112584523Y-68208390D01*
X112584523Y-68208390D02*
X112536904Y-68256009D01*
X112536904Y-68256009D02*
X112489285Y-68351247D01*
X112489285Y-68351247D02*
X112489285Y-68589342D01*
X112489285Y-68589342D02*
X112536904Y-68684580D01*
X112536904Y-68684580D02*
X112584523Y-68732200D01*
X112584523Y-68732200D02*
X112679761Y-68779819D01*
X112679761Y-68779819D02*
X112917856Y-68779819D01*
X112917856Y-68779819D02*
X113013094Y-68732200D01*
X113013094Y-68732200D02*
X113060713Y-68684580D01*
X342295535Y-68779819D02*
X342295535Y-67779819D01*
X342295535Y-67779819D02*
X342057440Y-67779819D01*
X342057440Y-67779819D02*
X341914583Y-67827438D01*
X341914583Y-67827438D02*
X341819345Y-67922676D01*
X341819345Y-67922676D02*
X341771726Y-68017914D01*
X341771726Y-68017914D02*
X341724107Y-68208390D01*
X341724107Y-68208390D02*
X341724107Y-68351247D01*
X341724107Y-68351247D02*
X341771726Y-68541723D01*
X341771726Y-68541723D02*
X341819345Y-68636961D01*
X341819345Y-68636961D02*
X341914583Y-68732200D01*
X341914583Y-68732200D02*
X342057440Y-68779819D01*
X342057440Y-68779819D02*
X342295535Y-68779819D01*
X340866964Y-67779819D02*
X341057440Y-67779819D01*
X341057440Y-67779819D02*
X341152678Y-67827438D01*
X341152678Y-67827438D02*
X341200297Y-67875057D01*
X341200297Y-67875057D02*
X341295535Y-68017914D01*
X341295535Y-68017914D02*
X341343154Y-68208390D01*
X341343154Y-68208390D02*
X341343154Y-68589342D01*
X341343154Y-68589342D02*
X341295535Y-68684580D01*
X341295535Y-68684580D02*
X341247916Y-68732200D01*
X341247916Y-68732200D02*
X341152678Y-68779819D01*
X341152678Y-68779819D02*
X340962202Y-68779819D01*
X340962202Y-68779819D02*
X340866964Y-68732200D01*
X340866964Y-68732200D02*
X340819345Y-68684580D01*
X340819345Y-68684580D02*
X340771726Y-68589342D01*
X340771726Y-68589342D02*
X340771726Y-68351247D01*
X340771726Y-68351247D02*
X340819345Y-68256009D01*
X340819345Y-68256009D02*
X340866964Y-68208390D01*
X340866964Y-68208390D02*
X340962202Y-68160771D01*
X340962202Y-68160771D02*
X341152678Y-68160771D01*
X341152678Y-68160771D02*
X341247916Y-68208390D01*
X341247916Y-68208390D02*
X341295535Y-68256009D01*
X341295535Y-68256009D02*
X341343154Y-68351247D01*
X340200297Y-68208390D02*
X340295535Y-68160771D01*
X340295535Y-68160771D02*
X340343154Y-68113152D01*
X340343154Y-68113152D02*
X340390773Y-68017914D01*
X340390773Y-68017914D02*
X340390773Y-67970295D01*
X340390773Y-67970295D02*
X340343154Y-67875057D01*
X340343154Y-67875057D02*
X340295535Y-67827438D01*
X340295535Y-67827438D02*
X340200297Y-67779819D01*
X340200297Y-67779819D02*
X340009821Y-67779819D01*
X340009821Y-67779819D02*
X339914583Y-67827438D01*
X339914583Y-67827438D02*
X339866964Y-67875057D01*
X339866964Y-67875057D02*
X339819345Y-67970295D01*
X339819345Y-67970295D02*
X339819345Y-68017914D01*
X339819345Y-68017914D02*
X339866964Y-68113152D01*
X339866964Y-68113152D02*
X339914583Y-68160771D01*
X339914583Y-68160771D02*
X340009821Y-68208390D01*
X340009821Y-68208390D02*
X340200297Y-68208390D01*
X340200297Y-68208390D02*
X340295535Y-68256009D01*
X340295535Y-68256009D02*
X340343154Y-68303628D01*
X340343154Y-68303628D02*
X340390773Y-68398866D01*
X340390773Y-68398866D02*
X340390773Y-68589342D01*
X340390773Y-68589342D02*
X340343154Y-68684580D01*
X340343154Y-68684580D02*
X340295535Y-68732200D01*
X340295535Y-68732200D02*
X340200297Y-68779819D01*
X340200297Y-68779819D02*
X340009821Y-68779819D01*
X340009821Y-68779819D02*
X339914583Y-68732200D01*
X339914583Y-68732200D02*
X339866964Y-68684580D01*
X339866964Y-68684580D02*
X339819345Y-68589342D01*
X339819345Y-68589342D02*
X339819345Y-68398866D01*
X339819345Y-68398866D02*
X339866964Y-68303628D01*
X339866964Y-68303628D02*
X339914583Y-68256009D01*
X339914583Y-68256009D02*
X340009821Y-68208390D01*
X216651785Y-94973569D02*
X216651785Y-93973569D01*
X216651785Y-93973569D02*
X216413690Y-93973569D01*
X216413690Y-93973569D02*
X216270833Y-94021188D01*
X216270833Y-94021188D02*
X216175595Y-94116426D01*
X216175595Y-94116426D02*
X216127976Y-94211664D01*
X216127976Y-94211664D02*
X216080357Y-94402140D01*
X216080357Y-94402140D02*
X216080357Y-94544997D01*
X216080357Y-94544997D02*
X216127976Y-94735473D01*
X216127976Y-94735473D02*
X216175595Y-94830711D01*
X216175595Y-94830711D02*
X216270833Y-94925950D01*
X216270833Y-94925950D02*
X216413690Y-94973569D01*
X216413690Y-94973569D02*
X216651785Y-94973569D01*
X215699404Y-94068807D02*
X215651785Y-94021188D01*
X215651785Y-94021188D02*
X215556547Y-93973569D01*
X215556547Y-93973569D02*
X215318452Y-93973569D01*
X215318452Y-93973569D02*
X215223214Y-94021188D01*
X215223214Y-94021188D02*
X215175595Y-94068807D01*
X215175595Y-94068807D02*
X215127976Y-94164045D01*
X215127976Y-94164045D02*
X215127976Y-94259283D01*
X215127976Y-94259283D02*
X215175595Y-94402140D01*
X215175595Y-94402140D02*
X215747023Y-94973569D01*
X215747023Y-94973569D02*
X215127976Y-94973569D01*
X214270833Y-94306902D02*
X214270833Y-94973569D01*
X214508928Y-93925950D02*
X214747023Y-94640235D01*
X214747023Y-94640235D02*
X214127976Y-94640235D01*
X94169344Y-68779819D02*
X94169344Y-67779819D01*
X94169344Y-67779819D02*
X93931249Y-67779819D01*
X93931249Y-67779819D02*
X93788392Y-67827438D01*
X93788392Y-67827438D02*
X93693154Y-67922676D01*
X93693154Y-67922676D02*
X93645535Y-68017914D01*
X93645535Y-68017914D02*
X93597916Y-68208390D01*
X93597916Y-68208390D02*
X93597916Y-68351247D01*
X93597916Y-68351247D02*
X93645535Y-68541723D01*
X93645535Y-68541723D02*
X93693154Y-68636961D01*
X93693154Y-68636961D02*
X93788392Y-68732200D01*
X93788392Y-68732200D02*
X93931249Y-68779819D01*
X93931249Y-68779819D02*
X94169344Y-68779819D01*
X92740773Y-68113152D02*
X92740773Y-68779819D01*
X92978868Y-67732200D02*
X93216963Y-68446485D01*
X93216963Y-68446485D02*
X92597916Y-68446485D01*
X243308035Y-171173569D02*
X243308035Y-170173569D01*
X243308035Y-170173569D02*
X243069940Y-170173569D01*
X243069940Y-170173569D02*
X242927083Y-170221188D01*
X242927083Y-170221188D02*
X242831845Y-170316426D01*
X242831845Y-170316426D02*
X242784226Y-170411664D01*
X242784226Y-170411664D02*
X242736607Y-170602140D01*
X242736607Y-170602140D02*
X242736607Y-170744997D01*
X242736607Y-170744997D02*
X242784226Y-170935473D01*
X242784226Y-170935473D02*
X242831845Y-171030711D01*
X242831845Y-171030711D02*
X242927083Y-171125950D01*
X242927083Y-171125950D02*
X243069940Y-171173569D01*
X243069940Y-171173569D02*
X243308035Y-171173569D01*
X242403273Y-170173569D02*
X241736607Y-170173569D01*
X241736607Y-170173569D02*
X242165178Y-171173569D01*
X241450892Y-170173569D02*
X240784226Y-170173569D01*
X240784226Y-170173569D02*
X241212797Y-171173569D01*
X102583035Y-94973569D02*
X102583035Y-93973569D01*
X102583035Y-93973569D02*
X102344940Y-93973569D01*
X102344940Y-93973569D02*
X102202083Y-94021188D01*
X102202083Y-94021188D02*
X102106845Y-94116426D01*
X102106845Y-94116426D02*
X102059226Y-94211664D01*
X102059226Y-94211664D02*
X102011607Y-94402140D01*
X102011607Y-94402140D02*
X102011607Y-94544997D01*
X102011607Y-94544997D02*
X102059226Y-94735473D01*
X102059226Y-94735473D02*
X102106845Y-94830711D01*
X102106845Y-94830711D02*
X102202083Y-94925950D01*
X102202083Y-94925950D02*
X102344940Y-94973569D01*
X102344940Y-94973569D02*
X102583035Y-94973569D01*
X101059226Y-94973569D02*
X101630654Y-94973569D01*
X101344940Y-94973569D02*
X101344940Y-93973569D01*
X101344940Y-93973569D02*
X101440178Y-94116426D01*
X101440178Y-94116426D02*
X101535416Y-94211664D01*
X101535416Y-94211664D02*
X101630654Y-94259283D01*
X100487797Y-94402140D02*
X100583035Y-94354521D01*
X100583035Y-94354521D02*
X100630654Y-94306902D01*
X100630654Y-94306902D02*
X100678273Y-94211664D01*
X100678273Y-94211664D02*
X100678273Y-94164045D01*
X100678273Y-94164045D02*
X100630654Y-94068807D01*
X100630654Y-94068807D02*
X100583035Y-94021188D01*
X100583035Y-94021188D02*
X100487797Y-93973569D01*
X100487797Y-93973569D02*
X100297321Y-93973569D01*
X100297321Y-93973569D02*
X100202083Y-94021188D01*
X100202083Y-94021188D02*
X100154464Y-94068807D01*
X100154464Y-94068807D02*
X100106845Y-94164045D01*
X100106845Y-94164045D02*
X100106845Y-94211664D01*
X100106845Y-94211664D02*
X100154464Y-94306902D01*
X100154464Y-94306902D02*
X100202083Y-94354521D01*
X100202083Y-94354521D02*
X100297321Y-94402140D01*
X100297321Y-94402140D02*
X100487797Y-94402140D01*
X100487797Y-94402140D02*
X100583035Y-94449759D01*
X100583035Y-94449759D02*
X100630654Y-94497378D01*
X100630654Y-94497378D02*
X100678273Y-94592616D01*
X100678273Y-94592616D02*
X100678273Y-94783092D01*
X100678273Y-94783092D02*
X100630654Y-94878330D01*
X100630654Y-94878330D02*
X100583035Y-94925950D01*
X100583035Y-94925950D02*
X100487797Y-94973569D01*
X100487797Y-94973569D02*
X100297321Y-94973569D01*
X100297321Y-94973569D02*
X100202083Y-94925950D01*
X100202083Y-94925950D02*
X100154464Y-94878330D01*
X100154464Y-94878330D02*
X100106845Y-94783092D01*
X100106845Y-94783092D02*
X100106845Y-94592616D01*
X100106845Y-94592616D02*
X100154464Y-94497378D01*
X100154464Y-94497378D02*
X100202083Y-94449759D01*
X100202083Y-94449759D02*
X100297321Y-94402140D01*
X74239285Y-114023569D02*
X74239285Y-113023569D01*
X74239285Y-113023569D02*
X74001190Y-113023569D01*
X74001190Y-113023569D02*
X73858333Y-113071188D01*
X73858333Y-113071188D02*
X73763095Y-113166426D01*
X73763095Y-113166426D02*
X73715476Y-113261664D01*
X73715476Y-113261664D02*
X73667857Y-113452140D01*
X73667857Y-113452140D02*
X73667857Y-113594997D01*
X73667857Y-113594997D02*
X73715476Y-113785473D01*
X73715476Y-113785473D02*
X73763095Y-113880711D01*
X73763095Y-113880711D02*
X73858333Y-113975950D01*
X73858333Y-113975950D02*
X74001190Y-114023569D01*
X74001190Y-114023569D02*
X74239285Y-114023569D01*
X73286904Y-113118807D02*
X73239285Y-113071188D01*
X73239285Y-113071188D02*
X73144047Y-113023569D01*
X73144047Y-113023569D02*
X72905952Y-113023569D01*
X72905952Y-113023569D02*
X72810714Y-113071188D01*
X72810714Y-113071188D02*
X72763095Y-113118807D01*
X72763095Y-113118807D02*
X72715476Y-113214045D01*
X72715476Y-113214045D02*
X72715476Y-113309283D01*
X72715476Y-113309283D02*
X72763095Y-113452140D01*
X72763095Y-113452140D02*
X73334523Y-114023569D01*
X73334523Y-114023569D02*
X72715476Y-114023569D01*
X72239285Y-114023569D02*
X72048809Y-114023569D01*
X72048809Y-114023569D02*
X71953571Y-113975950D01*
X71953571Y-113975950D02*
X71905952Y-113928330D01*
X71905952Y-113928330D02*
X71810714Y-113785473D01*
X71810714Y-113785473D02*
X71763095Y-113594997D01*
X71763095Y-113594997D02*
X71763095Y-113214045D01*
X71763095Y-113214045D02*
X71810714Y-113118807D01*
X71810714Y-113118807D02*
X71858333Y-113071188D01*
X71858333Y-113071188D02*
X71953571Y-113023569D01*
X71953571Y-113023569D02*
X72144047Y-113023569D01*
X72144047Y-113023569D02*
X72239285Y-113071188D01*
X72239285Y-113071188D02*
X72286904Y-113118807D01*
X72286904Y-113118807D02*
X72334523Y-113214045D01*
X72334523Y-113214045D02*
X72334523Y-113452140D01*
X72334523Y-113452140D02*
X72286904Y-113547378D01*
X72286904Y-113547378D02*
X72239285Y-113594997D01*
X72239285Y-113594997D02*
X72144047Y-113642616D01*
X72144047Y-113642616D02*
X71953571Y-113642616D01*
X71953571Y-113642616D02*
X71858333Y-113594997D01*
X71858333Y-113594997D02*
X71810714Y-113547378D01*
X71810714Y-113547378D02*
X71763095Y-113452140D01*
X241720535Y-152060069D02*
X241720535Y-151060069D01*
X241720535Y-151060069D02*
X241482440Y-151060069D01*
X241482440Y-151060069D02*
X241339583Y-151107688D01*
X241339583Y-151107688D02*
X241244345Y-151202926D01*
X241244345Y-151202926D02*
X241196726Y-151298164D01*
X241196726Y-151298164D02*
X241149107Y-151488640D01*
X241149107Y-151488640D02*
X241149107Y-151631497D01*
X241149107Y-151631497D02*
X241196726Y-151821973D01*
X241196726Y-151821973D02*
X241244345Y-151917211D01*
X241244345Y-151917211D02*
X241339583Y-152012450D01*
X241339583Y-152012450D02*
X241482440Y-152060069D01*
X241482440Y-152060069D02*
X241720535Y-152060069D01*
X240291964Y-151060069D02*
X240482440Y-151060069D01*
X240482440Y-151060069D02*
X240577678Y-151107688D01*
X240577678Y-151107688D02*
X240625297Y-151155307D01*
X240625297Y-151155307D02*
X240720535Y-151298164D01*
X240720535Y-151298164D02*
X240768154Y-151488640D01*
X240768154Y-151488640D02*
X240768154Y-151869592D01*
X240768154Y-151869592D02*
X240720535Y-151964830D01*
X240720535Y-151964830D02*
X240672916Y-152012450D01*
X240672916Y-152012450D02*
X240577678Y-152060069D01*
X240577678Y-152060069D02*
X240387202Y-152060069D01*
X240387202Y-152060069D02*
X240291964Y-152012450D01*
X240291964Y-152012450D02*
X240244345Y-151964830D01*
X240244345Y-151964830D02*
X240196726Y-151869592D01*
X240196726Y-151869592D02*
X240196726Y-151631497D01*
X240196726Y-151631497D02*
X240244345Y-151536259D01*
X240244345Y-151536259D02*
X240291964Y-151488640D01*
X240291964Y-151488640D02*
X240387202Y-151441021D01*
X240387202Y-151441021D02*
X240577678Y-151441021D01*
X240577678Y-151441021D02*
X240672916Y-151488640D01*
X240672916Y-151488640D02*
X240720535Y-151536259D01*
X240720535Y-151536259D02*
X240768154Y-151631497D01*
X239863392Y-151060069D02*
X239244345Y-151060069D01*
X239244345Y-151060069D02*
X239577678Y-151441021D01*
X239577678Y-151441021D02*
X239434821Y-151441021D01*
X239434821Y-151441021D02*
X239339583Y-151488640D01*
X239339583Y-151488640D02*
X239291964Y-151536259D01*
X239291964Y-151536259D02*
X239244345Y-151631497D01*
X239244345Y-151631497D02*
X239244345Y-151869592D01*
X239244345Y-151869592D02*
X239291964Y-151964830D01*
X239291964Y-151964830D02*
X239339583Y-152012450D01*
X239339583Y-152012450D02*
X239434821Y-152060069D01*
X239434821Y-152060069D02*
X239720535Y-152060069D01*
X239720535Y-152060069D02*
X239815773Y-152012450D01*
X239815773Y-152012450D02*
X239863392Y-151964830D01*
X186475594Y-68779819D02*
X186475594Y-67779819D01*
X186475594Y-67779819D02*
X186237499Y-67779819D01*
X186237499Y-67779819D02*
X186094642Y-67827438D01*
X186094642Y-67827438D02*
X185999404Y-67922676D01*
X185999404Y-67922676D02*
X185951785Y-68017914D01*
X185951785Y-68017914D02*
X185904166Y-68208390D01*
X185904166Y-68208390D02*
X185904166Y-68351247D01*
X185904166Y-68351247D02*
X185951785Y-68541723D01*
X185951785Y-68541723D02*
X185999404Y-68636961D01*
X185999404Y-68636961D02*
X186094642Y-68732200D01*
X186094642Y-68732200D02*
X186237499Y-68779819D01*
X186237499Y-68779819D02*
X186475594Y-68779819D01*
X185332737Y-68208390D02*
X185427975Y-68160771D01*
X185427975Y-68160771D02*
X185475594Y-68113152D01*
X185475594Y-68113152D02*
X185523213Y-68017914D01*
X185523213Y-68017914D02*
X185523213Y-67970295D01*
X185523213Y-67970295D02*
X185475594Y-67875057D01*
X185475594Y-67875057D02*
X185427975Y-67827438D01*
X185427975Y-67827438D02*
X185332737Y-67779819D01*
X185332737Y-67779819D02*
X185142261Y-67779819D01*
X185142261Y-67779819D02*
X185047023Y-67827438D01*
X185047023Y-67827438D02*
X184999404Y-67875057D01*
X184999404Y-67875057D02*
X184951785Y-67970295D01*
X184951785Y-67970295D02*
X184951785Y-68017914D01*
X184951785Y-68017914D02*
X184999404Y-68113152D01*
X184999404Y-68113152D02*
X185047023Y-68160771D01*
X185047023Y-68160771D02*
X185142261Y-68208390D01*
X185142261Y-68208390D02*
X185332737Y-68208390D01*
X185332737Y-68208390D02*
X185427975Y-68256009D01*
X185427975Y-68256009D02*
X185475594Y-68303628D01*
X185475594Y-68303628D02*
X185523213Y-68398866D01*
X185523213Y-68398866D02*
X185523213Y-68589342D01*
X185523213Y-68589342D02*
X185475594Y-68684580D01*
X185475594Y-68684580D02*
X185427975Y-68732200D01*
X185427975Y-68732200D02*
X185332737Y-68779819D01*
X185332737Y-68779819D02*
X185142261Y-68779819D01*
X185142261Y-68779819D02*
X185047023Y-68732200D01*
X185047023Y-68732200D02*
X184999404Y-68684580D01*
X184999404Y-68684580D02*
X184951785Y-68589342D01*
X184951785Y-68589342D02*
X184951785Y-68398866D01*
X184951785Y-68398866D02*
X184999404Y-68303628D01*
X184999404Y-68303628D02*
X185047023Y-68256009D01*
X185047023Y-68256009D02*
X185142261Y-68208390D01*
X281891071Y-133073569D02*
X281891071Y-132073569D01*
X281891071Y-132073569D02*
X281652976Y-132073569D01*
X281652976Y-132073569D02*
X281510119Y-132121188D01*
X281510119Y-132121188D02*
X281414881Y-132216426D01*
X281414881Y-132216426D02*
X281367262Y-132311664D01*
X281367262Y-132311664D02*
X281319643Y-132502140D01*
X281319643Y-132502140D02*
X281319643Y-132644997D01*
X281319643Y-132644997D02*
X281367262Y-132835473D01*
X281367262Y-132835473D02*
X281414881Y-132930711D01*
X281414881Y-132930711D02*
X281510119Y-133025950D01*
X281510119Y-133025950D02*
X281652976Y-133073569D01*
X281652976Y-133073569D02*
X281891071Y-133073569D01*
X280414881Y-132073569D02*
X280891071Y-132073569D01*
X280891071Y-132073569D02*
X280938690Y-132549759D01*
X280938690Y-132549759D02*
X280891071Y-132502140D01*
X280891071Y-132502140D02*
X280795833Y-132454521D01*
X280795833Y-132454521D02*
X280557738Y-132454521D01*
X280557738Y-132454521D02*
X280462500Y-132502140D01*
X280462500Y-132502140D02*
X280414881Y-132549759D01*
X280414881Y-132549759D02*
X280367262Y-132644997D01*
X280367262Y-132644997D02*
X280367262Y-132883092D01*
X280367262Y-132883092D02*
X280414881Y-132978330D01*
X280414881Y-132978330D02*
X280462500Y-133025950D01*
X280462500Y-133025950D02*
X280557738Y-133073569D01*
X280557738Y-133073569D02*
X280795833Y-133073569D01*
X280795833Y-133073569D02*
X280891071Y-133025950D01*
X280891071Y-133025950D02*
X280938690Y-132978330D01*
X279986309Y-132168807D02*
X279938690Y-132121188D01*
X279938690Y-132121188D02*
X279843452Y-132073569D01*
X279843452Y-132073569D02*
X279605357Y-132073569D01*
X279605357Y-132073569D02*
X279510119Y-132121188D01*
X279510119Y-132121188D02*
X279462500Y-132168807D01*
X279462500Y-132168807D02*
X279414881Y-132264045D01*
X279414881Y-132264045D02*
X279414881Y-132359283D01*
X279414881Y-132359283D02*
X279462500Y-132502140D01*
X279462500Y-132502140D02*
X280033928Y-133073569D01*
X280033928Y-133073569D02*
X279414881Y-133073569D01*
X69476785Y-152060069D02*
X69476785Y-151060069D01*
X69476785Y-151060069D02*
X69238690Y-151060069D01*
X69238690Y-151060069D02*
X69095833Y-151107688D01*
X69095833Y-151107688D02*
X69000595Y-151202926D01*
X69000595Y-151202926D02*
X68952976Y-151298164D01*
X68952976Y-151298164D02*
X68905357Y-151488640D01*
X68905357Y-151488640D02*
X68905357Y-151631497D01*
X68905357Y-151631497D02*
X68952976Y-151821973D01*
X68952976Y-151821973D02*
X69000595Y-151917211D01*
X69000595Y-151917211D02*
X69095833Y-152012450D01*
X69095833Y-152012450D02*
X69238690Y-152060069D01*
X69238690Y-152060069D02*
X69476785Y-152060069D01*
X68000595Y-151060069D02*
X68476785Y-151060069D01*
X68476785Y-151060069D02*
X68524404Y-151536259D01*
X68524404Y-151536259D02*
X68476785Y-151488640D01*
X68476785Y-151488640D02*
X68381547Y-151441021D01*
X68381547Y-151441021D02*
X68143452Y-151441021D01*
X68143452Y-151441021D02*
X68048214Y-151488640D01*
X68048214Y-151488640D02*
X68000595Y-151536259D01*
X68000595Y-151536259D02*
X67952976Y-151631497D01*
X67952976Y-151631497D02*
X67952976Y-151869592D01*
X67952976Y-151869592D02*
X68000595Y-151964830D01*
X68000595Y-151964830D02*
X68048214Y-152012450D01*
X68048214Y-152012450D02*
X68143452Y-152060069D01*
X68143452Y-152060069D02*
X68381547Y-152060069D01*
X68381547Y-152060069D02*
X68476785Y-152012450D01*
X68476785Y-152012450D02*
X68524404Y-151964830D01*
X67095833Y-151393402D02*
X67095833Y-152060069D01*
X67333928Y-151012450D02*
X67572023Y-151726735D01*
X67572023Y-151726735D02*
X66952976Y-151726735D01*
X288320535Y-114023569D02*
X288320535Y-113023569D01*
X288320535Y-113023569D02*
X288082440Y-113023569D01*
X288082440Y-113023569D02*
X287939583Y-113071188D01*
X287939583Y-113071188D02*
X287844345Y-113166426D01*
X287844345Y-113166426D02*
X287796726Y-113261664D01*
X287796726Y-113261664D02*
X287749107Y-113452140D01*
X287749107Y-113452140D02*
X287749107Y-113594997D01*
X287749107Y-113594997D02*
X287796726Y-113785473D01*
X287796726Y-113785473D02*
X287844345Y-113880711D01*
X287844345Y-113880711D02*
X287939583Y-113975950D01*
X287939583Y-113975950D02*
X288082440Y-114023569D01*
X288082440Y-114023569D02*
X288320535Y-114023569D01*
X287415773Y-113023569D02*
X286796726Y-113023569D01*
X286796726Y-113023569D02*
X287130059Y-113404521D01*
X287130059Y-113404521D02*
X286987202Y-113404521D01*
X286987202Y-113404521D02*
X286891964Y-113452140D01*
X286891964Y-113452140D02*
X286844345Y-113499759D01*
X286844345Y-113499759D02*
X286796726Y-113594997D01*
X286796726Y-113594997D02*
X286796726Y-113833092D01*
X286796726Y-113833092D02*
X286844345Y-113928330D01*
X286844345Y-113928330D02*
X286891964Y-113975950D01*
X286891964Y-113975950D02*
X286987202Y-114023569D01*
X286987202Y-114023569D02*
X287272916Y-114023569D01*
X287272916Y-114023569D02*
X287368154Y-113975950D01*
X287368154Y-113975950D02*
X287415773Y-113928330D01*
X286320535Y-114023569D02*
X286130059Y-114023569D01*
X286130059Y-114023569D02*
X286034821Y-113975950D01*
X286034821Y-113975950D02*
X285987202Y-113928330D01*
X285987202Y-113928330D02*
X285891964Y-113785473D01*
X285891964Y-113785473D02*
X285844345Y-113594997D01*
X285844345Y-113594997D02*
X285844345Y-113214045D01*
X285844345Y-113214045D02*
X285891964Y-113118807D01*
X285891964Y-113118807D02*
X285939583Y-113071188D01*
X285939583Y-113071188D02*
X286034821Y-113023569D01*
X286034821Y-113023569D02*
X286225297Y-113023569D01*
X286225297Y-113023569D02*
X286320535Y-113071188D01*
X286320535Y-113071188D02*
X286368154Y-113118807D01*
X286368154Y-113118807D02*
X286415773Y-113214045D01*
X286415773Y-113214045D02*
X286415773Y-113452140D01*
X286415773Y-113452140D02*
X286368154Y-113547378D01*
X286368154Y-113547378D02*
X286320535Y-113594997D01*
X286320535Y-113594997D02*
X286225297Y-113642616D01*
X286225297Y-113642616D02*
X286034821Y-113642616D01*
X286034821Y-113642616D02*
X285939583Y-113594997D01*
X285939583Y-113594997D02*
X285891964Y-113547378D01*
X285891964Y-113547378D02*
X285844345Y-113452140D01*
X119003571Y-133346069D02*
X119003571Y-132346069D01*
X119003571Y-132346069D02*
X118765476Y-132346069D01*
X118765476Y-132346069D02*
X118622619Y-132393688D01*
X118622619Y-132393688D02*
X118527381Y-132488926D01*
X118527381Y-132488926D02*
X118479762Y-132584164D01*
X118479762Y-132584164D02*
X118432143Y-132774640D01*
X118432143Y-132774640D02*
X118432143Y-132917497D01*
X118432143Y-132917497D02*
X118479762Y-133107973D01*
X118479762Y-133107973D02*
X118527381Y-133203211D01*
X118527381Y-133203211D02*
X118622619Y-133298450D01*
X118622619Y-133298450D02*
X118765476Y-133346069D01*
X118765476Y-133346069D02*
X119003571Y-133346069D01*
X117575000Y-132679402D02*
X117575000Y-133346069D01*
X117813095Y-132298450D02*
X118051190Y-133012735D01*
X118051190Y-133012735D02*
X117432143Y-133012735D01*
X116622619Y-132679402D02*
X116622619Y-133346069D01*
X116860714Y-132298450D02*
X117098809Y-133012735D01*
X117098809Y-133012735D02*
X116479762Y-133012735D01*
X203389285Y-152060069D02*
X203389285Y-151060069D01*
X203389285Y-151060069D02*
X203151190Y-151060069D01*
X203151190Y-151060069D02*
X203008333Y-151107688D01*
X203008333Y-151107688D02*
X202913095Y-151202926D01*
X202913095Y-151202926D02*
X202865476Y-151298164D01*
X202865476Y-151298164D02*
X202817857Y-151488640D01*
X202817857Y-151488640D02*
X202817857Y-151631497D01*
X202817857Y-151631497D02*
X202865476Y-151821973D01*
X202865476Y-151821973D02*
X202913095Y-151917211D01*
X202913095Y-151917211D02*
X203008333Y-152012450D01*
X203008333Y-152012450D02*
X203151190Y-152060069D01*
X203151190Y-152060069D02*
X203389285Y-152060069D01*
X201960714Y-151060069D02*
X202151190Y-151060069D01*
X202151190Y-151060069D02*
X202246428Y-151107688D01*
X202246428Y-151107688D02*
X202294047Y-151155307D01*
X202294047Y-151155307D02*
X202389285Y-151298164D01*
X202389285Y-151298164D02*
X202436904Y-151488640D01*
X202436904Y-151488640D02*
X202436904Y-151869592D01*
X202436904Y-151869592D02*
X202389285Y-151964830D01*
X202389285Y-151964830D02*
X202341666Y-152012450D01*
X202341666Y-152012450D02*
X202246428Y-152060069D01*
X202246428Y-152060069D02*
X202055952Y-152060069D01*
X202055952Y-152060069D02*
X201960714Y-152012450D01*
X201960714Y-152012450D02*
X201913095Y-151964830D01*
X201913095Y-151964830D02*
X201865476Y-151869592D01*
X201865476Y-151869592D02*
X201865476Y-151631497D01*
X201865476Y-151631497D02*
X201913095Y-151536259D01*
X201913095Y-151536259D02*
X201960714Y-151488640D01*
X201960714Y-151488640D02*
X202055952Y-151441021D01*
X202055952Y-151441021D02*
X202246428Y-151441021D01*
X202246428Y-151441021D02*
X202341666Y-151488640D01*
X202341666Y-151488640D02*
X202389285Y-151536259D01*
X202389285Y-151536259D02*
X202436904Y-151631497D01*
X200913095Y-152060069D02*
X201484523Y-152060069D01*
X201198809Y-152060069D02*
X201198809Y-151060069D01*
X201198809Y-151060069D02*
X201294047Y-151202926D01*
X201294047Y-151202926D02*
X201389285Y-151298164D01*
X201389285Y-151298164D02*
X201484523Y-151345783D01*
X107345535Y-152060069D02*
X107345535Y-151060069D01*
X107345535Y-151060069D02*
X107107440Y-151060069D01*
X107107440Y-151060069D02*
X106964583Y-151107688D01*
X106964583Y-151107688D02*
X106869345Y-151202926D01*
X106869345Y-151202926D02*
X106821726Y-151298164D01*
X106821726Y-151298164D02*
X106774107Y-151488640D01*
X106774107Y-151488640D02*
X106774107Y-151631497D01*
X106774107Y-151631497D02*
X106821726Y-151821973D01*
X106821726Y-151821973D02*
X106869345Y-151917211D01*
X106869345Y-151917211D02*
X106964583Y-152012450D01*
X106964583Y-152012450D02*
X107107440Y-152060069D01*
X107107440Y-152060069D02*
X107345535Y-152060069D01*
X105869345Y-151060069D02*
X106345535Y-151060069D01*
X106345535Y-151060069D02*
X106393154Y-151536259D01*
X106393154Y-151536259D02*
X106345535Y-151488640D01*
X106345535Y-151488640D02*
X106250297Y-151441021D01*
X106250297Y-151441021D02*
X106012202Y-151441021D01*
X106012202Y-151441021D02*
X105916964Y-151488640D01*
X105916964Y-151488640D02*
X105869345Y-151536259D01*
X105869345Y-151536259D02*
X105821726Y-151631497D01*
X105821726Y-151631497D02*
X105821726Y-151869592D01*
X105821726Y-151869592D02*
X105869345Y-151964830D01*
X105869345Y-151964830D02*
X105916964Y-152012450D01*
X105916964Y-152012450D02*
X106012202Y-152060069D01*
X106012202Y-152060069D02*
X106250297Y-152060069D01*
X106250297Y-152060069D02*
X106345535Y-152012450D01*
X106345535Y-152012450D02*
X106393154Y-151964830D01*
X104964583Y-151060069D02*
X105155059Y-151060069D01*
X105155059Y-151060069D02*
X105250297Y-151107688D01*
X105250297Y-151107688D02*
X105297916Y-151155307D01*
X105297916Y-151155307D02*
X105393154Y-151298164D01*
X105393154Y-151298164D02*
X105440773Y-151488640D01*
X105440773Y-151488640D02*
X105440773Y-151869592D01*
X105440773Y-151869592D02*
X105393154Y-151964830D01*
X105393154Y-151964830D02*
X105345535Y-152012450D01*
X105345535Y-152012450D02*
X105250297Y-152060069D01*
X105250297Y-152060069D02*
X105059821Y-152060069D01*
X105059821Y-152060069D02*
X104964583Y-152012450D01*
X104964583Y-152012450D02*
X104916964Y-151964830D01*
X104916964Y-151964830D02*
X104869345Y-151869592D01*
X104869345Y-151869592D02*
X104869345Y-151631497D01*
X104869345Y-151631497D02*
X104916964Y-151536259D01*
X104916964Y-151536259D02*
X104964583Y-151488640D01*
X104964583Y-151488640D02*
X105059821Y-151441021D01*
X105059821Y-151441021D02*
X105250297Y-151441021D01*
X105250297Y-151441021D02*
X105345535Y-151488640D01*
X105345535Y-151488640D02*
X105393154Y-151536259D01*
X105393154Y-151536259D02*
X105440773Y-151631497D01*
X250703571Y-131423569D02*
X250703571Y-130423569D01*
X250703571Y-130423569D02*
X250465476Y-130423569D01*
X250465476Y-130423569D02*
X250322619Y-130471188D01*
X250322619Y-130471188D02*
X250227381Y-130566426D01*
X250227381Y-130566426D02*
X250179762Y-130661664D01*
X250179762Y-130661664D02*
X250132143Y-130852140D01*
X250132143Y-130852140D02*
X250132143Y-130994997D01*
X250132143Y-130994997D02*
X250179762Y-131185473D01*
X250179762Y-131185473D02*
X250227381Y-131280711D01*
X250227381Y-131280711D02*
X250322619Y-131375950D01*
X250322619Y-131375950D02*
X250465476Y-131423569D01*
X250465476Y-131423569D02*
X250703571Y-131423569D01*
X249227381Y-130423569D02*
X249703571Y-130423569D01*
X249703571Y-130423569D02*
X249751190Y-130899759D01*
X249751190Y-130899759D02*
X249703571Y-130852140D01*
X249703571Y-130852140D02*
X249608333Y-130804521D01*
X249608333Y-130804521D02*
X249370238Y-130804521D01*
X249370238Y-130804521D02*
X249275000Y-130852140D01*
X249275000Y-130852140D02*
X249227381Y-130899759D01*
X249227381Y-130899759D02*
X249179762Y-130994997D01*
X249179762Y-130994997D02*
X249179762Y-131233092D01*
X249179762Y-131233092D02*
X249227381Y-131328330D01*
X249227381Y-131328330D02*
X249275000Y-131375950D01*
X249275000Y-131375950D02*
X249370238Y-131423569D01*
X249370238Y-131423569D02*
X249608333Y-131423569D01*
X249608333Y-131423569D02*
X249703571Y-131375950D01*
X249703571Y-131375950D02*
X249751190Y-131328330D01*
X248227381Y-131423569D02*
X248798809Y-131423569D01*
X248513095Y-131423569D02*
X248513095Y-130423569D01*
X248513095Y-130423569D02*
X248608333Y-130566426D01*
X248608333Y-130566426D02*
X248703571Y-130661664D01*
X248703571Y-130661664D02*
X248798809Y-130709283D01*
X207358035Y-114023569D02*
X207358035Y-113023569D01*
X207358035Y-113023569D02*
X207119940Y-113023569D01*
X207119940Y-113023569D02*
X206977083Y-113071188D01*
X206977083Y-113071188D02*
X206881845Y-113166426D01*
X206881845Y-113166426D02*
X206834226Y-113261664D01*
X206834226Y-113261664D02*
X206786607Y-113452140D01*
X206786607Y-113452140D02*
X206786607Y-113594997D01*
X206786607Y-113594997D02*
X206834226Y-113785473D01*
X206834226Y-113785473D02*
X206881845Y-113880711D01*
X206881845Y-113880711D02*
X206977083Y-113975950D01*
X206977083Y-113975950D02*
X207119940Y-114023569D01*
X207119940Y-114023569D02*
X207358035Y-114023569D01*
X206453273Y-113023569D02*
X205834226Y-113023569D01*
X205834226Y-113023569D02*
X206167559Y-113404521D01*
X206167559Y-113404521D02*
X206024702Y-113404521D01*
X206024702Y-113404521D02*
X205929464Y-113452140D01*
X205929464Y-113452140D02*
X205881845Y-113499759D01*
X205881845Y-113499759D02*
X205834226Y-113594997D01*
X205834226Y-113594997D02*
X205834226Y-113833092D01*
X205834226Y-113833092D02*
X205881845Y-113928330D01*
X205881845Y-113928330D02*
X205929464Y-113975950D01*
X205929464Y-113975950D02*
X206024702Y-114023569D01*
X206024702Y-114023569D02*
X206310416Y-114023569D01*
X206310416Y-114023569D02*
X206405654Y-113975950D01*
X206405654Y-113975950D02*
X206453273Y-113928330D01*
X204977083Y-113023569D02*
X205167559Y-113023569D01*
X205167559Y-113023569D02*
X205262797Y-113071188D01*
X205262797Y-113071188D02*
X205310416Y-113118807D01*
X205310416Y-113118807D02*
X205405654Y-113261664D01*
X205405654Y-113261664D02*
X205453273Y-113452140D01*
X205453273Y-113452140D02*
X205453273Y-113833092D01*
X205453273Y-113833092D02*
X205405654Y-113928330D01*
X205405654Y-113928330D02*
X205358035Y-113975950D01*
X205358035Y-113975950D02*
X205262797Y-114023569D01*
X205262797Y-114023569D02*
X205072321Y-114023569D01*
X205072321Y-114023569D02*
X204977083Y-113975950D01*
X204977083Y-113975950D02*
X204929464Y-113928330D01*
X204929464Y-113928330D02*
X204881845Y-113833092D01*
X204881845Y-113833092D02*
X204881845Y-113594997D01*
X204881845Y-113594997D02*
X204929464Y-113499759D01*
X204929464Y-113499759D02*
X204977083Y-113452140D01*
X204977083Y-113452140D02*
X205072321Y-113404521D01*
X205072321Y-113404521D02*
X205262797Y-113404521D01*
X205262797Y-113404521D02*
X205358035Y-113452140D01*
X205358035Y-113452140D02*
X205405654Y-113499759D01*
X205405654Y-113499759D02*
X205453273Y-113594997D01*
X159733035Y-94973569D02*
X159733035Y-93973569D01*
X159733035Y-93973569D02*
X159494940Y-93973569D01*
X159494940Y-93973569D02*
X159352083Y-94021188D01*
X159352083Y-94021188D02*
X159256845Y-94116426D01*
X159256845Y-94116426D02*
X159209226Y-94211664D01*
X159209226Y-94211664D02*
X159161607Y-94402140D01*
X159161607Y-94402140D02*
X159161607Y-94544997D01*
X159161607Y-94544997D02*
X159209226Y-94735473D01*
X159209226Y-94735473D02*
X159256845Y-94830711D01*
X159256845Y-94830711D02*
X159352083Y-94925950D01*
X159352083Y-94925950D02*
X159494940Y-94973569D01*
X159494940Y-94973569D02*
X159733035Y-94973569D01*
X158780654Y-94068807D02*
X158733035Y-94021188D01*
X158733035Y-94021188D02*
X158637797Y-93973569D01*
X158637797Y-93973569D02*
X158399702Y-93973569D01*
X158399702Y-93973569D02*
X158304464Y-94021188D01*
X158304464Y-94021188D02*
X158256845Y-94068807D01*
X158256845Y-94068807D02*
X158209226Y-94164045D01*
X158209226Y-94164045D02*
X158209226Y-94259283D01*
X158209226Y-94259283D02*
X158256845Y-94402140D01*
X158256845Y-94402140D02*
X158828273Y-94973569D01*
X158828273Y-94973569D02*
X158209226Y-94973569D01*
X157256845Y-94973569D02*
X157828273Y-94973569D01*
X157542559Y-94973569D02*
X157542559Y-93973569D01*
X157542559Y-93973569D02*
X157637797Y-94116426D01*
X157637797Y-94116426D02*
X157733035Y-94211664D01*
X157733035Y-94211664D02*
X157828273Y-94259283D01*
X25675594Y-68779819D02*
X25675594Y-67779819D01*
X25675594Y-67779819D02*
X25437499Y-67779819D01*
X25437499Y-67779819D02*
X25294642Y-67827438D01*
X25294642Y-67827438D02*
X25199404Y-67922676D01*
X25199404Y-67922676D02*
X25151785Y-68017914D01*
X25151785Y-68017914D02*
X25104166Y-68208390D01*
X25104166Y-68208390D02*
X25104166Y-68351247D01*
X25104166Y-68351247D02*
X25151785Y-68541723D01*
X25151785Y-68541723D02*
X25199404Y-68636961D01*
X25199404Y-68636961D02*
X25294642Y-68732200D01*
X25294642Y-68732200D02*
X25437499Y-68779819D01*
X25437499Y-68779819D02*
X25675594Y-68779819D01*
X24151785Y-68779819D02*
X24723213Y-68779819D01*
X24437499Y-68779819D02*
X24437499Y-67779819D01*
X24437499Y-67779819D02*
X24532737Y-67922676D01*
X24532737Y-67922676D02*
X24627975Y-68017914D01*
X24627975Y-68017914D02*
X24723213Y-68065533D01*
X147581844Y-68779819D02*
X147581844Y-67779819D01*
X147581844Y-67779819D02*
X147343749Y-67779819D01*
X147343749Y-67779819D02*
X147200892Y-67827438D01*
X147200892Y-67827438D02*
X147105654Y-67922676D01*
X147105654Y-67922676D02*
X147058035Y-68017914D01*
X147058035Y-68017914D02*
X147010416Y-68208390D01*
X147010416Y-68208390D02*
X147010416Y-68351247D01*
X147010416Y-68351247D02*
X147058035Y-68541723D01*
X147058035Y-68541723D02*
X147105654Y-68636961D01*
X147105654Y-68636961D02*
X147200892Y-68732200D01*
X147200892Y-68732200D02*
X147343749Y-68779819D01*
X147343749Y-68779819D02*
X147581844Y-68779819D01*
X146153273Y-67779819D02*
X146343749Y-67779819D01*
X146343749Y-67779819D02*
X146438987Y-67827438D01*
X146438987Y-67827438D02*
X146486606Y-67875057D01*
X146486606Y-67875057D02*
X146581844Y-68017914D01*
X146581844Y-68017914D02*
X146629463Y-68208390D01*
X146629463Y-68208390D02*
X146629463Y-68589342D01*
X146629463Y-68589342D02*
X146581844Y-68684580D01*
X146581844Y-68684580D02*
X146534225Y-68732200D01*
X146534225Y-68732200D02*
X146438987Y-68779819D01*
X146438987Y-68779819D02*
X146248511Y-68779819D01*
X146248511Y-68779819D02*
X146153273Y-68732200D01*
X146153273Y-68732200D02*
X146105654Y-68684580D01*
X146105654Y-68684580D02*
X146058035Y-68589342D01*
X146058035Y-68589342D02*
X146058035Y-68351247D01*
X146058035Y-68351247D02*
X146105654Y-68256009D01*
X146105654Y-68256009D02*
X146153273Y-68208390D01*
X146153273Y-68208390D02*
X146248511Y-68160771D01*
X146248511Y-68160771D02*
X146438987Y-68160771D01*
X146438987Y-68160771D02*
X146534225Y-68208390D01*
X146534225Y-68208390D02*
X146581844Y-68256009D01*
X146581844Y-68256009D02*
X146629463Y-68351247D01*
X221083035Y-171173569D02*
X221083035Y-170173569D01*
X221083035Y-170173569D02*
X220844940Y-170173569D01*
X220844940Y-170173569D02*
X220702083Y-170221188D01*
X220702083Y-170221188D02*
X220606845Y-170316426D01*
X220606845Y-170316426D02*
X220559226Y-170411664D01*
X220559226Y-170411664D02*
X220511607Y-170602140D01*
X220511607Y-170602140D02*
X220511607Y-170744997D01*
X220511607Y-170744997D02*
X220559226Y-170935473D01*
X220559226Y-170935473D02*
X220606845Y-171030711D01*
X220606845Y-171030711D02*
X220702083Y-171125950D01*
X220702083Y-171125950D02*
X220844940Y-171173569D01*
X220844940Y-171173569D02*
X221083035Y-171173569D01*
X219654464Y-170173569D02*
X219844940Y-170173569D01*
X219844940Y-170173569D02*
X219940178Y-170221188D01*
X219940178Y-170221188D02*
X219987797Y-170268807D01*
X219987797Y-170268807D02*
X220083035Y-170411664D01*
X220083035Y-170411664D02*
X220130654Y-170602140D01*
X220130654Y-170602140D02*
X220130654Y-170983092D01*
X220130654Y-170983092D02*
X220083035Y-171078330D01*
X220083035Y-171078330D02*
X220035416Y-171125950D01*
X220035416Y-171125950D02*
X219940178Y-171173569D01*
X219940178Y-171173569D02*
X219749702Y-171173569D01*
X219749702Y-171173569D02*
X219654464Y-171125950D01*
X219654464Y-171125950D02*
X219606845Y-171078330D01*
X219606845Y-171078330D02*
X219559226Y-170983092D01*
X219559226Y-170983092D02*
X219559226Y-170744997D01*
X219559226Y-170744997D02*
X219606845Y-170649759D01*
X219606845Y-170649759D02*
X219654464Y-170602140D01*
X219654464Y-170602140D02*
X219749702Y-170554521D01*
X219749702Y-170554521D02*
X219940178Y-170554521D01*
X219940178Y-170554521D02*
X220035416Y-170602140D01*
X220035416Y-170602140D02*
X220083035Y-170649759D01*
X220083035Y-170649759D02*
X220130654Y-170744997D01*
X218702083Y-170506902D02*
X218702083Y-171173569D01*
X218940178Y-170125950D02*
X219178273Y-170840235D01*
X219178273Y-170840235D02*
X218559226Y-170840235D01*
X178551785Y-94973569D02*
X178551785Y-93973569D01*
X178551785Y-93973569D02*
X178313690Y-93973569D01*
X178313690Y-93973569D02*
X178170833Y-94021188D01*
X178170833Y-94021188D02*
X178075595Y-94116426D01*
X178075595Y-94116426D02*
X178027976Y-94211664D01*
X178027976Y-94211664D02*
X177980357Y-94402140D01*
X177980357Y-94402140D02*
X177980357Y-94544997D01*
X177980357Y-94544997D02*
X178027976Y-94735473D01*
X178027976Y-94735473D02*
X178075595Y-94830711D01*
X178075595Y-94830711D02*
X178170833Y-94925950D01*
X178170833Y-94925950D02*
X178313690Y-94973569D01*
X178313690Y-94973569D02*
X178551785Y-94973569D01*
X177599404Y-94068807D02*
X177551785Y-94021188D01*
X177551785Y-94021188D02*
X177456547Y-93973569D01*
X177456547Y-93973569D02*
X177218452Y-93973569D01*
X177218452Y-93973569D02*
X177123214Y-94021188D01*
X177123214Y-94021188D02*
X177075595Y-94068807D01*
X177075595Y-94068807D02*
X177027976Y-94164045D01*
X177027976Y-94164045D02*
X177027976Y-94259283D01*
X177027976Y-94259283D02*
X177075595Y-94402140D01*
X177075595Y-94402140D02*
X177647023Y-94973569D01*
X177647023Y-94973569D02*
X177027976Y-94973569D01*
X176647023Y-94068807D02*
X176599404Y-94021188D01*
X176599404Y-94021188D02*
X176504166Y-93973569D01*
X176504166Y-93973569D02*
X176266071Y-93973569D01*
X176266071Y-93973569D02*
X176170833Y-94021188D01*
X176170833Y-94021188D02*
X176123214Y-94068807D01*
X176123214Y-94068807D02*
X176075595Y-94164045D01*
X176075595Y-94164045D02*
X176075595Y-94259283D01*
X176075595Y-94259283D02*
X176123214Y-94402140D01*
X176123214Y-94402140D02*
X176694642Y-94973569D01*
X176694642Y-94973569D02*
X176075595Y-94973569D01*
X293083035Y-68779819D02*
X293083035Y-67779819D01*
X293083035Y-67779819D02*
X292844940Y-67779819D01*
X292844940Y-67779819D02*
X292702083Y-67827438D01*
X292702083Y-67827438D02*
X292606845Y-67922676D01*
X292606845Y-67922676D02*
X292559226Y-68017914D01*
X292559226Y-68017914D02*
X292511607Y-68208390D01*
X292511607Y-68208390D02*
X292511607Y-68351247D01*
X292511607Y-68351247D02*
X292559226Y-68541723D01*
X292559226Y-68541723D02*
X292606845Y-68636961D01*
X292606845Y-68636961D02*
X292702083Y-68732200D01*
X292702083Y-68732200D02*
X292844940Y-68779819D01*
X292844940Y-68779819D02*
X293083035Y-68779819D01*
X291559226Y-68779819D02*
X292130654Y-68779819D01*
X291844940Y-68779819D02*
X291844940Y-67779819D01*
X291844940Y-67779819D02*
X291940178Y-67922676D01*
X291940178Y-67922676D02*
X292035416Y-68017914D01*
X292035416Y-68017914D02*
X292130654Y-68065533D01*
X291225892Y-67779819D02*
X290606845Y-67779819D01*
X290606845Y-67779819D02*
X290940178Y-68160771D01*
X290940178Y-68160771D02*
X290797321Y-68160771D01*
X290797321Y-68160771D02*
X290702083Y-68208390D01*
X290702083Y-68208390D02*
X290654464Y-68256009D01*
X290654464Y-68256009D02*
X290606845Y-68351247D01*
X290606845Y-68351247D02*
X290606845Y-68589342D01*
X290606845Y-68589342D02*
X290654464Y-68684580D01*
X290654464Y-68684580D02*
X290702083Y-68732200D01*
X290702083Y-68732200D02*
X290797321Y-68779819D01*
X290797321Y-68779819D02*
X291083035Y-68779819D01*
X291083035Y-68779819D02*
X291178273Y-68732200D01*
X291178273Y-68732200D02*
X291225892Y-68684580D01*
X226408035Y-114023569D02*
X226408035Y-113023569D01*
X226408035Y-113023569D02*
X226169940Y-113023569D01*
X226169940Y-113023569D02*
X226027083Y-113071188D01*
X226027083Y-113071188D02*
X225931845Y-113166426D01*
X225931845Y-113166426D02*
X225884226Y-113261664D01*
X225884226Y-113261664D02*
X225836607Y-113452140D01*
X225836607Y-113452140D02*
X225836607Y-113594997D01*
X225836607Y-113594997D02*
X225884226Y-113785473D01*
X225884226Y-113785473D02*
X225931845Y-113880711D01*
X225931845Y-113880711D02*
X226027083Y-113975950D01*
X226027083Y-113975950D02*
X226169940Y-114023569D01*
X226169940Y-114023569D02*
X226408035Y-114023569D01*
X225503273Y-113023569D02*
X224884226Y-113023569D01*
X224884226Y-113023569D02*
X225217559Y-113404521D01*
X225217559Y-113404521D02*
X225074702Y-113404521D01*
X225074702Y-113404521D02*
X224979464Y-113452140D01*
X224979464Y-113452140D02*
X224931845Y-113499759D01*
X224931845Y-113499759D02*
X224884226Y-113594997D01*
X224884226Y-113594997D02*
X224884226Y-113833092D01*
X224884226Y-113833092D02*
X224931845Y-113928330D01*
X224931845Y-113928330D02*
X224979464Y-113975950D01*
X224979464Y-113975950D02*
X225074702Y-114023569D01*
X225074702Y-114023569D02*
X225360416Y-114023569D01*
X225360416Y-114023569D02*
X225455654Y-113975950D01*
X225455654Y-113975950D02*
X225503273Y-113928330D01*
X224550892Y-113023569D02*
X223884226Y-113023569D01*
X223884226Y-113023569D02*
X224312797Y-114023569D01*
X222439285Y-152060069D02*
X222439285Y-151060069D01*
X222439285Y-151060069D02*
X222201190Y-151060069D01*
X222201190Y-151060069D02*
X222058333Y-151107688D01*
X222058333Y-151107688D02*
X221963095Y-151202926D01*
X221963095Y-151202926D02*
X221915476Y-151298164D01*
X221915476Y-151298164D02*
X221867857Y-151488640D01*
X221867857Y-151488640D02*
X221867857Y-151631497D01*
X221867857Y-151631497D02*
X221915476Y-151821973D01*
X221915476Y-151821973D02*
X221963095Y-151917211D01*
X221963095Y-151917211D02*
X222058333Y-152012450D01*
X222058333Y-152012450D02*
X222201190Y-152060069D01*
X222201190Y-152060069D02*
X222439285Y-152060069D01*
X221010714Y-151060069D02*
X221201190Y-151060069D01*
X221201190Y-151060069D02*
X221296428Y-151107688D01*
X221296428Y-151107688D02*
X221344047Y-151155307D01*
X221344047Y-151155307D02*
X221439285Y-151298164D01*
X221439285Y-151298164D02*
X221486904Y-151488640D01*
X221486904Y-151488640D02*
X221486904Y-151869592D01*
X221486904Y-151869592D02*
X221439285Y-151964830D01*
X221439285Y-151964830D02*
X221391666Y-152012450D01*
X221391666Y-152012450D02*
X221296428Y-152060069D01*
X221296428Y-152060069D02*
X221105952Y-152060069D01*
X221105952Y-152060069D02*
X221010714Y-152012450D01*
X221010714Y-152012450D02*
X220963095Y-151964830D01*
X220963095Y-151964830D02*
X220915476Y-151869592D01*
X220915476Y-151869592D02*
X220915476Y-151631497D01*
X220915476Y-151631497D02*
X220963095Y-151536259D01*
X220963095Y-151536259D02*
X221010714Y-151488640D01*
X221010714Y-151488640D02*
X221105952Y-151441021D01*
X221105952Y-151441021D02*
X221296428Y-151441021D01*
X221296428Y-151441021D02*
X221391666Y-151488640D01*
X221391666Y-151488640D02*
X221439285Y-151536259D01*
X221439285Y-151536259D02*
X221486904Y-151631497D01*
X220534523Y-151155307D02*
X220486904Y-151107688D01*
X220486904Y-151107688D02*
X220391666Y-151060069D01*
X220391666Y-151060069D02*
X220153571Y-151060069D01*
X220153571Y-151060069D02*
X220058333Y-151107688D01*
X220058333Y-151107688D02*
X220010714Y-151155307D01*
X220010714Y-151155307D02*
X219963095Y-151250545D01*
X219963095Y-151250545D02*
X219963095Y-151345783D01*
X219963095Y-151345783D02*
X220010714Y-151488640D01*
X220010714Y-151488640D02*
X220582142Y-152060069D01*
X220582142Y-152060069D02*
X219963095Y-152060069D01*
X121633035Y-94973569D02*
X121633035Y-93973569D01*
X121633035Y-93973569D02*
X121394940Y-93973569D01*
X121394940Y-93973569D02*
X121252083Y-94021188D01*
X121252083Y-94021188D02*
X121156845Y-94116426D01*
X121156845Y-94116426D02*
X121109226Y-94211664D01*
X121109226Y-94211664D02*
X121061607Y-94402140D01*
X121061607Y-94402140D02*
X121061607Y-94544997D01*
X121061607Y-94544997D02*
X121109226Y-94735473D01*
X121109226Y-94735473D02*
X121156845Y-94830711D01*
X121156845Y-94830711D02*
X121252083Y-94925950D01*
X121252083Y-94925950D02*
X121394940Y-94973569D01*
X121394940Y-94973569D02*
X121633035Y-94973569D01*
X120109226Y-94973569D02*
X120680654Y-94973569D01*
X120394940Y-94973569D02*
X120394940Y-93973569D01*
X120394940Y-93973569D02*
X120490178Y-94116426D01*
X120490178Y-94116426D02*
X120585416Y-94211664D01*
X120585416Y-94211664D02*
X120680654Y-94259283D01*
X119633035Y-94973569D02*
X119442559Y-94973569D01*
X119442559Y-94973569D02*
X119347321Y-94925950D01*
X119347321Y-94925950D02*
X119299702Y-94878330D01*
X119299702Y-94878330D02*
X119204464Y-94735473D01*
X119204464Y-94735473D02*
X119156845Y-94544997D01*
X119156845Y-94544997D02*
X119156845Y-94164045D01*
X119156845Y-94164045D02*
X119204464Y-94068807D01*
X119204464Y-94068807D02*
X119252083Y-94021188D01*
X119252083Y-94021188D02*
X119347321Y-93973569D01*
X119347321Y-93973569D02*
X119537797Y-93973569D01*
X119537797Y-93973569D02*
X119633035Y-94021188D01*
X119633035Y-94021188D02*
X119680654Y-94068807D01*
X119680654Y-94068807D02*
X119728273Y-94164045D01*
X119728273Y-94164045D02*
X119728273Y-94402140D01*
X119728273Y-94402140D02*
X119680654Y-94497378D01*
X119680654Y-94497378D02*
X119633035Y-94544997D01*
X119633035Y-94544997D02*
X119537797Y-94592616D01*
X119537797Y-94592616D02*
X119347321Y-94592616D01*
X119347321Y-94592616D02*
X119252083Y-94544997D01*
X119252083Y-94544997D02*
X119204464Y-94497378D01*
X119204464Y-94497378D02*
X119156845Y-94402140D01*
X156478571Y-133073569D02*
X156478571Y-132073569D01*
X156478571Y-132073569D02*
X156240476Y-132073569D01*
X156240476Y-132073569D02*
X156097619Y-132121188D01*
X156097619Y-132121188D02*
X156002381Y-132216426D01*
X156002381Y-132216426D02*
X155954762Y-132311664D01*
X155954762Y-132311664D02*
X155907143Y-132502140D01*
X155907143Y-132502140D02*
X155907143Y-132644997D01*
X155907143Y-132644997D02*
X155954762Y-132835473D01*
X155954762Y-132835473D02*
X156002381Y-132930711D01*
X156002381Y-132930711D02*
X156097619Y-133025950D01*
X156097619Y-133025950D02*
X156240476Y-133073569D01*
X156240476Y-133073569D02*
X156478571Y-133073569D01*
X155050000Y-132406902D02*
X155050000Y-133073569D01*
X155288095Y-132025950D02*
X155526190Y-132740235D01*
X155526190Y-132740235D02*
X154907143Y-132740235D01*
X154097619Y-132073569D02*
X154288095Y-132073569D01*
X154288095Y-132073569D02*
X154383333Y-132121188D01*
X154383333Y-132121188D02*
X154430952Y-132168807D01*
X154430952Y-132168807D02*
X154526190Y-132311664D01*
X154526190Y-132311664D02*
X154573809Y-132502140D01*
X154573809Y-132502140D02*
X154573809Y-132883092D01*
X154573809Y-132883092D02*
X154526190Y-132978330D01*
X154526190Y-132978330D02*
X154478571Y-133025950D01*
X154478571Y-133025950D02*
X154383333Y-133073569D01*
X154383333Y-133073569D02*
X154192857Y-133073569D01*
X154192857Y-133073569D02*
X154097619Y-133025950D01*
X154097619Y-133025950D02*
X154050000Y-132978330D01*
X154050000Y-132978330D02*
X154002381Y-132883092D01*
X154002381Y-132883092D02*
X154002381Y-132644997D01*
X154002381Y-132644997D02*
X154050000Y-132549759D01*
X154050000Y-132549759D02*
X154097619Y-132502140D01*
X154097619Y-132502140D02*
X154192857Y-132454521D01*
X154192857Y-132454521D02*
X154383333Y-132454521D01*
X154383333Y-132454521D02*
X154478571Y-132502140D01*
X154478571Y-132502140D02*
X154526190Y-132549759D01*
X154526190Y-132549759D02*
X154573809Y-132644997D01*
X169258035Y-114023569D02*
X169258035Y-113023569D01*
X169258035Y-113023569D02*
X169019940Y-113023569D01*
X169019940Y-113023569D02*
X168877083Y-113071188D01*
X168877083Y-113071188D02*
X168781845Y-113166426D01*
X168781845Y-113166426D02*
X168734226Y-113261664D01*
X168734226Y-113261664D02*
X168686607Y-113452140D01*
X168686607Y-113452140D02*
X168686607Y-113594997D01*
X168686607Y-113594997D02*
X168734226Y-113785473D01*
X168734226Y-113785473D02*
X168781845Y-113880711D01*
X168781845Y-113880711D02*
X168877083Y-113975950D01*
X168877083Y-113975950D02*
X169019940Y-114023569D01*
X169019940Y-114023569D02*
X169258035Y-114023569D01*
X168353273Y-113023569D02*
X167734226Y-113023569D01*
X167734226Y-113023569D02*
X168067559Y-113404521D01*
X168067559Y-113404521D02*
X167924702Y-113404521D01*
X167924702Y-113404521D02*
X167829464Y-113452140D01*
X167829464Y-113452140D02*
X167781845Y-113499759D01*
X167781845Y-113499759D02*
X167734226Y-113594997D01*
X167734226Y-113594997D02*
X167734226Y-113833092D01*
X167734226Y-113833092D02*
X167781845Y-113928330D01*
X167781845Y-113928330D02*
X167829464Y-113975950D01*
X167829464Y-113975950D02*
X167924702Y-114023569D01*
X167924702Y-114023569D02*
X168210416Y-114023569D01*
X168210416Y-114023569D02*
X168305654Y-113975950D01*
X168305654Y-113975950D02*
X168353273Y-113928330D01*
X166877083Y-113356902D02*
X166877083Y-114023569D01*
X167115178Y-112975950D02*
X167353273Y-113690235D01*
X167353273Y-113690235D02*
X166734226Y-113690235D01*
D11*
%TO.C,D65*%
X273571250Y-148995250D02*
X276431250Y-148995250D01*
X273571250Y-150915250D02*
X273571250Y-148995250D01*
X276431250Y-150915250D02*
X273571250Y-150915250D01*
%TO.C,D71*%
X251908750Y-91908750D02*
X254768750Y-91908750D01*
X251908750Y-93828750D02*
X251908750Y-91908750D01*
X254768750Y-93828750D02*
X251908750Y-93828750D01*
%TO.C,D57*%
X124115000Y-148995250D02*
X126975000Y-148995250D01*
X124115000Y-150915250D02*
X124115000Y-148995250D01*
X126975000Y-150915250D02*
X124115000Y-150915250D01*
%TO.C,D28*%
X51883750Y-110958750D02*
X54743750Y-110958750D01*
X51883750Y-112878750D02*
X51883750Y-110958750D01*
X54743750Y-112878750D02*
X51883750Y-112878750D01*
%TO.C,D41*%
X57591786Y-130008750D02*
X60451786Y-130008750D01*
X57591786Y-131928750D02*
X57591786Y-130008750D01*
X60451786Y-131928750D02*
X57591786Y-131928750D01*
%TO.C,D11*%
X251908750Y-65715000D02*
X254768750Y-65715000D01*
X251908750Y-67635000D02*
X251908750Y-65715000D01*
X254768750Y-67635000D02*
X251908750Y-67635000D01*
%TO.C,D40*%
X31729286Y-130008750D02*
X34589286Y-130008750D01*
X31729286Y-131928750D02*
X31729286Y-130008750D01*
X34589286Y-131928750D02*
X31729286Y-131928750D01*
%TO.C,D67*%
X73963156Y-168108750D02*
X76823156Y-168108750D01*
X73963156Y-170028750D02*
X73963156Y-168108750D01*
X76823156Y-170028750D02*
X73963156Y-170028750D01*
%TO.C,D17*%
X80458750Y-91908750D02*
X83318750Y-91908750D01*
X80458750Y-93828750D02*
X80458750Y-91908750D01*
X83318750Y-93828750D02*
X80458750Y-93828750D01*
%TO.C,D7*%
X163802500Y-65715000D02*
X166662500Y-65715000D01*
X163802500Y-67635000D02*
X163802500Y-65715000D01*
X166662500Y-67635000D02*
X163802500Y-67635000D01*
%TO.C,D43*%
X95229286Y-130008750D02*
X98089286Y-130008750D01*
X95229286Y-131928750D02*
X95229286Y-130008750D01*
X98089286Y-131928750D02*
X95229286Y-131928750D01*
%TO.C,D69*%
X359065000Y-65715000D02*
X361925000Y-65715000D01*
X359065000Y-67635000D02*
X359065000Y-65715000D01*
X361925000Y-67635000D02*
X359065000Y-67635000D01*
%TO.C,D79*%
X27925656Y-168108750D02*
X30785656Y-168108750D01*
X27925656Y-170028750D02*
X27925656Y-168108750D01*
X30785656Y-170028750D02*
X27925656Y-170028750D01*
%TO.C,D83*%
X288838156Y-168108750D02*
X291698156Y-168108750D01*
X288838156Y-170028750D02*
X288838156Y-168108750D01*
X291698156Y-170028750D02*
X288838156Y-170028750D01*
%TO.C,D27*%
X29427500Y-110958750D02*
X32287500Y-110958750D01*
X29427500Y-112878750D02*
X29427500Y-110958750D01*
X32287500Y-112878750D02*
X29427500Y-112878750D01*
%TO.C,D15*%
X42358750Y-91908750D02*
X45218750Y-91908750D01*
X42358750Y-93828750D02*
X42358750Y-91908750D01*
X45218750Y-93828750D02*
X42358750Y-93828750D01*
%TO.C,D80*%
X50944406Y-168108750D02*
X53804406Y-168108750D01*
X50944406Y-170028750D02*
X50944406Y-168108750D01*
X53804406Y-170028750D02*
X50944406Y-170028750D01*
%TO.C,D66*%
X320965000Y-65715000D02*
X323825000Y-65715000D01*
X320965000Y-67635000D02*
X320965000Y-65715000D01*
X323825000Y-67635000D02*
X320965000Y-67635000D01*
%TO.C,D53*%
X36240000Y-148995250D02*
X39100000Y-148995250D01*
X36240000Y-150915250D02*
X36240000Y-148995250D01*
X39100000Y-150915250D02*
X36240000Y-150915250D01*
%TO.C,D20*%
X137608750Y-91908750D02*
X140468750Y-91908750D01*
X137608750Y-93828750D02*
X137608750Y-91908750D01*
X140468750Y-93828750D02*
X137608750Y-93828750D01*
%TO.C,D45*%
X134354286Y-130008750D02*
X137214286Y-130008750D01*
X134354286Y-131928750D02*
X134354286Y-130008750D01*
X137214286Y-131928750D02*
X134354286Y-131928750D01*
%TO.C,D60*%
X181496250Y-148995250D02*
X184356250Y-148995250D01*
X181496250Y-150915250D02*
X181496250Y-148995250D01*
X184356250Y-150915250D02*
X181496250Y-150915250D01*
%TO.C,D42*%
X76179286Y-130008750D02*
X79039286Y-130008750D01*
X76179286Y-131928750D02*
X76179286Y-130008750D01*
X79039286Y-131928750D02*
X76179286Y-131928750D01*
%TO.C,D38*%
X242383750Y-110958750D02*
X245243750Y-110958750D01*
X242383750Y-112878750D02*
X242383750Y-110958750D01*
X245243750Y-112878750D02*
X242383750Y-112878750D01*
%TO.C,D49*%
X211116786Y-130008750D02*
X213976786Y-130008750D01*
X211116786Y-131928750D02*
X211116786Y-130008750D01*
X213976786Y-131928750D02*
X211116786Y-131928750D01*
%TO.C,D2*%
X54265000Y-65715000D02*
X57125000Y-65715000D01*
X54265000Y-67635000D02*
X54265000Y-65715000D01*
X57125000Y-67635000D02*
X54265000Y-67635000D01*
%TO.C,D59*%
X162446250Y-148995250D02*
X165306250Y-148995250D01*
X162446250Y-150915250D02*
X162446250Y-148995250D01*
X165306250Y-150915250D02*
X162446250Y-150915250D01*
%TO.C,D74*%
X359341250Y-167315000D02*
X362201250Y-167315000D01*
X359341250Y-169235000D02*
X359341250Y-167315000D01*
X362201250Y-169235000D02*
X359341250Y-169235000D01*
%TO.C,D9*%
X202696250Y-65715000D02*
X205556250Y-65715000D01*
X202696250Y-67635000D02*
X202696250Y-65715000D01*
X205556250Y-67635000D02*
X202696250Y-67635000D01*
%TO.C,D82*%
X265402500Y-168108750D02*
X268262500Y-168108750D01*
X265402500Y-170028750D02*
X265402500Y-168108750D01*
X268262500Y-170028750D02*
X265402500Y-170028750D01*
%TO.C,D50*%
X229604286Y-130008750D02*
X232464286Y-130008750D01*
X229604286Y-131928750D02*
X229604286Y-130008750D01*
X232464286Y-131928750D02*
X229604286Y-131928750D01*
%TO.C,D47*%
X172454286Y-130008750D02*
X175314286Y-130008750D01*
X172454286Y-131928750D02*
X172454286Y-130008750D01*
X175314286Y-131928750D02*
X172454286Y-131928750D01*
%TO.C,D30*%
X90546250Y-110958750D02*
X93406250Y-110958750D01*
X90546250Y-112878750D02*
X90546250Y-110958750D01*
X93406250Y-112878750D02*
X90546250Y-112878750D01*
%TO.C,D33*%
X147696250Y-110958750D02*
X150556250Y-110958750D01*
X147696250Y-112878750D02*
X147696250Y-110958750D01*
X150556250Y-112878750D02*
X147696250Y-112878750D01*
%TO.C,D25*%
X232858750Y-91908750D02*
X235718750Y-91908750D01*
X232858750Y-93828750D02*
X232858750Y-91908750D01*
X235718750Y-93828750D02*
X232858750Y-93828750D01*
%TO.C,D16*%
X60615000Y-91908750D02*
X63475000Y-91908750D01*
X60615000Y-93828750D02*
X60615000Y-91908750D01*
X63475000Y-93828750D02*
X60615000Y-93828750D01*
%TO.C,D76*%
X261433750Y-110958750D02*
X264293750Y-110958750D01*
X261433750Y-112878750D02*
X261433750Y-110958750D01*
X264293750Y-112878750D02*
X261433750Y-112878750D01*
%TO.C,D55*%
X86246250Y-148995250D02*
X89106250Y-148995250D01*
X86246250Y-150915250D02*
X86246250Y-148995250D01*
X89106250Y-150915250D02*
X86246250Y-150915250D01*
%TO.C,D23*%
X194527500Y-91908750D02*
X197387500Y-91908750D01*
X194527500Y-93828750D02*
X194527500Y-91908750D01*
X197387500Y-93828750D02*
X194527500Y-93828750D01*
%TO.C,D32*%
X128083750Y-110958750D02*
X130943750Y-110958750D01*
X128083750Y-112878750D02*
X128083750Y-110958750D01*
X130943750Y-112878750D02*
X128083750Y-112878750D01*
%TO.C,D26*%
X280715000Y-91908750D02*
X283575000Y-91908750D01*
X280715000Y-93828750D02*
X280715000Y-91908750D01*
X283575000Y-93828750D02*
X280715000Y-93828750D01*
%TO.C,D3*%
X73315000Y-65715000D02*
X76175000Y-65715000D01*
X73315000Y-67635000D02*
X73315000Y-65715000D01*
X76175000Y-67635000D02*
X73315000Y-67635000D01*
%TO.C,D81*%
X146194406Y-168108750D02*
X149054406Y-168108750D01*
X146194406Y-170028750D02*
X146194406Y-168108750D01*
X149054406Y-170028750D02*
X146194406Y-170028750D01*
%TO.C,D58*%
X143396250Y-148995250D02*
X146256250Y-148995250D01*
X143396250Y-150915250D02*
X143396250Y-148995250D01*
X146256250Y-150915250D02*
X143396250Y-150915250D01*
%TO.C,D70*%
X321150656Y-168108750D02*
X324010656Y-168108750D01*
X321150656Y-170028750D02*
X321150656Y-168108750D01*
X324010656Y-170028750D02*
X321150656Y-170028750D01*
%TO.C,D75*%
X340522500Y-167315000D02*
X343382500Y-167315000D01*
X340522500Y-169235000D02*
X340522500Y-167315000D01*
X343382500Y-169235000D02*
X340522500Y-169235000D01*
%TO.C,D35*%
X185233750Y-110958750D02*
X188093750Y-110958750D01*
X185233750Y-112878750D02*
X185233750Y-110958750D01*
X188093750Y-112878750D02*
X185233750Y-112878750D01*
%TO.C,D10*%
X232065000Y-65715000D02*
X234925000Y-65715000D01*
X232065000Y-67635000D02*
X232065000Y-65715000D01*
X234925000Y-67635000D02*
X232065000Y-67635000D01*
%TO.C,D12*%
X271752500Y-65715000D02*
X274612500Y-65715000D01*
X271752500Y-67635000D02*
X271752500Y-65715000D01*
X274612500Y-67635000D02*
X271752500Y-67635000D01*
%TO.C,D31*%
X108471250Y-110958750D02*
X111331250Y-110958750D01*
X108471250Y-112878750D02*
X108471250Y-110958750D01*
X111331250Y-112878750D02*
X108471250Y-112878750D01*
%TO.C,D48*%
X190710536Y-130008750D02*
X193570536Y-130008750D01*
X190710536Y-131928750D02*
X190710536Y-130008750D01*
X193570536Y-131928750D02*
X190710536Y-131928750D01*
%TO.C,D14*%
X23308750Y-91908750D02*
X26168750Y-91908750D01*
X23308750Y-93828750D02*
X23308750Y-91908750D01*
X26168750Y-93828750D02*
X23308750Y-93828750D01*
%TO.C,D5*%
X111415000Y-65715000D02*
X114275000Y-65715000D01*
X111415000Y-67635000D02*
X111415000Y-65715000D01*
X114275000Y-67635000D02*
X111415000Y-67635000D01*
%TO.C,D68*%
X339221250Y-65715000D02*
X342081250Y-65715000D01*
X339221250Y-67635000D02*
X339221250Y-65715000D01*
X342081250Y-67635000D02*
X339221250Y-67635000D01*
%TO.C,D24*%
X213577500Y-91908750D02*
X216437500Y-91908750D01*
X213577500Y-93828750D02*
X213577500Y-91908750D01*
X216437500Y-93828750D02*
X213577500Y-93828750D01*
%TO.C,D4*%
X91571250Y-65715000D02*
X94431250Y-65715000D01*
X91571250Y-67635000D02*
X91571250Y-65715000D01*
X94431250Y-67635000D02*
X91571250Y-67635000D01*
%TO.C,D77*%
X240233750Y-168108750D02*
X243093750Y-168108750D01*
X240233750Y-170028750D02*
X240233750Y-168108750D01*
X243093750Y-170028750D02*
X240233750Y-170028750D01*
%TO.C,D18*%
X99508750Y-91908750D02*
X102368750Y-91908750D01*
X99508750Y-93828750D02*
X99508750Y-91908750D01*
X102368750Y-93828750D02*
X99508750Y-93828750D01*
%TO.C,D29*%
X71165000Y-110958750D02*
X74025000Y-110958750D01*
X71165000Y-112878750D02*
X71165000Y-110958750D01*
X74025000Y-112878750D02*
X71165000Y-112878750D01*
%TO.C,D63*%
X238646250Y-148995250D02*
X241506250Y-148995250D01*
X238646250Y-150915250D02*
X238646250Y-148995250D01*
X241506250Y-150915250D02*
X238646250Y-150915250D01*
%TO.C,D8*%
X183877500Y-65715000D02*
X186737500Y-65715000D01*
X183877500Y-67635000D02*
X183877500Y-65715000D01*
X186737500Y-67635000D02*
X183877500Y-67635000D01*
%TO.C,D52*%
X278816786Y-130008750D02*
X281676786Y-130008750D01*
X278816786Y-131928750D02*
X278816786Y-130008750D01*
X281676786Y-131928750D02*
X278816786Y-131928750D01*
%TO.C,D54*%
X66402500Y-148995250D02*
X69262500Y-148995250D01*
X66402500Y-150915250D02*
X66402500Y-148995250D01*
X69262500Y-150915250D02*
X66402500Y-150915250D01*
%TO.C,D39*%
X285246250Y-110958750D02*
X288106250Y-110958750D01*
X285246250Y-112878750D02*
X285246250Y-110958750D01*
X288106250Y-112878750D02*
X285246250Y-112878750D01*
%TO.C,D44*%
X115866786Y-130008750D02*
X118726786Y-130008750D01*
X115866786Y-131928750D02*
X115866786Y-130008750D01*
X118726786Y-131928750D02*
X115866786Y-131928750D01*
%TO.C,D61*%
X200315000Y-148995250D02*
X203175000Y-148995250D01*
X200315000Y-150915250D02*
X200315000Y-148995250D01*
X203175000Y-150915250D02*
X200315000Y-150915250D01*
%TO.C,D56*%
X104271250Y-148995250D02*
X107131250Y-148995250D01*
X104271250Y-150915250D02*
X104271250Y-148995250D01*
X107131250Y-150915250D02*
X104271250Y-150915250D01*
%TO.C,D51*%
X247629286Y-130008750D02*
X250489286Y-130008750D01*
X247629286Y-131928750D02*
X247629286Y-130008750D01*
X250489286Y-131928750D02*
X247629286Y-131928750D01*
%TO.C,D36*%
X204283750Y-110958750D02*
X207143750Y-110958750D01*
X204283750Y-112878750D02*
X204283750Y-110958750D01*
X207143750Y-112878750D02*
X204283750Y-112878750D01*
%TO.C,D21*%
X156658750Y-91908750D02*
X159518750Y-91908750D01*
X156658750Y-93828750D02*
X156658750Y-91908750D01*
X159518750Y-93828750D02*
X156658750Y-93828750D01*
%TO.C,D1*%
X23077500Y-65715000D02*
X25937500Y-65715000D01*
X23077500Y-67635000D02*
X23077500Y-65715000D01*
X25937500Y-67635000D02*
X23077500Y-67635000D01*
%TO.C,D6*%
X144983750Y-65715000D02*
X147843750Y-65715000D01*
X144983750Y-67635000D02*
X144983750Y-65715000D01*
X147843750Y-67635000D02*
X144983750Y-67635000D01*
%TO.C,D64*%
X218008750Y-168108750D02*
X220868750Y-168108750D01*
X218008750Y-170028750D02*
X218008750Y-168108750D01*
X220868750Y-170028750D02*
X218008750Y-170028750D01*
%TO.C,D22*%
X175477500Y-91908750D02*
X178337500Y-91908750D01*
X175477500Y-93828750D02*
X175477500Y-91908750D01*
X178337500Y-93828750D02*
X175477500Y-93828750D01*
%TO.C,D13*%
X290008750Y-65715000D02*
X292868750Y-65715000D01*
X290008750Y-67635000D02*
X290008750Y-65715000D01*
X292868750Y-67635000D02*
X290008750Y-67635000D01*
%TO.C,D37*%
X223333750Y-110958750D02*
X226193750Y-110958750D01*
X223333750Y-112878750D02*
X223333750Y-110958750D01*
X226193750Y-112878750D02*
X223333750Y-112878750D01*
%TO.C,D62*%
X219365000Y-148995250D02*
X222225000Y-148995250D01*
X219365000Y-150915250D02*
X219365000Y-148995250D01*
X222225000Y-150915250D02*
X219365000Y-150915250D01*
%TO.C,D19*%
X118558750Y-91908750D02*
X121418750Y-91908750D01*
X118558750Y-93828750D02*
X118558750Y-91908750D01*
X121418750Y-93828750D02*
X118558750Y-93828750D01*
%TO.C,D46*%
X153404286Y-130008750D02*
X156264286Y-130008750D01*
X153404286Y-131928750D02*
X153404286Y-130008750D01*
X156264286Y-131928750D02*
X153404286Y-131928750D01*
%TO.C,D34*%
X166183750Y-110958750D02*
X169043750Y-110958750D01*
X166183750Y-112878750D02*
X166183750Y-110958750D01*
X169043750Y-112878750D02*
X166183750Y-112878750D01*
%TD*%
M02*
